<svg clip-rule="evenodd" fill-rule="evenodd" stroke-linejoin="round" stroke-miterlimit="2" viewBox="0 0 27 26" xmlns="http://www.w3.org/2000/svg"><g fill="#fff"><path d="m9.313-3.107h5.303v15.911l3.536-3.536 3.536 3.536-9.723 9.723-9.724-9.723 3.536-3.536 3.536 3.536z" fill-rule="nonzero" transform="matrix(0 -.565657 .565657 0 2.75737 19.2679)"/><path d="m4 9v-6.293c0-.718.285-1.406.793-1.914.508-.508 1.196-.793 1.914-.793h14.586c.718 0 1.406.285 1.914.793.508.508.793 1.196.793 1.914v20.586c0 .718-.285 1.406-.793 1.914-.508.508-1.196.793-1.914.793-2.644 0-11.942 0-14.586 0-.718 0-1.406-.285-1.914-.793-.508-.508-.793-1.196-.793-1.914v-7.293h2v7.293c0 .188.074.367.207.5.133.133.312.207.5.207h14.586c.188 0 .367-.074.5-.207.133-.133.207-.312.207-.5 0-3.311 0-17.275 0-20.586 0-.188-.074-.367-.207-.5-.133-.133-.312-.207-.5-.207-2.644 0-11.942 0-14.586 0-.188 0-.367.074-.5.207-.133.133-.207.312-.207.5v6.293z"/></g></svg>