<?xml version="1.0" encoding="UTF-8" standalone="no"?>
<!-- Created with Inkscape (http://www.inkscape.org/) -->

<svg
   xmlns:dc="http://purl.org/dc/elements/1.1/"
   xmlns:cc="http://creativecommons.org/ns#"
   xmlns:rdf="http://www.w3.org/1999/02/22-rdf-syntax-ns#"
   xmlns:svg="http://www.w3.org/2000/svg"
   xmlns="http://www.w3.org/2000/svg"
   xmlns:sodipodi="http://sodipodi.sourceforge.net/DTD/sodipodi-0.dtd"
   xmlns:inkscape="http://www.inkscape.org/namespaces/inkscape"
   version="1.1"
   width="480.37045"
   height="480.37064"
   id="svg3124"
   inkscape:version="0.48.4 r9939"
   sodipodi:docname="duplicati.svg">
  <sodipodi:namedview
     pagecolor="#ffffff"
     bordercolor="#666666"
     borderopacity="1"
     objecttolerance="10"
     gridtolerance="10"
     guidetolerance="10"
     inkscape:pageopacity="0"
     inkscape:pageshadow="2"
     inkscape:window-width="1024"
     inkscape:window-height="741"
     id="namedview17"
     showgrid="false"
     fit-margin-top="0"
     fit-margin-left="0"
     fit-margin-right="0"
     fit-margin-bottom="0"
     inkscape:zoom="0.39333333"
     inkscape:cx="-96.67918"
     inkscape:cy="240.18532"
     inkscape:window-x="0"
     inkscape:window-y="-5"
     inkscape:window-maximized="1"
     inkscape:current-layer="svg3124" />
  <defs
     id="defs3126">
    <clipPath
       id="clipPath4165">
      <rect
         width="480.37045"
         height="480.37064"
         ry="82.038612"
         x="16.185333"
         y="16.402828"
         id="rect4167"
         style="color:#000000;fill:#000000;fill-opacity:1;stroke:#000000;stroke-width:1;stroke-linecap:butt;stroke-linejoin:miter;stroke-miterlimit:4;stroke-opacity:1;stroke-dasharray:none;stroke-dashoffset:0;marker:none;visibility:visible;display:inline;overflow:visible;enable-background:accumulate" />
    </clipPath>
  </defs>
  <metadata
     id="metadata3129">
    <rdf:RDF>
      <cc:Work
         rdf:about="">
        <dc:format>image/svg+xml</dc:format>
        <dc:type
           rdf:resource="http://purl.org/dc/dcmitype/StillImage" />
        <dc:title />
      </cc:Work>
    </rdf:RDF>
  </metadata>
  <g
     id="layer1"
     transform="translate(-240.18533,-82.069495)">
    <g
       transform="translate(224,65.666667)"
       clip-path="url(#clipPath4165)"
       id="g3087">
      <path
         d="m 224,65.65625 0,256 0,256 256,0 256,0 0,-256 0,-256 -256,0 -256,0 z"
         transform="translate(-224,-65.666667)"
         id="path3103"
         style="fill:#f4f5f7"
         inkscape:connector-curvature="0" />
      <path
         d="M 95.5,497.34915 C 70.82556,495.21366 48.663938,484.24277 34.432878,467.11847 27.382659,458.63491 19.749941,443.05171 16.986798,431.5 l -2.152779,-9 0.01001,-166.52636 0.01001,-166.526364 2.142768,-8.973638 C 19.654759,69.342489 27.304793,53.504185 33.893152,45.492172 46.209435,30.514509 64.275356,20.156207 85.5,15.902797 c 10.422378,-2.08864 330.57762,-2.08864 341,0 35.24973,7.064032 60.35217,30.706312 68.46839,64.485701 l 2.13565,8.888498 0.014,166.666334 0.0139,166.66634 -2.13576,8.94517 C 492.2653,442.99253 484.6158,458.63698 477.66494,467 465.89212,481.16461 450.29927,490.37284 429,495.73868 c -5.87348,1.47968 -22.06662,1.6529 -168,1.79709 -88.825,0.0878 -163.3,0.004 -165.5,-0.18662 z m 337.16153,-22.42347 c 11.16711,-3.52234 18.15299,-8.00154 27.17762,-17.42568 9.48671,-9.90669 13.7432,-17.72065 16.23787,-29.80914 1.81549,-8.79732 1.89727,-16.00601 1.90984,-168.35289 0.0138,-167.562304 0.0142,-167.546314 -4.34355,-177.378871 L 472.11024,78.5 472.80512,83 C 473.1873,85.475 473.5,163.325 473.5,256 l 0,168.5 -2.79125,8 c -6.93542,19.87764 -21.98369,33.74071 -42.83479,39.46112 -7.49781,2.057 -8.38804,2.06611 -176.13413,1.80316 -92.72903,-0.14535 -167.93904,0.10457 -167.133354,0.55538 6.075477,3.39946 12.240362,3.51576 177.393524,3.34669 L 424.5,477.5 l 8.16153,-2.57432 z M 32.122462,442.59776 C 30.982384,439.55063 29.138434,432.58639 28.024796,427.12168 26.041825,417.39107 26,413.89759 26,258 26,102.87486 26.050901,98.564394 27.995388,89.022631 34.624854,56.491284 51.975107,38.163928 85.5,28.279564 c 5.610454,-1.654167 16.51773,-1.78928 168,-2.081091 117.70311,-0.22674 163.99999,-3.96e-4 169.31424,0.827771 4.02282,0.626914 11.43197,2.430824 16.46477,4.00869 5.0328,1.577866 9.32364,2.695751 9.5352,2.484189 0.8129,-0.812903 -10.03055,-5.583861 -17.00489,-7.481896 C 427.78919,24.943168 420.45,23.590914 415.5,23.032219 409.79378,22.388171 351.23766,22.020552 255.5,22.027727 93.817623,22.039846 92.549704,22.07531 76.5,27.034434 62.208487,31.450302 48.768815,40.29532 40.452641,50.758193 34.957911,57.671306 27.684099,72.250769 25.614212,80.5 c -3.591316,14.31267 -3.70404,20.37288 -3.366717,181 0.37013,176.24924 -0.105518,164.53785 7.326643,180.39642 3.975565,8.48297 5.630183,8.93835 2.548324,0.70134 z M 413.98469,323.25 c -0.009,-51.45007 -0.40174,-91.36043 -0.90764,-92.15958 -1.35963,-2.14775 -6.42948,0.33511 -10.576,5.17938 l -3.41862,3.99389 -13.29121,-0.5154 C 367.0989,239.02344 361.44957,236.64097 356.748,227.5 c -1.87637,-3.64811 -2.06575,-5.87382 -2.15268,-25.30013 l -0.0953,-21.30013 2.37547,-1.79881 c 2.79856,-2.1192 4.83013,-11.5458 2.97106,-13.78585 C 358.96264,164.25006 344.72797,164 284.98454,164 c -66.34661,0 -73.83165,0.15918 -74.37755,1.58179 -0.7934,2.06756 -0.7934,244.76886 0,246.83642 0.54797,1.42799 10.46532,1.58179 102,1.58179 L 414,414 413.98469,323.25 z M 286,402.92169 c -55.08645,-0.86484 -60.57265,-1.09434 -62.07502,-2.59671 -1.34754,-1.34754 0.78145,-21.9826 2.56128,-24.82498 0.68879,-1.1 3.51578,-2.86895 6.2822,-3.93101 3.28187,-1.25994 4.85396,-2.38938 4.52371,-3.25 C 236.98395,367.5158 237.5198,367 238.66244,367 c 1.6968,0 1.84129,-0.69583 1.50938,-7.26866 -0.58517,-11.58794 2.50517,-13.66052 20.43861,-13.70748 11.58521,-0.0303 18.38957,-0.95592 18.38957,-2.5015 0,-0.66318 1.78372,-1.7402 3.96382,-2.39337 2.1801,-0.65318 4.61607,-2.11882 5.41327,-3.25698 1.67697,-2.39421 6.05826,-4.87201 8.61477,-4.87201 1.97563,0 4.33688,-2.33793 3.35397,-3.32084 -1.23467,-1.23467 -0.30095,-79.00023 0.98069,-81.67819 2.15483,-4.50245 5.54237,-4.88393 43.9077,-4.94453 L 380.96845,243 l 3.20637,2.86489 3.20636,2.86489 0.35532,12.38511 c 0.19543,6.81181 0.57296,13.41645 0.83897,14.67698 0.43886,2.07963 0.62859,2.14693 2.04883,0.72669 0.86085,-0.86085 2.88063,-2.24543 4.48841,-3.07684 3.23434,-1.67255 3.043,-1.87394 4.80558,5.05828 1.84964,7.27463 3.09613,33.42003 3.75271,78.71407 l 0.64819,44.71408 -2.47106,0.93949 c -2.92482,1.11201 -47.14607,1.13264 -115.84813,0.0541 z m 48.84246,-92.56415 C 336.68911,308.51089 339.02948,307 340.0433,307 c 1.01381,0 2.43131,-0.81713 3.15,-1.81585 0.71868,-0.99872 1.9817,-2.14137 2.8067,-2.53923 2.47599,-1.19403 5.70105,-3.15261 7.14335,-4.33814 0.74616,-0.61333 2.48165,-1.27076 3.85665,-1.46096 1.79526,-0.24834 2.4103,-0.86904 2.18181,-2.20188 -0.20446,-1.19263 0.15298,-1.68493 1,-1.37729 0.725,0.26334 2.21819,-0.31221 3.31819,-1.279 2.80054,-2.46137 6.48132,-3.47258 6.57029,-1.80504 0.0387,0.72457 0.45702,0.41739 0.92971,-0.68261 0.47269,-1.1 0.89106,-7.96973 0.92971,-15.26607 L 372,260.96786 344.75,261.23393 317.5,261.5 317.17945,274 c -0.1763,6.875 -0.0155,18.94314 0.35737,26.8181 l 0.67791,14.31809 6.6351,-0.71056 c 5.72008,-0.61257 7.09812,-1.17358 9.99263,-4.06809 z m -72.68183,22.73819 -17.33938,-0.59573 -2.41062,-2.80576 c -3.33467,-3.88127 -3.33429,-10.50801 8.1e-4,-14.38848 l 2.41144,-2.80576 20.02661,-0.30772 c 16.63755,-0.25564 20.53828,-0.0431 23.05016,1.25583 5.41677,2.80112 6.71914,13.87195 2.12137,18.03287 -2.39508,2.16752 -5.88466,2.36977 -27.86039,1.61475 z M 244.77514,297.47257 C 241.15107,295.46414 240,293.06509 240,287.52029 c 0,-3.56251 0.55822,-5.16942 2.45455,-7.06574 2.44727,-2.44728 2.51558,-2.45455 23.06574,-2.45455 12.85207,0 21.37122,0.40675 22.63011,1.08049 2.87105,1.53654 5.05169,7.32538 4.28963,11.3875 -0.34696,1.84945 -1.74806,4.41325 -3.11354,5.69732 -2.40726,2.26374 -3.08055,2.34202 -22.1546,2.57602 -16.00776,0.19638 -20.17943,-0.0399 -22.39675,-1.26876 z m -0.72404,-34.89964 c -4.72111,-2.61454 -5.62924,-11.62538 -1.63943,-16.26717 l 2.41166,-2.80576 19.44187,-0.32462 c 23.06242,-0.38507 25.94033,0.28776 27.64546,6.46321 1.32673,4.80505 -0.12627,10.6986 -3.16185,12.8248 -3.01334,2.11063 -40.91659,2.20352 -44.69771,0.10954 z M 196.5,334 l 0,-3.5 -48.16739,-0.5 c -26.49206,-0.275 -48.35432,-0.725 -48.582802,-1 -0.228481,-0.275 -0.153157,-52.025 0.167386,-115 L 100.5,99.5 167.5,99 c 36.85,-0.275 67.74316,-0.868629 68.65146,-1.319175 1.55243,-0.770055 2.80406,-3.609333 2.83489,-6.430825 C 238.99715,90.261063 223.44062,90 164.5,90 L 90,90 90,213.33333 c 0,67.83334 0.303938,123.63727 0.675418,124.00875 0.37148,0.37148 24.333982,0.55898 53.250002,0.41667 L 196.5,337.5 l 0,-3.5 z"
         id="path3101"
         style="fill:#d5dae7"
         inkscape:connector-curvature="0" />
      <path
         d="m 90.5,495.88073 c -8.331772,-1.03109 -22.041816,-5.11064 -29,-8.62922 C 36.024381,474.36912 19.291142,449.67544 16.267012,420.5 14.84709,406.80124 15.436812,93.123817 16.897107,85.348052 c 7.220187,-38.446 35.982433,-64.879586 75.374576,-69.27207 13.383487,-1.492347 314.073147,-1.492347 327.456637,0 39.38967,4.392209 68.19416,30.866768 75.36845,69.27207 1.64334,8.797123 1.64876,332.551878 0.006,341.303898 -3.29587,17.55608 -10.54534,31.79941 -22.49008,44.18715 -13.60089,14.10532 -31.02567,22.48359 -52.1124,25.05694 -10.94203,1.33532 -319.20167,1.32102 -330,-0.0153 z M 434.57841,475.7607 c 4.44313,-1.50662 10.74313,-4.47137 14,-6.58834 8.91126,-5.79232 19.97387,-18.02201 24.03203,-26.56734 7.17581,-15.11022 6.76048,-3.81618 6.78878,-184.60502 0.0237,-151.65483 -0.0917,-162.967176 -1.72934,-169.5 -3.08698,-12.31426 -10.20241,-24.998007 -16.2445,-28.956934 -2.53872,-1.663437 -2.5566,-1.656774 -1.39224,0.518858 0.64873,1.212164 2.49741,4.281616 4.10818,6.821005 1.61076,2.539389 4.12615,8.217071 5.58975,12.617071 l 2.66109,8 0.24878,163.5 c 0.16989,111.6498 -0.0884,165.71989 -0.81446,170.5 -3.81562,25.12048 -20.89506,43.47109 -46.07924,49.50878 -8.04003,1.92753 -12.33238,1.97738 -170.83728,1.98421 -159.941702,0.007 -162.718876,-0.0259 -170.499997,-2.01588 C 76.343993,468.91432 67.278118,464.9832 61,460.82613 l -3.5,-2.31753 2.086458,2.67265 c 6.092879,7.80468 17.797284,14.02703 31.488728,16.7402 2.446522,0.48481 78.418294,0.81016 169.924814,0.7277 L 426.5,478.5 l 8.07841,-2.7393 z M 43.403075,461.41594 C 37.77319,452.61501 33.092899,441.78889 30.305213,431.11888 L 27.792146,421.5 27.760667,260 C 27.743354,171.175 28.046796,96.475 28.434984,94 30.949728,77.966533 38.684675,60.694947 47.721919,50.933644 58.605001,39.178617 75.539134,31.111331 95.691553,28.081293 105.65562,26.583136 410.2205,26.570104 420.30845,28.067404 434.94402,30.239683 449.13723,35.56897 461.76942,43.635225 464.6676,45.485851 467.34879,47 467.72763,47 c 0.37883,0 -1.31741,-2.044915 -3.76942,-4.544255 C 453.97188,32.276672 438.57172,25.0927 421.08729,22.45702 406.77434,20.299423 105.14243,20.303409 91,22.461382 56.137451,27.781009 32.813387,48.292059 23.864456,81.5 c -2.086283,7.741837 -2.184233,10.636718 -3.035313,89.70706 -0.50548,46.96207 -0.506008,117.7643 -0.0012,166.5 0.853575,82.41359 0.939051,85.01743 3.046097,92.79294 3.170807,11.70105 9.273357,23.28024 16.325298,30.97619 3.328905,3.63291 6.246739,6.41111 6.484076,6.17377 0.237337,-0.23733 -1.238796,-3.04265 -3.280296,-6.23402 z M 415.39301,413.41821 c 0.81815,-2.13205 0.77831,-166.91802 -0.0441,-182.21218 -0.41736,-7.76204 -1.07005,-12.26876 -1.81841,-12.55593 -2.5651,-0.98433 -9.79028,1.22456 -12.50133,3.82191 -2.76845,2.65234 -3.07571,2.70762 -13.18187,2.37181 -8.69329,-0.28886 -10.83666,-0.69286 -13.40834,-2.52733 -1.68355,-1.20093 -4.22838,-2.4765 -5.65518,-2.83461 -1.42679,-0.3581 -3.64934,-1.77914 -4.939,-3.15786 -2.33121,-2.49221 -2.34483,-2.65287 -2.34483,-27.6654 l 0,-25.15862 -76,0 -76,0 -0.25725,124.5 c -0.14148,68.475 -0.0431,125.0625 0.21862,125.75 0.37641,0.98877 21.8812,1.25 102.90026,1.25 92.47516,0 102.48335,-0.15365 103.03138,-1.58179 z M 298.16795,364.94812 c -46.65231,-0.71494 -51.50691,-0.9449 -53.25,-2.52238 -2.47706,-2.2417 -2.5223,-7.82139 -0.0832,-10.2605 1.69144,-1.69144 4.83565,-1.88662 40.25,-2.49858 21.12838,-0.3651 51.54508,-0.66446 67.59266,-0.66524 l 29.17742,-10e-4 2.1678,2.75 c 2.50633,3.17946 2.26114,9.39291 -0.47897,12.13758 -2.01374,2.01709 -13.58084,2.16078 -85.37572,1.06054 z m 32.49191,-34.91253 c -23.54761,-0.52902 -23.86358,-0.56456 -25.75,-2.89637 C 303.11195,324.91681 303,322.74074 303,290.01422 c 0,-19.12032 0.28445,-36.18645 0.6321,-37.92474 0.34766,-1.73828 1.53229,-3.64227 2.63251,-4.2311 1.30116,-0.69636 14.69722,-1.12088 38.32374,-1.21448 33.63764,-0.13326 36.456,-0.012 38.11749,1.64069 1.65259,1.64378 1.81737,4.81121 2.08828,40.14272 l 0.29412,38.35812 -2.67898,2.10729 c -2.97375,2.33915 -0.71851,2.28934 -51.7494,1.14287 z m 42.52737,-12.89225 c 1.00843,-0.94404 2.09529,-56.44256 1.13145,-57.77574 -0.56793,-0.78555 -9.39484,-1.213 -28.81868,-1.39558 -15.4,-0.14475 -28.5625,-0.19767 -29.25,-0.1176 -1.7729,0.20648 -1.82525,59.78716 -0.0531,60.37789 1.95024,0.65008 56.24076,-0.3873 56.99029,-1.08897 z m -113.6432,12.10791 C 245.01147,328.89895 243,328.07812 243,322.5 c 0,-5.73592 1.44454,-6.16941 22.81592,-6.84682 l 19.31592,-0.61225 2.43408,2.43408 c 2.98036,2.98036 3.10542,6.4018 0.3615,9.89013 -1.90831,2.42602 -2.60182,2.61763 -8.75,2.41753 -3.67258,-0.11953 -12.50761,-0.35867 -19.63339,-0.53142 z m 1.12249,-34.1987 c -13.16071,-0.49024 -14.99322,-0.77145 -16.25,-2.49368 -1.81363,-2.4853 -1.81334,-6.63307 6.3e-4,-9.11774 1.28306,-1.75745 3.15194,-1.99827 19.75,-2.54501 20.90072,-0.68847 24.1993,-0.0571 25.27433,4.83742 1.42279,6.47794 -2.65033,10.47658 -10.25658,10.06901 -2.02669,-0.10859 -10.35997,-0.44609 -18.51838,-0.75 z M 248,260.29056 c -4.94863,-1.81958 -6.54033,-7.26495 -3.25,-11.1186 1.63601,-1.91609 3.03395,-2.06987 21.46108,-2.36078 21.66633,-0.34205 22.15677,-0.22192 23.34475,5.71799 0.44047,2.20235 0.0274,3.73098 -1.55025,5.73661 L 285.85484,261 267.67742,260.921 C 257.67984,260.87763 248.825,260.59391 248,260.29056 z m -50.68804,79.14323 c 1.25929,-0.48324 1.41571,-4.02703 1.06733,-24.18113 -0.22451,-12.9882 -0.54957,-23.75628 -0.72236,-23.92907 -0.17279,-0.17279 -16.46142,-0.61596 -36.19694,-0.98482 -35.63422,-0.66601 -35.89863,-0.6865 -38.17139,-2.95926 -3.67833,-3.67833 -2.31295,-11.91953 2.13284,-12.87346 1.14321,-0.2453 18.05356,-0.79701 37.57856,-1.22602 l 35.5,-0.78003 0,-8 0,-8 -5.5,-0.59721 c -8.06566,-0.87579 -9.71449,-1.64503 -10.91642,-5.09287 -1.33389,-3.82641 -1.45375,-68.5088 -0.13746,-74.18218 0.49412,-2.12975 1.39165,-4.36551 1.99449,-4.96835 0.60285,-0.60285 4.18976,-1.27089 7.97093,-1.48455 l 6.87484,-0.38846 0.39566,-7.00221 c 0.28978,-5.12838 0.85394,-7.33731 2.10819,-8.25444 1.18918,-0.86955 8.35893,-1.41284 23.46115,-1.77777 C 245.33301,152.25464 250,151.75633 250,150.0561 c 0,-0.40145 -2.30832,-3.09972 -5.1296,-5.99614 l -5.12961,-5.26624 0.37961,-25.14686 L 240.5,88.5 l -76,0 -76,0 0.0345,124 c 0.01898,68.2 0.342353,124.7875 0.718616,125.75 0.639556,1.63602 4.132804,1.75 53.633714,1.75 29.12228,0 53.61358,-0.2548 54.42513,-0.56621 z M 139.71108,255.0499 c -16.69562,-0.58148 -16.95893,-0.66424 -18.31756,-5.75699 -0.86595,-3.24597 0.91804,-7.61618 3.68545,-9.02817 1.66007,-0.847 8.24442,-1.23989 20.94852,-1.25 20.50055,-0.0163 22.25356,0.43543 23.48729,6.05255 1.44394,6.57422 -3.28535,11.2249 -10.914,10.73261 -1.70543,-0.11005 -10.20579,-0.44755 -18.8897,-0.75 z m -16.25653,-36.50445 c -3.17853,-3.17853 -3.19488,-7.57299 -0.0418,-11.23969 l 2.41274,-2.80576 19.55839,0 c 18.9621,0 19.62718,0.0687 21.81454,2.25505 3.18382,3.18227 3.14031,9.74251 -0.0819,12.35171 C 165.00166,220.81927 162.9232,221 145.34379,221 c -19.30101,0 -19.45155,-0.0169 -21.88921,-2.45455 z m 16.25653,-32.44248 c -16.68241,-0.63709 -16.96112,-0.72549 -18.31756,-5.81006 -0.86595,-3.24597 0.91804,-7.61618 3.68545,-9.02817 2.54928,-1.30069 37.22351,-1.85337 40.37623,-0.64356 2.51643,0.96565 4.75713,6.13561 4.05154,9.34812 -1.42215,6.47502 -4.46348,7.1011 -29.79566,6.13367 z M 198.5,212.41667 C 198.5,187.37963 198.29875,183.5 197,183.5 c -1.29126,0 -1.53705,3.8946 -1.76623,27.9865 -0.14643,15.39258 -0.0337,28.5925 0.25052,29.33316 0.28422,0.74066 1.07903,1.15923 1.76624,0.93016 0.96089,-0.32029 1.24947,-7.0952 1.24947,-29.33315 z m 202.65145,-7.16812 c 0.79296,-0.79296 -2.69751,-4.90614 -12.66258,-14.92163 -15.86543,-15.94572 -14.83346,-16.03063 -15.96582,1.31358 -1.08612,16.636 -1.95492,15.70288 14.11295,15.15793 7.7673,-0.26343 13.88188,-0.91631 14.51545,-1.54988 z M 293.5,148 c 0,-3.19271 -0.2759,-3.52681 -3.1425,-3.80534 -2.52477,-0.24532 -3.55677,0.27645 -5.25,2.65437 -1.15912,1.62784 -2.1075,3.19475 -2.1075,3.48202 0,0.86874 3.29113,1.4921 7,1.32584 3.30345,-0.14808 3.5,-0.35344 3.5,-3.65689 z m -18.86085,-18.30582 c 0.41787,-0.41787 -3.92724,-5.46276 -9.65579,-11.21088 -6.21441,-6.23562 -10.78056,-10.0861 -11.3205,-9.54616 -1.11052,1.11052 -2.18111,18.26995 -1.28549,20.60388 0.56279,1.46661 1.99772,1.63492 11.07429,1.29893 5.73525,-0.21231 10.76962,-0.7279 11.18749,-1.14577 z"
         id="path3099"
         style="fill:#adaeb2"
         inkscape:connector-curvature="0" />
      <path
         d="M 87.75722,494.49282 C 50.394716,488.20942 23.924566,462.35863 17.921082,426.29075 16.632443,418.54883 16.209188,98.508191 17.475013,89 21.518441,58.627974 40.145626,34.268422 67.992619,22.936006 84.732292,16.123747 73.741253,16.5 256,16.5 c 153.57853,0 165.04392,0.117434 172.6926,1.768808 27.76728,5.995039 48.64513,22.753941 59.38748,47.67104 7.60499,17.639942 7.1331,5.077931 7.13956,190.060152 0.006,185.02028 0.48115,172.38374 -7.13956,190.06015 -9.37165,21.73772 -27.07893,37.91134 -49.26648,44.9994 -15.8053,5.04917 -11.71366,4.94126 -183.3136,4.83473 -126.41402,-0.0785 -161.625305,-0.37266 -167.74278,-1.40146 z M 82,486.04121 C 76.410716,484.28196 67.416896,479.76594 60.979043,475.48607 46.434097,465.81661 37.10246,451.49587 31.339543,430 29.715027,423.9405 29.600026,412.28419 29.642601,258 l 0.04567,-165.5 2.145967,-8 C 34.959681,72.848587 42.037059,59.15409 48.592355,52.073589 58.226935,41.667093 72.789767,34.017989 90,30.324289 98.026037,28.601723 107.39377,28.5 258,28.5 c 150.73361,0 159.96631,0.100465 167.98429,1.827911 16.10709,3.470217 31.0841,10.713393 40.36312,19.520397 8.49444,8.062337 15.78592,21.403752 19.8084,36.24396 2.2409,8.267385 2.27114,9.100477 1.81157,49.907732 -0.724,64.28642 -0.39285,222.43843 0.5287,252.5 0.6626,21.61433 1.03301,26.20212 1.85701,23 1.60549,-6.23909 1.45536,-303.0197 -0.15985,-316 C 488.48883,81.8029 486.58725,75.201045 480.95429,63.424521 471.81542,44.318351 459.0082,32.73062 439.1621,25.611722 423.02254,19.82238 428.81991,20 256,20 81.604133,20 89.076261,19.753652 71.593384,26.079696 53.105692,32.769326 38.964269,45.109664 29.807279,62.543823 23.468926,74.611529 20.959565,85.182682 19.966485,104 c -1.132346,21.45621 -1.117309,280.18525 0.01761,303 0.99086,19.91878 2.718242,27.63417 9.085956,40.58263 9.188154,18.6837 25.953649,32.42212 46.233312,37.88571 5.661276,1.52522 11.238011,2.00228 6.696637,0.57287 z m 349.56166,-8.11835 c 11.95587,-3.12836 18.7229,-7.19126 28.99993,-17.41141 9.76501,-9.71098 14.79645,-17.83657 17.96416,-29.01145 4.13329,-14.58115 4.21335,-331.05611 0.0875,-346 C 475.35916,73.71341 471.33811,67.147309 461.09571,56.895011 450.49992,46.288976 443.72982,42.300053 431.51811,39.467966 421.58127,37.163461 419.03333,38.06629 427.5,40.891727 c 16.45361,5.490783 29.60431,16.131101 36.73378,29.721553 7.36959,14.048174 6.92343,2.130682 6.92191,184.89262 -0.002,181.50138 0.38091,170.53495 -6.43147,184.42949 -4.89538,9.98461 -15.19277,19.95559 -25.79427,24.97666 C 423.09667,472.41097 433.73228,472 255.5,472 76.969588,472 87.669206,472.4195 72,464.80548 65.738093,461.76268 61.767911,458.9406 56.921742,454.08757 49.402311,446.55749 46.12377,441.37842 42.239455,430.89415 L 39.5,423.5 39.877505,315 C 40.275436,200.62936 39.316237,94.283763 37.899501,95.700499 36.713543,96.886457 35.022249,188.31851 35.0083,252 c -0.01726,78.79629 1.779277,168.81876 3.542287,177.5 2.290168,11.27702 7.516006,20.60115 17.14364,30.58829 9.512704,9.86793 17.600002,14.76969 29.5213,17.89306 7.022544,1.8399 13.237612,1.91051 172.846133,1.96359 164.48586,0.0547 165.61325,0.0416 173.5,-2.02208 z m -15.46394,-63.04674 c 1.15785,-1.82796 1.13854,-194.95455 -0.0197,-196.78409 -0.73457,-1.16034 -3.56458,-1.28734 -16.09092,-0.72209 -8.35978,0.37724 -19.27162,0.37848 -24.24855,0.003 -13.70783,-1.03481 -13.01832,0.54347 -12.5912,-28.82115 0.28327,-19.47445 0.0827,-24.56856 -1.01981,-25.89737 C 360.87284,161.1419 354.25659,161 285,161 c -67.22299,0 -75.90008,0.17467 -77.04225,1.5509 -1.86403,2.24603 -0.61822,250.94836 1.26846,253.22166 1.11948,1.3489 12.81971,1.46182 103.63091,1.00013 85.39335,-0.43414 102.51349,-0.74864 103.2406,-1.89657 z M 200.59653,292.5 c 0.24965,-124.14103 0.37061,-134.07405 1.65347,-135.78012 1.1228,-1.49321 5.82914,-1.71334 46.25,-2.16325 24.75,-0.27548 45.3375,-0.51342 45.75,-0.52875 0.4125,-0.0153 0.75,-2.7824 0.75,-6.14903 l 0,-6.12114 -15.50696,0.72675 c -19.94543,0.93478 -33.02903,-0.0205 -35.60833,-2.59975 C 242.13909,138.13909 242,136.15764 242,113.03518 242,89.376658 241.89879,88.016201 240.06574,87.035184 237.10867,85.452607 89.787509,85.612491 88.2,87.2 c -1.750328,1.750328 -1.742143,250.85786 0.0083,252.6083 0.921701,0.9217 14.38238,1.14703 56.75,0.95 L 200.5,340.5 l 0.0965,-48 z M 401.85331,208.35754 C 405.33478,207.99366 408,207.23021 408,206.59683 c 0,-1.91244 -34.69166,-35.90543 -35.8885,-35.16574 -1.66847,1.03117 -1.53637,36.2308 0.1385,36.90663 1.85129,0.74701 22.51355,0.76085 29.60331,0.0198 z M 282.25,132.35815 c 2.0625,-0.34091 3.75,-1.11849 3.75,-1.72796 C 286,129.17642 253.85818,97 252.40597,97 c -2.34068,0 -3.46825,32.53772 -1.20597,34.8 1.2911,1.2911 24.13169,1.70168 31.05,0.55815 z"
         id="path3097"
         style="fill:#8e8e8f"
         inkscape:connector-curvature="0" />
      <path
         d="M 87.5,493.54751 C 62.840628,489.31777 43.370562,477.11016 31.352707,458.34352 26.702516,451.08195 20.809899,437.30636 21.204853,434.62017 c 0.180368,-1.22674 1.404659,0.88733 3.148198,5.43622 9.733349,25.3943 28.745326,41.73153 57.775978,49.64762 5.906604,1.61062 18.285531,1.75909 169.834971,2.03703 178.05089,0.32654 170.00213,0.55255 187.07124,-5.25303 11.13714,-3.78798 20.44387,-9.79225 30.06976,-19.39959 7.38101,-7.36679 9.33871,-10.08196 13.7632,-19.08842 7.81891,-15.91613 9.23062,-22.61793 10.00576,-47.5 l 0.6542,-21 0.79059,16.5 c 1.04828,21.87808 -0.82049,34.84481 -7.23051,50.16973 -8.75071,20.92102 -27.32496,37.67339 -49.08824,44.27333 -15.08984,4.57616 -13.10831,4.52837 -183,4.41358 -119.90025,-0.081 -162.270706,-0.41216 -167.5,-1.30913 z m 1,-8.565 C 77.061225,482.5746 61.630133,475.04423 53.839511,468.06821 44.046047,459.29876 36.226188,444.54773 32.333377,427.5 c -1.602594,-7.01822 -1.792219,-11.93416 -1.545144,-40.05726 0.154901,-17.63149 0.677238,-33.38149 1.16075,-35 0.79668,-2.66681 0.891859,-2.47391 1.015061,2.05726 2.153536,79.20357 1.741034,74.87929 8.512595,89.23808 2.586494,5.48454 5.62053,9.5195 12.523602,16.65513 10.254415,10.59988 17.397245,14.99706 30.544826,18.80363 L 92.5,481.5 l 165.5,0 c 158.89513,0 165.77936,-0.0751 172.5,-1.88201 22.15368,-5.95621 40.89592,-23.15959 48.10591,-44.15612 2.69467,-7.84724 2.74958,-8.51136 3.81406,-46.12866 0.59402,-20.99174 1.36689,-38.45359 1.71749,-38.80413 1.01576,-1.01556 2.16534,41.14614 1.60449,58.84598 -0.59086,18.64702 -2.8659,28.22778 -9.99125,42.0756 -7.99609,15.54005 -23.48209,27.02503 -44.2507,32.81793 l -8,2.23141 -163,0.18853 C 103.95776,486.86959 97.143437,486.802 88.5,484.98251 z M 89,469.45624 C 85.425,468.68327 80.475,467.30445 78,466.39221 60.41165,459.90946 46.356984,443.41418 42.707663,424.97131 41.694176,419.84937 41.460755,383.99067 41.588225,253 41.748935,87.85061 41.753723,87.48623 43.848163,81 50.104647,61.624415 64.788444,48.015995 85.5,42.398557 92.241137,40.570209 98.527801,40.5 255.5,40.5 c 156.48735,0 163.27968,0.07525 170,1.88326 22.24265,5.984101 38.09827,21.824658 42.99959,42.958748 1.37626,5.934314 1.55199,25.662592 1.51534,170.118852 -0.0245,96.48873 -0.42272,165.41644 -0.97246,168.31519 -4.09212,21.57765 -19.49176,38.20671 -41.54247,44.85898 -5.67159,1.71101 -14.92184,1.82149 -169,2.01835 -136.83759,0.17484 -164.043286,-0.0173 -169.5,-1.19714 z m 222,-51.18576 c 56.925,-0.25838 104.22966,-0.85981 105.12147,-1.33652 1.46973,-0.78564 1.68107,-9.36165 2.25854,-91.65035 C 418.73041,275.35262 418.67575,230 418.25855,224.5 l -0.75855,-10 -11.32336,-0.65669 c -12.00505,-0.69623 -15.97205,-1.75955 -7.34331,-1.96831 2.84167,-0.0687 5.61667,-0.2375 6.16667,-0.375 0.55,-0.1375 2.36412,-0.30625 4.03138,-0.375 3.47763,-0.1434 4.86183,-2.46509 3.12644,-5.2439 C 411.52102,204.86142 411,203.39852 411,202.6302 c 0,-0.76832 -0.86187,-1.62232 -1.91528,-1.89779 -1.0534,-0.27547 -2.0659,-1.40282 -2.25,-2.50522 -0.28948,-1.73346 -8.50519,-10.8678 -33.02985,-36.72307 l -5.69513,-6.00412 -9.80487,-0.28743 c -5.39268,-0.15809 -20.83561,-0.40305 -34.31762,-0.54436 -13.48201,-0.1413 -25.06951,-0.60102 -25.75,-1.02158 C 297.5089,153.19648 297,150.72628 297,147.64098 c 0,-2.88254 -0.54,-5.78098 -1.2,-6.44098 -0.86486,-0.86486 -7.72572,-1.2 -24.56574,-1.2 -14.19425,0 -24.12498,-0.40633 -25.3,-1.03518 C 244.09869,137.98245 244,136.61406 244,112.14515 c 0,-25.754511 -0.003,-25.786833 -2.3297,-27.810131 -3.7653,-3.27388 -16.66982,-3.906029 -99.28557,-4.86367 -51.532736,-0.597342 -57.421664,-0.50361 -60.25,0.95898 L 79,82.05136 79.130058,156.27568 C 79.20159,197.09906 79.53909,242.425 79.880058,257 L 80.5,283.5 81.230809,264.88899 c 0.401946,-10.23606 1.160922,-19.68606 1.686614,-21 0.525693,-1.31395 1.024179,-2.16399 1.107748,-1.88899 0.08357,0.275 0.50817,22.43892 0.943559,49.25315 0.631753,38.90764 1.068248,49.0874 2.161443,50.40825 1.256059,1.51762 5.854684,1.60122 55.369827,1.00658 29.7,-0.35667 54.48947,-0.31538 55.08772,0.0918 2.32695,1.58364 2.76645,6.89515 3.32961,40.24026 0.32047,18.975 0.97096,35.1017 1.44553,35.83712 0.55143,0.85452 1.6342,1.07834 3,0.62012 C 206.53829,419.0629 254.075,418.52885 311,418.27048 z M 288.84839,134.11486 c 0.74162,-0.46998 1.19162,-1.53168 1,-2.35933 -0.4265,-1.84221 -35.63942,-38.461362 -37.77088,-39.279282 C 248.71,91.184013 248,94.802449 248,113.25687 c 0,10.40908 0.43236,18.68248 1.03518,19.80887 0.96732,1.80745 2.26212,1.93326 19.75,1.91895 10.29315,-0.008 19.3216,-0.39985 20.06321,-0.86983 z M 19.74097,430.66821 c -0.407534,-1.00748 -0.727286,-2.80748 -0.710561,-4 0.02771,-1.97598 0.122203,-2.01051 1.065782,-0.38945 0.569456,0.97831 0.889209,2.77831 0.710561,4 -0.292459,1.99999 -0.398618,2.03878 -1.065782,0.38945 z M 18.157895,415 c 0,-1.375 0.226973,-1.9375 0.504386,-1.25 0.277412,0.6875 0.277412,1.8125 0,2.5 -0.277413,0.6875 -0.504386,0.125 -0.504386,-1.25 z M 31.6911,156.5 C 31.317037,154.85 30.921059,140.675 30.811148,125 30.641726,100.83755 30.881984,95.282443 32.389772,88.5 36.320922,70.816622 45.625688,54.457546 56.26326,46.52708 63.929694,40.811641 74.779516,35.559639 84.875285,32.677046 L 92.5,30.5 254.47828,30.232262 C 433.0711,29.93706 424.41269,29.6635 441.18394,36.131179 c 8.71079,3.359238 20.74103,10.913292 25.46121,15.987665 4.67845,5.0295 10.04577,13.95492 13.30744,22.129176 4.33152,10.855472 6.0479,21.820537 6.04408,38.61245 -0.005,20.68761 -1.19314,46.84634 -2.02457,44.5631 -0.38525,-1.05797 -1.03017,-16.08458 -1.43317,-33.39247 C 481.71732,88.744709 480.88531,83.283224 474.47216,71.07898 469.50389,61.624333 455.11326,47.569497 445.41342,42.69829 429.88157,34.898285 445.50592,35.5 258.5,35.5 100.38905,35.5 91.16081,35.596294 85.127585,37.309099 62.218997,43.812741 43.066597,62.315923 37.05607,83.751113 35.15251,90.539731 34.76524,95.527512 33.931,124 c -1.017351,34.72199 -1.18493,37.15349 -2.2399,32.5 z m 461.12804,-46 C 492.34163,94.69886 491.75788,88.715484 490.03862,82 487.25135,71.112832 479.43299,55.182876 473.10616,47.5 463.40298,35.717136 447.95143,26.272017 431,21.761647 L 422.5,19.5 256,19.5 89.5,19.5 81,21.761647 C 65.332089,25.930505 50.453683,34.449809 40.7974,44.781464 33.183544,52.927842 30.037524,58.374813 22.188862,77 19.929303,82.362021 21.067189,75.866681 23.542545,69.272829 32.056453,46.593487 50.231366,29.273692 73.224654,21.928232 88.820592,16.945937 86.815524,17 256,17 c 136.21613,0 159.3182,0.208655 167.41838,1.512103 16.00027,2.574699 26.4307,6.687476 38.08162,15.0158 C 485.52462,50.7012 496.64253,78.829164 494.29571,116.5 l -0.87217,14 -0.6044,-20 z M 18.078947,96.583333 c -0.04342,-1.054166 0.192928,-1.644791 0.52522,-1.3125 0.332291,0.332292 0.367818,1.194792 0.07895,1.916667 -0.319226,0.797733 -0.556183,0.560776 -0.604167,-0.604167 z M 19.030626,85 c 0,-1.375 0.436218,-3.175 0.969374,-4 0.767333,-1.187363 0.969374,-0.978938 0.969374,1 0,1.375 -0.436218,3.175 -0.969374,4 -0.767333,1.187363 -0.969374,0.978938 -0.969374,-1 z"
         id="path3095"
         style="fill:#6d706b"
         inkscape:connector-curvature="0" />
      <path
         d="M 89.5,467.39231 C 78.978994,465.22103 66.922166,458.92217 59.959373,451.95937 53.453419,445.45342 46.973465,433.35637 45.09009,424.20078 44.3294,420.50286 44,369.57996 44,255.68068 44,93.671692 44.015375,92.404317 46.070814,84.987016 49.04482,74.254959 53.272389,67.030573 60.871837,59.693925 68.119941,52.69647 76.078166,48.159065 86.079964,45.321439 92.171399,43.593228 100.84293,43.5 255.5,43.5 c 156.95063,0 163.25979,0.07044 170,1.897871 10.37668,2.81337 18.1608,7.110186 25.29984,13.965444 7.70332,7.397107 12.53097,15.700238 15.20302,26.147857 C 467.95897,93.159513 468,96.671028 468,256.44986 c 0,180.32122 0.4404,167.93942 -6.47748,182.11362 -7.04154,14.4276 -22.13252,25.40651 -39.73036,28.90443 -11.24833,2.23583 -321.43404,2.16526 -332.29216,-0.0756 z M 423.54545,422.54545 426,420.09091 l 0,-83.88422 c 0,-46.13632 -0.28138,-93.51927 -0.62529,-105.29545 L 424.74942,209.5 398.12471,182.67694 c -14.64359,-14.75268 -27.87423,-27.48295 -29.40142,-28.28949 -2.27725,-1.20266 -8.16109,-1.44435 -32.71074,-1.34366 -16.46371,0.0675 -30.40169,-0.16626 -30.97329,-0.51952 C 304.44961,152.15984 304,148.13302 304,143.21642 l 0,-8.66554 -25.25,-25.46579 C 264.8625,95.078908 251.97562,82.354959 250.1125,80.809651 L 246.72499,78 164.97328,78 C 86.517458,78 83.128181,78.07562 80.905182,79.875696 L 78.588796,81.751391 78.174364,213.1257 C 77.761532,343.99252 77.767777,344.50966 79.791087,347 l 2.031156,2.5 58.338877,0.5 58.33888,0.5 0.5,35.83151 c 0.47449,34.0033 0.59904,35.90389 2.44113,37.25 C 203.08884,424.78559 219.83634,425 312.23658,425 l 108.85433,0 2.45454,-2.45455 z"
         id="path3093"
         style="fill:#5bb325"
         inkscape:connector-curvature="0" />
      <path
         d="M 89.5,467.39231 C 78.978994,465.22103 66.922166,458.92217 59.959373,451.95937 53.453419,445.45342 46.973465,433.35637 45.09009,424.20078 44.3294,420.50286 44,369.57996 44,255.68068 44,93.671692 44.015375,92.404317 46.070814,84.987016 49.04482,74.254959 53.272389,67.030573 60.871837,59.693925 68.119941,52.69647 76.078166,48.159065 86.079964,45.321439 92.171399,43.593228 100.84293,43.5 255.5,43.5 c 156.95063,0 163.25979,0.07044 170,1.897871 10.37668,2.81337 18.1608,7.110186 25.29984,13.965444 7.70332,7.397107 12.53097,15.700238 15.20302,26.147857 C 467.95897,93.159513 468,96.671028 468,256.44986 c 0,180.32122 0.4404,167.93942 -6.47748,182.11362 -7.04154,14.4276 -22.13252,25.40651 -39.73036,28.90443 -11.24833,2.23583 -321.43404,2.16526 -332.29216,-0.0756 z m 333.95126,-44.75266 2.36034,-2.36035 0.38331,-90.38965 c 0.21082,-49.71431 0.0282,-90.81715 -0.4058,-91.33965 C 425.3551,238.0275 425,231.29991 425,223.59981 l 0,-14.00019 -22.75,-22.91407 C 389.7375,174.08281 380.625,164.34211 382,165.03956 c 2.2555,1.14407 19.48733,17.47496 38.74049,36.715 6.01303,6.00893 7.26185,7.81181 7.27316,10.5 0.008,1.78499 0.28748,4.26742 0.62215,5.51652 0.48107,1.79553 0.89699,2.03163 1.98634,1.12755 1.00626,-0.83512 1.37786,-0.8408 1.37786,-0.0211 0,0.78101 4.65397,1.12244 15.3,1.12244 10.32794,0 15.67931,0.37931 16.46722,1.16722 0.88962,0.88962 1.34297,0.71125 1.90623,-0.75 0.40645,-1.05447 0.7587,-30.49222 0.78278,-65.41722 0.0406,-58.84848 -0.0907,-63.935684 -1.79164,-69.44772 C 458.63644,66.017856 446.15534,53.533879 426.5,47.378879 420.7309,45.572304 414.16959,45.5 256,45.5 97.830411,45.5 91.269104,45.572304 85.5,47.378879 65.844658,53.533879 53.363564,66.017856 47.335414,85.55228 45.634726,91.063416 45.502792,96.161132 45.538042,155 c 0.02092,34.925 0.373176,64.36275 0.782783,65.41722 0.567622,1.46125 1.022334,1.63962 1.911958,0.75 C 48.995015,220.40498 53.638769,220 61.616667,220 c 8.863888,0 12.341596,-0.34305 12.671876,-1.25 1.823011,-5.00596 3.696554,39.43911 3.704893,87.88922 0.0062,36.05235 0.111135,38.26839 1.917685,40.5 L 81.822243,349.5 140.16112,350 198.5,350.5 199,386.33151 c 0.47449,34.0033 0.59904,35.90389 2.44113,37.25 C 203.08884,424.78559 219.83634,425 312.23658,425 l 108.85433,0 2.36035,-2.36035 z M 305.2,152.8 c -0.74602,-0.74602 -1.2,-4.43156 -1.2,-9.74202 l 0,-8.54202 -22.75,-22.90188 C 268.7375,99.018047 259.85,89.646966 261.5,90.789458 c 1.65,1.142491 12.17728,11.288602 23.39396,22.546922 l 20.39397,20.46967 0.47645,7.84697 c 0.27995,4.61067 1.04633,8.49909 1.85822,9.42813 2.13017,2.43755 -0.11262,4.02883 -2.4226,1.71885 z"
         id="path3091"
         style="fill:#4a8b25"
         inkscape:connector-curvature="0" />
      <path
         d="m 89.5,467.39231 c -10.521006,-2.17128 -22.577834,-8.47014 -29.540627,-15.43294 -6.505954,-6.50595 -12.985908,-18.603 -14.869283,-27.75859 -0.675211,-3.28238 -1.042609,-17.93515 -0.965334,-38.5 0.07428,-19.7675 0.434379,-31.07916 0.890001,-27.95712 1.270497,8.70578 1.984908,10.86977 3.038638,9.20419 0.664744,-1.05073 0.920179,-0.55644 0.931292,1.80215 L 49,372 l 72,0 72,0 0,-3.94098 c 0,-3.71392 1.27265,-6.04491 2.34927,-4.30291 0.2681,0.4338 0.81354,13.42987 1.21209,28.88016 0.63995,24.80856 0.93514,28.37027 2.52596,30.47757 l 1.80133,2.38616 109.80567,-0.37343 c 85.21898,-0.28981 110.49736,-0.65518 112.89475,-1.63173 l 3.08907,-1.2583 0.65727,-14.36827 c 0.3615,-7.90255 0.66506,-20.21827 0.67459,-27.36827 0.0184,-13.80981 0.64481,-18.65136 2.11342,-16.33453 0.46528,0.73399 0.85285,2.80818 0.86127,4.6093 l 0.0153,3.27477 16.25,-0.27477 16.25,-0.27477 -0.29463,-3 c -0.20035,-2.03996 -0.005,-2.57315 0.61084,-1.66615 1.19418,1.75915 2.14587,-0.60216 2.28347,-5.66564 C 466.1545,359.1507 466.55965,356.375 467,355 c 0.44035,-1.375 0.8455,12.59296 0.90032,31.0399 0.11075,37.26444 -0.20682,39.87972 -6.3778,52.52358 -7.04154,14.4276 -22.13252,25.40651 -39.73036,28.90443 -11.24833,2.23583 -321.43404,2.16526 -332.29216,-0.0756 z M 425.36523,225.5 c -0.003,-5.5 0.16319,-7.87758 0.36844,-5.28352 0.20525,2.59406 0.20738,7.09406 0.005,10 C 425.53576,233.12242 425.36783,231 425.36523,225.5 z M 97.75,43.337719 c 0.6875,-0.277412 1.8125,-0.277412 2.5,0 0.6875,0.277413 0.125,0.504386 -1.25,0.504386 -1.375,0 -1.9375,-0.226973 -1.25,-0.504386 z m 314,0 c 0.6875,-0.277412 1.8125,-0.277412 2.5,0 0.6875,0.277413 0.125,0.504386 -1.25,0.504386 -1.375,0 -1.9375,-0.226973 -1.25,-0.504386 z"
         id="path3089"
         style="fill:#417a23"
         inkscape:connector-curvature="0" />
    </g>
  </g>
</svg>
