<svg clip-rule="evenodd" fill-rule="evenodd" stroke-linejoin="round" stroke-miterlimit="2" viewBox="0 0 33 33" xmlns="http://www.w3.org/2000/svg"><g fill="#65b1dd"><path d="m16.712 1.547c-.134-.063-.29-.063-.424 0l-16 7.5c-.176.083-.288.259-.288.453s.112.37.288.453l16 7.5c.134.063.29.063.424 0l16-7.5c.176-.083.288-.259.288-.453s-.112-.37-.288-.453z"/><path d="m16.5 28.198 2.288-1.073c.155-.072.336-.061.48.031.145.092.232.251.232.422v3c0 .194-.112.371-.288.453l-2.5 1.172c-.134.063-.29.063-.424 0l-16-7.5c-.176-.083-.288-.259-.288-.453v-3c0-.171.087-.33.232-.422.144-.092.325-.103.48-.031z"/><path d="m16.5 20.948 2.293-1.075c.162-.076.352-.06.498.043.147.102.228.274.212.452-.002.027-.003.055-.003.082v2.878c0 .194-.112.371-.288.453l-2.5 1.172c-.134.063-.29.063-.424 0l-16-7.5c-.176-.083-.288-.259-.288-.453v-3c0-.171.087-.33.232-.422.144-.092.325-.103.48-.031zm5.121-2.401c-.212.1-.327.333-.276.562.051.228.254.391.488.391h6.4c.074 0 .146-.016.213-.047l4.266-2c.176-.083.288-.259.288-.453v-3c0-.171-.087-.33-.232-.422-.144-.092-.325-.103-.48-.031z"/><path d="m21 10.12h-6.78l2.74-2.82c-2.73-2.7-7.15-2.8-9.88-.1-2.73 2.71-2.73 7.08 0 9.8 2.73 2.7 7.15 2.7 9.88 0 1.36-1.35 2.04-2.92 2.04-4.9h2c0 1.98-.88 4.55-2.64 6.29-3.51 3.48-9.21 3.48-12.72 0-3.5-3.47-3.53-9.11-.02-12.58s9.14-3.47 12.65 0l2.73-2.81zm-8.5-2.12v4.25l3.5 2.08-.72 1.21-4.28-2.54v-5z" fill-rule="nonzero" transform="matrix(.666644 0 0 .666644 18.9993 19.0005)"/></g></svg>