<svg clip-rule="evenodd" fill-rule="evenodd" stroke-linejoin="round" stroke-miterlimit="2" viewBox="0 0 14 15" xmlns="http://www.w3.org/2000/svg"><g fill="#fff"><path d="m2.5 7h4c.276 0 .5-.224.5-.5s-.224-.5-.5-.5h-4c-.276 0-.5.224-.5.5s.224.5.5.5z"/><path d="m2.5 9h2c.276 0 .5-.224.5-.5s-.224-.5-.5-.5h-2c-.276 0-.5.224-.5.5s.224.5.5.5z"/><path d="m2.5 11h2c.276 0 .5-.224.5-.5s-.224-.5-.5-.5h-2c-.276 0-.5.224-.5.5s.224.5.5.5z"/><path d="m2.5 13h3c.276 0 .5-.224.5-.5s-.224-.5-.5-.5h-3c-.276 0-.5.224-.5.5s.224.5.5.5z"/><path d="m0 14.5v-10.652c0-.356.141-.696.392-.947.016-.016.031-.031.047-.048.547-.546 1.288-.853 2.061-.853.508 0 .995-.202 1.353-.561l.94-.939c.32-.32.754-.5 1.207-.5.453 0 .887.18 1.207.5l.646.646.294.293c.358.359.845.561 1.353.561.773 0 1.514.307 2.061.853.016.017.031.032.047.048.251.251.392.591.392.947v3.652c0 .276-.224.5-.5.5s-.5-.224-.5-.5v-2.5h-10v9h10v-1.5c0-.276.224-.5.5-.5s.5.224.5.5v2c0 .276-.224.5-.5.5h-11c-.276 0-.5-.224-.5-.5zm11-10.5v-.152c0-.09-.036-.177-.099-.24-.016-.016-.031-.031-.048-.047-.358-.359-.845-.561-1.353-.561-.773 0-1.514-.307-2.061-.853-.164-.165-.292-.292-.29-.29l-.649-.65c-.133-.133-.312-.207-.5-.207-.188 0-.367.074-.5.207l-.939.94c-.547.546-1.288.853-2.061.853-.508 0-.995.202-1.353.561-.017.016-.032.031-.048.047-.063.063-.099.15-.099.24v.152z"/><path d="m9.5 11v1.5c0 .194-.112.371-.288.453s-.383.055-.532-.069l-3-2.5c-.114-.095-.18-.236-.18-.384s.066-.289.18-.384l3-2.5c.149-.124.356-.151.532-.069s.288.259.288.453v1.5h4.5v2z"/></g></svg>