<svg clip-rule="evenodd" fill-rule="evenodd" stroke-linejoin="round" stroke-miterlimit="2" viewBox="0 0 224 128" xmlns="http://www.w3.org/2000/svg" xmlns:xlink="http://www.w3.org/1999/xlink"><linearGradient id="a" gradientTransform="matrix(-28 28 -28 -28 30 2)" gradientUnits="userSpaceOnUse" x1="0" x2="1" y1="0" y2="0"><stop offset="0" stop-color="#fff"/><stop offset="1" stop-color="#ececed"/></linearGradient><linearGradient id="b" gradientTransform="matrix(-11.2 22.4 -22.4 -11.2 21.6 2)" gradientUnits="userSpaceOnUse" x1="0" x2="1" y1="0" y2="0"><stop offset="0" stop-color="#fff"/><stop offset="1" stop-color="#d3d3d4"/></linearGradient><linearGradient id="c" gradientTransform="matrix(0 -18 18 0 46 28)" gradientUnits="userSpaceOnUse" x1="0" x2="1" y1="0" y2="0"><stop offset="0" stop-color="#348e2d"/><stop offset=".5" stop-color="#39b006"/><stop offset="1" stop-color="#b2e891"/></linearGradient><radialGradient id="d" cx="0" cy="0" gradientTransform="matrix(0 16.9765 -48 0 80 9)" gradientUnits="userSpaceOnUse" r="1"><stop offset="0" stop-color="#cff6af"/><stop offset=".6" stop-color="#39b006"/><stop offset="1" stop-color="#348e2d"/></radialGradient><linearGradient id="e" gradientTransform="matrix(16 -28 28 16 104 30)" gradientUnits="userSpaceOnUse" x1="0" x2="1" y1="0" y2="0"><stop offset="0" stop-color="#b20a0a"/><stop offset=".5" stop-color="#f82626"/><stop offset="1" stop-color="#ffdede"/></linearGradient><radialGradient id="f" cx="0" cy="0" gradientTransform="matrix(0 17.0276 -48 0 80 8.97243)" gradientUnits="userSpaceOnUse" r="1"><stop offset="0" stop-color="#ffaba9"/><stop offset=".6" stop-color="#d22323"/><stop offset="1" stop-color="#901e1e"/></radialGradient><linearGradient id="g" gradientTransform="matrix(-10 -25 25 -10 216 28)" gradientUnits="userSpaceOnUse" x1="0" x2="1" y1="0" y2="0"><stop offset="0" stop-color="#dfe8f1"/><stop offset="1" stop-color="#dfe8f1"/></linearGradient><radialGradient id="h" cx="0" cy="0" gradientTransform="matrix(6.18347 -2.22605 6 6 207 9.8)" gradientUnits="userSpaceOnUse" r="1"><stop offset="0" stop-color="#c9d8e8"/><stop offset="1" stop-color="#b9cce1"/></radialGradient><linearGradient id="i" gradientTransform="matrix(0 6 -28 0 209 8)" gradientUnits="userSpaceOnUse" x1="0" x2="1" y1="0" y2="0"><stop offset="0" stop-color="#95b2d2"/><stop offset="1" stop-color="#769bc4"/></linearGradient><linearGradient id="j" gradientTransform="matrix(0 -22 22 0 2 60)" gradientUnits="userSpaceOnUse" x1="0" x2="1" y1="0" y2="0"><stop offset="0" stop-color="#db913e"/><stop offset=".5" stop-color="#dba73b"/><stop offset="1" stop-color="#e4c96f"/></linearGradient><linearGradient id="k" gradientTransform="matrix(-24 -8 2.66667 -8 58 48)" gradientUnits="userSpaceOnUse" x1="0" x2="1" y1="0" y2="0"><stop offset="0" stop-color="#eecf72"/><stop offset="1" stop-color="#f8e48e"/></linearGradient><linearGradient id="l" gradientTransform="matrix(24 -11 11 24 5 54)" gradientUnits="userSpaceOnUse" x1="0" x2="1" y1="0" y2="0"><stop offset="0" stop-color="#f0cb26"/><stop offset=".5" stop-color="#f5db65"/><stop offset="1" stop-color="#fbefb9"/></linearGradient><linearGradient id="m" gradientTransform="matrix(-17 -24 24 -17 64 64)" gradientUnits="userSpaceOnUse" x1="0" x2="1" y1="0" y2="0"><stop offset="0" stop-color="#5b5b5b"/><stop offset="1" stop-color="#d5d5d5"/></linearGradient><linearGradient id="n" gradientTransform="matrix(-23 -9 9 -23 62 79)" gradientUnits="userSpaceOnUse" x1="0" x2="1" y1="0" y2="0"><stop offset="0" stop-color="#e0e0e0"/><stop offset="1" stop-color="#f3f3f3"/></linearGradient><linearGradient id="o" gradientTransform="matrix(-12 -6.18182 7.94805 -9.33333 53.25 55.2727)" gradientUnits="userSpaceOnUse" x1="0" x2="1" y1="0" y2="0"><stop offset="0" stop-color="#c8c8c8"/><stop offset="1" stop-color="#e8e8e8"/></linearGradient><linearGradient id="p" gradientTransform="matrix(-12 -6.18182 6.18182 -12 53.25 55.2727)" gradientUnits="userSpaceOnUse" x1="0" x2="1" y1="0" y2="0"><stop offset="0" stop-color="#a7a7a7"/><stop offset="1" stop-color="#c8c8c8"/></linearGradient><linearGradient id="q" gradientTransform="matrix(-12 -6.18182 4.63636 -16 53.25 55.2727)" gradientUnits="userSpaceOnUse" x1="0" x2="1" y1="0" y2="0"><stop offset="0" stop-color="#919191"/><stop offset="1" stop-color="#8b8b8b"/></linearGradient><radialGradient id="r" cx="0" cy="0" gradientTransform="matrix(14.5714 2.5 -.222289 4.24368 49 73.6667)" gradientUnits="userSpaceOnUse" r="1"><stop offset="0" stop-color="#e8e8e8"/><stop offset="1" stop-color="#c8c8c8"/></radialGradient><linearGradient id="s" gradientTransform="matrix(0 -30 30 0 73 62)" gradientUnits="userSpaceOnUse" x1="0" x2="1" y1="0" y2="0"><stop offset="0" stop-color="#bfbfbf"/><stop offset="1" stop-color="#bebebe"/></linearGradient><linearGradient id="t" gradientTransform="matrix(-5 5 -5 -5 88 36)" gradientUnits="userSpaceOnUse" x1="0" x2="1" y1="0" y2="0"><stop offset="0" stop-color="#bebebe"/><stop offset="1" stop-color="#d3d3d4"/></linearGradient><linearGradient id="u"><stop offset="0" stop-color="#616161"/><stop offset="1" stop-color="#9e9e9e"/></linearGradient><linearGradient id="v" gradientTransform="matrix(8 -10.9481 10.9481 8 106 62.4481)" gradientUnits="userSpaceOnUse" x1="0" x2="1" xlink:href="#u" y1="0" y2="0"/><linearGradient id="w" gradientTransform="matrix(8 -10.9481 11.7302 7.46667 106 62.4481)" gradientUnits="userSpaceOnUse" x1="0" x2="1" xlink:href="#u" y1="0" y2="0"/><linearGradient id="x" gradientTransform="matrix(-10.5 -9.8 9.8 -10.5 116 61.2)" gradientUnits="userSpaceOnUse" x1="0" x2="1" y1="0" y2="0"><stop offset="0" stop-color="#979797"/><stop offset="1" stop-color="#e8e8e8"/></linearGradient><radialGradient id="y" cx="0" cy="0" gradientTransform="matrix(0 6 -14.5058 0 116 54)" gradientUnits="userSpaceOnUse" r="1"><stop offset="0" stop-color="#929292"/><stop offset="1" stop-color="#454545"/></radialGradient><radialGradient id="z" cx="0" cy="0" gradientTransform="matrix(0 6 -7.5 0 116 57)" gradientUnits="userSpaceOnUse" r="1"><stop offset="0" stop-color="#cecece"/><stop offset="1" stop-color="#adadad"/></radialGradient><linearGradient id="A" gradientTransform="matrix(0 -25 25 0 149 64)" gradientUnits="userSpaceOnUse" x1="0" x2="1" y1="0" y2="0"><stop offset="0" stop-color="#c48734"/><stop offset="1" stop-color="#e5cb7c"/></linearGradient><linearGradient id="B" gradientTransform="matrix(0 13 -13 0 149 49)" gradientUnits="userSpaceOnUse" x1="0" x2="1" y1="0" y2="0"><stop offset="0" stop-color="#f8ebb4"/><stop offset="1" stop-color="#f5db5b"/></linearGradient><linearGradient id="C" gradientTransform="matrix(-22 0 0 -22 187 72.7293)" gradientUnits="userSpaceOnUse" x1="0" x2="1" y1="0" y2="0"><stop offset="0" stop-color="#ffca01"/><stop offset=".68" stop-color="#fdf7df"/><stop offset="1" stop-color="#f2d13e"/></linearGradient><radialGradient id="D" cx="0" cy="0" gradientTransform="matrix(4.94462 3.23383 -6 8.30604 173 72.5)" gradientUnits="userSpaceOnUse" r="1"><stop offset="0" stop-color="#fdf6d9"/><stop offset="1" stop-color="#f9e187"/></radialGradient><linearGradient id="E" gradientTransform="matrix(0 26.4586 -26.4586 0 176 67)" gradientUnits="userSpaceOnUse" x1="0" x2="1" y1="0" y2="0"><stop offset="0" stop-color="#e4c76c"/><stop offset="1" stop-color="#c58835"/></linearGradient><linearGradient id="F"><stop offset="0" stop-color="#858687"/><stop offset="1" stop-color="#d7d7d7"/></linearGradient><linearGradient id="G" gradientTransform="matrix(-20 -20 35 -11.4286 186 122)" gradientUnits="userSpaceOnUse" x1="0" x2="1" xlink:href="#F" y1="0" y2="0"/><linearGradient id="H"><stop offset="0" stop-color="#d6d6d8"/><stop offset="1" stop-color="#efeff1"/></linearGradient><linearGradient id="I" gradientTransform="matrix(-20 -20 40 -10 186 122)" gradientUnits="userSpaceOnUse" x1="0" x2="1" xlink:href="#H" y1="0" y2="0"/><linearGradient id="J" gradientTransform="matrix(-20 -20 50 -8 186 122)" gradientUnits="userSpaceOnUse" x1="0" x2="1" y1="0" y2="0"><stop offset="0" stop-color="#aeafb7"/><stop offset="1" stop-color="#c5c6cb"/></linearGradient><radialGradient id="K" cx="0" cy="0" gradientTransform="matrix(3 2 -2 3 25 111)" gradientUnits="userSpaceOnUse" r="1"><stop offset="0" stop-color="#a4c8a0"/><stop offset="1" stop-color="#379437"/></radialGradient><linearGradient id="L" gradientTransform="matrix(-8.45957 -8 8 -8.45957 16.4596 128)" gradientUnits="userSpaceOnUse" x1="0" x2="1" xlink:href="#F" y1="0" y2="0"/><linearGradient id="M" gradientTransform="matrix(-4 -3 3 -4 14 125)" gradientUnits="userSpaceOnUse" x1="0" x2="1" xlink:href="#H" y1="0" y2="0"/><linearGradient id="N" gradientTransform="matrix(-20 -20 16.6667 -24 186 122)" gradientUnits="userSpaceOnUse" x1="0" x2="1" xlink:href="#F" y1="0" y2="0"/><linearGradient id="O" gradientTransform="matrix(-20 -20 16 -25 186 122)" gradientUnits="userSpaceOnUse" x1="0" x2="1" xlink:href="#H" y1="0" y2="0"/><linearGradient id="P" gradientTransform="matrix(-20 -20 15 -26.6667 186 122)" gradientUnits="userSpaceOnUse" x1="0" x2="1" y1="0" y2="0"><stop offset="0" stop-color="#4d72a7"/><stop offset="1" stop-color="#567bb1"/></linearGradient><linearGradient id="Q"><stop offset="0" stop-color="#5a85d4"/><stop offset="1" stop-color="#8cb3e6"/></linearGradient><linearGradient id="R" gradientTransform="matrix(-20 -20 13.3333 -30 186 122)" gradientUnits="userSpaceOnUse" x1="0" x2="1" xlink:href="#Q" y1="0" y2="0"/><radialGradient id="S" cx="0" cy="0" gradientTransform="matrix(-16 -7 4.84311 -11.07 52 120)" gradientUnits="userSpaceOnUse" r="1"><stop offset="0" stop-color="#438dff"/><stop offset="1" stop-color="#a4e4ff"/></radialGradient><radialGradient id="T" cx="0" cy="0" gradientTransform="matrix(16 0 0 9 48 111)" gradientUnits="userSpaceOnUse" r="1"><stop offset="0" stop-color="#f6d0a8"/><stop offset="1" stop-color="#e4b78a"/></radialGradient><linearGradient id="U" gradientTransform="matrix(-9 -6 6 -9 53 106)" gradientUnits="userSpaceOnUse" x1="0" x2="1" y1="0" y2="0"><stop offset="0" stop-color="#693f16"/><stop offset="1" stop-color="#9b5812"/></linearGradient><linearGradient id="V" gradientTransform="matrix(-20.7659 .105053 -.275763 -7.91081 117.745 116.011)" gradientUnits="userSpaceOnUse" x1="0" x2="1" y1="0" y2="0"><stop offset="0" stop-color="#da9435"/><stop offset="1" stop-color="#c07f04"/></linearGradient><linearGradient id="W" gradientTransform="matrix(-4.59619 -.37087 .357455 -4.76869 109.975 118.385)" gradientUnits="userSpaceOnUse" x1="0" x2="1" y1="0" y2="0"><stop offset="0" stop-color="#c88704"/><stop offset="1" stop-color="#ffe069"/></linearGradient><linearGradient id="X" gradientTransform="matrix(-10.2878 -2.44016 2.44016 -10.2878 112.657 102.301)" gradientUnits="userSpaceOnUse" x1="0" x2="1" y1="0" y2="0"><stop offset="0" stop-color="#ffac00"/><stop offset=".5" stop-color="#ffc40e"/><stop offset=".75" stop-color="#ffee9d"/><stop offset="1" stop-color="#ffc40e"/></linearGradient><linearGradient id="Y" gradientTransform="matrix(-20 -20 20 -20 186 122)" gradientUnits="userSpaceOnUse" x1="0" x2="1" xlink:href="#Q" y1="0" y2="0"/><linearGradient id="Z" gradientTransform="matrix(0 16 -16 0 142 78)" gradientUnits="userSpaceOnUse" x1="0" x2="1" y1="0" y2="0"><stop offset="0" stop-color="#fff"/><stop offset="1" stop-color="#eaeef2"/></linearGradient><linearGradient id="aa" gradientTransform="matrix(0 16 -16 0 142 78)" gradientUnits="userSpaceOnUse" x1="0" x2="1" y1="0" y2="0"><stop offset="0" stop-color="#ccdbe9"/><stop offset="1" stop-color="#9ebedc"/></linearGradient><linearGradient id="ab" gradientUnits="userSpaceOnUse" x1="149" x2="151" y1="91" y2="91"><stop offset="0" stop-color="#cc9e4f"/><stop offset="1" stop-color="#a17831"/></linearGradient><linearGradient id="ac" gradientTransform="matrix(12 0 0 72 144 90)" gradientUnits="userSpaceOnUse" x1="0" x2="1" y1="0" y2="0"><stop offset="0" stop-color="#70a247"/><stop offset="1" stop-color="#55862c"/></linearGradient><radialGradient id="ad" cx="0" cy="0" gradientTransform="matrix(5 4 -3.74817 4.68521 149 82.5633)" gradientUnits="userSpaceOnUse" r="1"><stop offset="0" stop-color="#a8cf5a"/><stop offset="1" stop-color="#4e974e"/></radialGradient><linearGradient id="ae" gradientTransform="matrix(-14.4 -14.4 14.4 -14.4 183.2 119.2)" gradientUnits="userSpaceOnUse" x1="0" x2="1" y1="0" y2="0"><stop offset="0" stop-color="#88a8e1"/><stop offset="1" stop-color="#a0bfea"/></linearGradient><clipPath id="af"><circle clip-rule="evenodd" cx="48" cy="106" r="8"/></clipPath><clipPath id="ag"><circle clip-rule="evenodd" cx="48" cy="106" r="8"/></clipPath><path d="m0 0h32v32h-32z" fill="#fff" transform="scale(7 4)"/><path d="m2 2h28v28h-28z" fill="#a6a6a6"/><path d="m2 2h28v28h-28z" fill="url(#a)" transform="matrix(.857143 0 0 .857143 2.28571 2.28571)"/><path d="m2 2h28v28h-28z" fill="url(#b)" transform="matrix(.714286 0 0 .714286 4.57143 4.57143)"/><path d="m34 2h28v28h-28z" fill="#a6a6a6"/><path d="m2 2h28v28h-28z" fill="url(#a)" transform="matrix(.857143 0 0 .857143 34.28571 2.28571)"/><path d="m2 2h28v28h-28z" fill="url(#b)" transform="matrix(.714286 0 0 .714286 36.57143 4.57143)"/><path d="m32 15 14 13 18-17-6-6-12 12-8-8z" fill="url(#c)" transform="translate(0 -1)"/><path d="m62.971 8.971 1.029 1.029-18 17-14-13 1.037-1.037 12.963 12.037z" fill="#2c8825"/><path d="m33.037 14.963-1.037-.963 6-6 8 8 12-12 6 6-1.029.971-4.971-4.971-12 12-8-8z" fill="#fff" fill-opacity=".5"/><path d="m66 2h28v28h-28z" fill="#a6a6a6"/><path d="m2 2h28v28h-28z" fill="url(#a)" transform="matrix(.857143 0 0 .857143 66.28571 2.28571)"/><path d="m90 9.945c0-2.177-1.768-3.945-3.945-3.945h-12.11c-2.177 0-3.945 1.768-3.945 3.945v12.11c0 2.177 1.768 3.945 3.945 3.945h12.11c2.177 0 3.945-1.768 3.945-3.945z" fill="url(#d)"/><path d="m70 11.945v-2c0-2.177 1.768-3.945 3.945-3.945h12.11c2.177 0 3.945 1.768 3.945 3.945v2c0-2.177-1.768-3.945-3.945-3.945h-12.11c-2.177 0-3.945 1.768-3.945 3.945z" fill="#fff" fill-opacity=".25"/><path d="m70 20.055c0 2.177 1.768 3.945 3.945 3.945h12.11c2.177 0 3.945-1.768 3.945-3.945v2c0 2.177-1.768 3.945-3.945 3.945h-12.11c-2.177 0-3.945-1.768-3.945-3.945z" fill="#2c8825"/><path d="m98 2h28v28h-28z" fill="#a6a6a6"/><path d="m2 2h28v28h-28z" fill="url(#a)" transform="matrix(.857143 0 0 .857143 98.28571 2.28571)"/><path d="m2 2h28v28h-28z" fill="url(#b)" transform="matrix(.714286 0 0 .714286 100.57143 4.57143)"/><g><path d="m112 10 8-8 6 6-8 8 8 8-6 6-8-8-8 8-6-6 8-8-8-8 6-6z" fill="url(#e)"/><path d="m107 17-8 8-1-1 8-8zm19 7-1 1-8-8 1-1zm-27-15-1-1 6-6 8 8 8-8 6 6-1 1-5-5-8 8-8-8z" fill="#fff" fill-opacity=".5"/><path d="m99 23 5 5 8-8 8 8 5-5 1 1-6 6-8-8-8 8-6-6zm9-7-1 1-9-9 1-1zm18-8-9 9-1-1 9-9z" fill="#b20a0a"/></g><g transform="translate(64)"><path d="m66 2h28v28h-28z" fill="#a6a6a6"/><path d="m2 2h28v28h-28z" fill="url(#a)" transform="matrix(.857143 0 0 .857143 66.28571 2.28571)"/><path d="m90 9.945c0-2.177-1.768-3.945-3.945-3.945h-12.11c-2.177 0-3.945 1.768-3.945 3.945v12.11c0 2.177 1.768 3.945 3.945 3.945h12.11c2.177 0 3.945-1.768 3.945-3.945z" fill="url(#f)"/><path d="m70 11.945v-2c0-2.177 1.768-3.945 3.945-3.945h12.11c2.177 0 3.945 1.768 3.945 3.945v2c0-2.177-1.768-3.945-3.945-3.945h-12.11c-2.177 0-3.945 1.768-3.945 3.945z" fill="#fff" fill-opacity=".25"/><path d="m70 20.055c0 2.177 1.768 3.945 3.945 3.945h12.11c2.177 0 3.945-1.768 3.945-3.945v2c0 2.177-1.768 3.945-3.945 3.945h-12.11c-2.177 0-3.945-1.768-3.945-3.945z" fill="#b20a0a"/></g><path d="m165.896 6v20l13-9.991z" fill="#777" transform="translate(5.10355 -.023505)"/><path d="m198 26.586c0 .905.36 1.774 1 2.414.64.64 1.509 1 2.414 1h15.172c.905 0 1.774-.36 2.414-1 .64-.64 1-1.509 1-2.414 0-3.549 0-12.863 0-17.244 0-1.484-.659-2.891-1.799-3.841-.901-.751-1.974-1.645-2.81-2.342-.899-.749-2.032-1.159-3.201-1.159-1.808 0-4.572 0-6.38 0-1.169 0-2.302.41-3.201 1.159-.836.697-1.909 1.591-2.81 2.342-1.14.95-1.799 2.357-1.799 3.841z" fill="#3a5f87" transform="translate(-1)"/><path d="m200 26.293c0 .453.18.887.5 1.207.32.32.754.5 1.207.5h14.586c.453 0 .887-.18 1.207-.5.32-.32.5-.754.5-1.207 0-2.576 0-11.541 0-15.89 0-1.519-.69-2.955-1.877-3.904-.582-.466-1.212-.971-1.753-1.403-.887-.71-1.989-1.096-3.124-1.096-1.333 0-3.159 0-4.492 0-1.135 0-2.237.386-3.124 1.096-.541.432-1.171.937-1.753 1.403-1.187.949-1.877 2.385-1.877 3.904z" fill="url(#g)" transform="translate(-1)"/><path d="m216 8.6c0-.331-.269-.6-.6-.6h-12.8c-.331 0-.6.269-.6.6v4.8c0 .331.269.6.6.6h12.8c.331 0 .6-.269.6-.6z" fill="#8baacd" transform="translate(-1)"/><path d="m216 8.6c0-.331-.448-.6-1-.6h-12c-.552 0-1 .269-1 .6v4.8c0 .331.448.6 1 .6h12c.552 0 1-.269 1-.6z" fill="url(#h)" transform="matrix(1 0 0 1.66667 -1 2.66667)"/><path d="m216 11c0-1.656-.627-3-1.4-3h-11.2c-.773 0-1.4 1.344-1.4 3s.627 3 1.4 3h11.2c.773 0 1.4-1.344 1.4-3z" fill="#b9cce1" transform="matrix(.714286 0 0 .333333 58.7143 7.33333)"/><path d="m216 11c0-1.656-3.137-3-7-3s-7 1.344-7 3 3.137 3 7 3 7-1.344 7-3z" fill="#8baacd" transform="matrix(.285714 0 0 .666667 153.286 10.6667)"/><path d="m216 9.5c0-.828-3.137-1.5-7-1.5s-7 .672-7 1.5v3c0 .828 3.137 1.5 7 1.5s7-.672 7-1.5z" fill="url(#i)" transform="matrix(.142857 0 0 .666667 176.143 16.6667)"/><path d="m216 9.5c0-.828-3.137-1.5-7-1.5s-7 .672-7 1.5v3c0 .828 3.137 1.5 7 1.5s7-.672 7-1.5z" fill="url(#i)" transform="matrix(.142857 0 0 .666667 180.143 16.6667)"/><path d="m216 8.6c0-.331-.627-.6-1.4-.6h-11.2c-.773 0-1.4.269-1.4.6v4.8c0 .331.627.6 1.4.6h11.2c.773 0 1.4-.269 1.4-.6z" fill="#8baacd" transform="matrix(.285714 0 0 .666667 143.286 10.6667)"/><path d="m216 11c0-1.656-3.137-3-7-3s-7 1.344-7 3 3.137 3 7 3 7-1.344 7-3z" fill="#4f7fb4" transform="matrix(.142857 0 0 .333333 174.143 13.3333)"/><path d="m216 11c0-1.656-3.137-3-7-3s-7 1.344-7 3 3.137 3 7 3 7-1.344 7-3z" fill="#4f7fb4" transform="matrix(.142857 0 0 .333333 172.143 15.3333)"/><g transform="translate(-30 -1)"><path d="m2.5 38.5c-.32.32-.5.754-.5 1.207v18.586c0 .453.18.887.5 1.207.32.32.754.5 1.207.5h24.586c.453 0 .887-.18 1.207-.5.32-.32.5-.754.5-1.207 0-2.879 0-13.707 0-16.586 0-.453-.18-.887-.5-1.207-.32-.32-.754-.5-1.207-.5-1.757 0-6.328 0-8.33 0-.636 0-1.266-.121-1.857-.358-.908-.363-2.304-.921-3.212-1.284-.591-.237-1.221-.358-1.857-.358-2.175 0-7.424 0-9.33 0-.453 0-.887.18-1.207.5z" fill="url(#j)" transform="translate(30)"/><path d="m34 51v-9c0-1.105.895-2 2-2h6.037c.636 0 1.266.121 1.857.358.908.363 2.304.921 3.212 1.284.591.237 1.221.358 1.857.358h7.33c.453 0 .887.18 1.207.5.32.32.5.754.5 1.207v5.293h-10.037c-.636 0-1.266.121-1.857.358-.908.363-2.304.921-3.212 1.284-.591.237-1.221.358-1.857.358-2.127 0-7.037 0-7.037 0z" fill="url(#k)"/><path d="m34 43.998v-2c0-.53.211-1.038.585-1.413.375-.374.883-.585 1.413-.585h6.039c.636 0 1.266.121 1.857.358.908.363 2.304.921 3.212 1.284.591.237 1.221.358 1.857.358h7.33c.453 0 .887.18 1.207.5.32.32.5.754.5 1.207v5.293-3.293c0-.453-.18-.887-.5-1.207-.32-.32-.754-.5-1.207-.5-1.601 0-5.509 0-7.33 0-.636 0-1.266-.121-1.857-.358-.908-.363-2.304-.921-3.212-1.284-.591-.237-1.221-.358-1.857-.358-1.434 0-4.162 0-6.039 0-.53 0-1.038.211-1.413.585-.374.375-.585.883-.585 1.413z" fill="#fff" fill-opacity=".66"/><path d="m4 51v-3.293c0-.453.18-.887.5-1.207.32-.32.754-.5 1.207-.5h5.33c.636 0 1.266-.121 1.857-.358.908-.363 2.304-.921 3.212-1.284.591-.237 1.221-.358 1.857-.358h8.33c.453 0 .887.18 1.207.5.32.32.5.754.5 1.207v5.293z" fill="#db923e" fill-opacity=".33" transform="translate(30)"/><path d="m5.5 41.5c-.32.32-.5.754-.5 1.207v9.586c0 .453.18.887.5 1.207.32.32.754.5 1.207.5h20.586c.453 0 .887-.18 1.207-.5.32-.32.5-.754.5-1.207 0-1.681 0-5.905 0-7.586 0-.453-.18-.887-.5-1.207-.32-.32-.754-.5-1.207-.5-1.262 0-3.903 0-5.33 0-.636 0-1.266-.121-1.857-.358-.908-.363-2.304-.921-3.212-1.284-.591-.237-1.221-.358-1.857-.358-2.002 0-6.573 0-8.33 0-.453 0-.887.18-1.207.5z" fill="url(#l)" transform="matrix(-1 0 0 1 63 4)"/><path d="m34 50.707v-2c0-.453.18-.887.5-1.207.32-.32.754-.5 1.207-.5h5.33c.636 0 1.266-.121 1.857-.358.908-.363 2.304-.921 3.212-1.284.591-.237 1.221-.358 1.857-.358h8.33c.453 0 .887.18 1.207.5.32.32.5.754.5 1.207v2c0-.453-.18-.887-.5-1.207-.32-.32-.754-.5-1.207-.5-1.757 0-6.328 0-8.33 0-.636 0-1.266.121-1.857.358-.908.363-2.304.921-3.212 1.284-.591.237-1.221.358-1.857.358-1.427 0-4.068 0-5.33 0-.453 0-.887.18-1.207.5-.32.32-.5.754-.5 1.207z" fill="#fff" fill-opacity=".66"/></g><g transform="translate(0 -31)"><path d="m32 56.586c0 .905.36 1.774 1 2.414.64.64 1.509 1 2.414 1h25.172c.905 0 1.774-.36 2.414-1 .64-.64 1-1.509 1-2.414 0-2.276 0-6.734 0-9.072 0-.987-.292-1.952-.84-2.774-.906-1.36-2.299-3.449-2.885-4.328-.183-.274-.392-.529-.625-.762-.057-.057-.12-.12-.186-.186-.937-.937-2.209-1.464-3.535-1.464-3.839 0-12.019 0-15.858 0-1.326 0-2.598.527-3.535 1.464-.066.066-.129.129-.186.186-.233.233-.442.488-.625.762-.586.879-1.979 2.968-2.885 4.328-.548.822-.84 1.787-.84 2.774z" fill="url(#m)" transform="translate(0 30)"/><path d="m34 80v-.929c0-1.326.527-2.598 1.464-3.535l.285-.285c.167-.167.322-.346.464-.535.615-.82 2.372-3.162 2.725-3.633.041-.055.087-.108.135-.156.001-.001.001-.001.001-.001.593-.593 1.397-.926 2.236-.926h13.38c.839 0 1.643.333 2.236.926 0 0 0 0 .001.001.048.048.094.101.135.156.353.471 2.11 2.813 2.725 3.633.142.189.297.368.464.535l.285.285c.937.937 1.464 2.209 1.464 3.535v.929z" fill="url(#n)"/><path d="m60 50c0-1.104-1.152-2-2.571-2h-18.858c-1.419 0-2.571.896-2.571 2v4c0 1.104 1.152 2 2.571 2h18.858c1.419 0 2.571-.896 2.571-2z" fill="url(#o)" transform="matrix(1.16667 0 0 1.5 -8 4)"/><path d="m60 50c0-1.104-.896-2-2-2h-20c-1.104 0-2 .896-2 2v4c0 1.104.896 2 2 2h20c1.104 0 2-.896 2-2z" fill="url(#p)" transform="translate(0 30)"/><path d="m60 50c0-1.104-.672-2-1.5-2h-21c-.828 0-1.5.896-1.5 2v4c0 1.104.672 2 1.5 2h21c.828 0 1.5-.896 1.5-2z" fill="url(#q)" transform="matrix(.666667 0 0 .5 16 56)"/><ellipse cx="49" cy="74.5" fill="url(#r)" rx="6" ry="2.5" transform="matrix(1.5 0 0 1.2 -25.5 -16.4)"/><path d="m41.097 41.5c.556 1.418 3.437 2.5 6.903 2.5s6.347-1.082 6.903-2.5c.064.163.097.33.097.5 0 1.656-3.137 3-7 3s-7-1.344-7-3c0-.17.033-.337.097-.5z" fill-opacity=".05" transform="matrix(1.28571 0 0 1 -13.7143 31)"/></g><g transform="translate(-30 1)"><path d="m68 60.293c0 .453.18.887.5 1.207.32.32.754.5 1.207.5h20.586c.453 0 .887-.18 1.207-.5.32-.32.5-.754.5-1.207 0-3.442 0-18.293 0-18.293l-10-10h-12.293c-.453 0-.887.18-1.207.5-.32.32-.5.754-.5 1.207z" fill="url(#s)" transform="translate(30)"/><path d="m122 42v18.293c0 .453-.18.887-.5 1.207-.32.32-.754.5-1.207.5-3.311 0-17.275 0-20.586 0-.453 0-.887-.18-1.207-.5-.32-.32-.5-.754-.5-1.207v-2c0 .453.18.887.5 1.207.32.32.754.5 1.207.5h20.586c.453 0 .887-.18 1.207-.5.32-.32.5-.754.5-1.207z" fill="#74767b" fill-opacity=".5"/><path d="m70 34v26h20v-19l-7-7z" fill="#fff" transform="translate(30)"/><path d="m82 32v6.586c0 .905.36 1.774 1 2.414.64.64 1.509 1 2.414 1h6.586c0-1.281-.509-2.509-1.414-3.414-1.457-1.457-3.715-3.715-5.172-5.172-.905-.905-2.133-1.414-3.414-1.414z" fill="url(#t)" transform="translate(30)"/><path d="m114 35v3.293c0 .453.18.887.5 1.207.32.32.754.5 1.207.5h3.293z" fill="#fff"/></g><g transform="translate(66 -2)"><path d="m2.5 38.5c-.32.32-.5.754-.5 1.207v18.586c0 .453.18.887.5 1.207.32.32.754.5 1.207.5h24.586c.453 0 .887-.18 1.207-.5.32-.32.5-.754.5-1.207 0-2.879 0-13.707 0-16.586 0-.453-.18-.887-.5-1.207-.32-.32-.754-.5-1.207-.5-1.757 0-6.328 0-8.33 0-.636 0-1.266-.121-1.857-.358-.908-.363-2.304-.921-3.212-1.284-.591-.237-1.221-.358-1.857-.358-2.175 0-7.424 0-9.33 0-.453 0-.887.18-1.207.5z" fill="url(#j)" transform="translate(30)"/><path d="m34 51v-9.002c0-.53.211-1.038.585-1.413.375-.374.883-.585 1.413-.585h6.039c.636 0 1.266.121 1.857.358.908.363 2.304.921 3.212 1.284.591.237 1.221.358 1.857.358h7.33c.453 0 .887.18 1.207.5.32.32.5.754.5 1.207v5.293h-10.037c-.636 0-1.266.121-1.857.358-.908.363-2.304.921-3.212 1.284-.591.237-1.221.358-1.857.358-2.127 0-7.037 0-7.037 0z" fill="url(#k)"/><path d="m34 43.998v-2c0-.53.211-1.038.585-1.413.375-.374.883-.585 1.413-.585h6.039c.636 0 1.266.121 1.857.358.908.363 2.304.921 3.212 1.284.591.237 1.221.358 1.857.358h7.33c.453 0 .887.18 1.207.5.32.32.5.754.5 1.207v5.293-3.293c0-.453-.18-.887-.5-1.207-.32-.32-.754-.5-1.207-.5-1.601 0-5.509 0-7.33 0-.636 0-1.266-.121-1.857-.358-.908-.363-2.304-.921-3.212-1.284-.591-.237-1.221-.358-1.857-.358-1.434 0-4.162 0-6.039 0-.53 0-1.038.211-1.413.585-.374.375-.585.883-.585 1.413z" fill="#fff" fill-opacity=".66"/><path d="m4 51v-3.293c0-.453.18-.887.5-1.207.32-.32.754-.5 1.207-.5h5.33c.636 0 1.266-.121 1.857-.358.908-.363 2.304-.921 3.212-1.284.591-.237 1.221-.358 1.857-.358h8.33c.453 0 .887.18 1.207.5.32.32.5.754.5 1.207v5.293z" fill="#db923e" fill-opacity=".33" transform="translate(30)"/><path d="m5.5 41.5c-.32.32-.5.754-.5 1.207v9.586c0 .453.18.887.5 1.207.32.32.754.5 1.207.5h20.586c.453 0 .887-.18 1.207-.5.32-.32.5-.754.5-1.207 0-1.681 0-5.905 0-7.586 0-.453-.18-.887-.5-1.207-.32-.32-.754-.5-1.207-.5-1.262 0-3.903 0-5.33 0-.636 0-1.266-.121-1.857-.358-.908-.363-2.304-.921-3.212-1.284-.591-.237-1.221-.358-1.857-.358-2.002 0-6.573 0-8.33 0-.453 0-.887.18-1.207.5z" fill="url(#l)" transform="matrix(-1 0 0 1 63 4)"/><path d="m34 50.707v-2c0-.453.18-.887.5-1.207.32-.32.754-.5 1.207-.5h5.33c.636 0 1.266-.121 1.857-.358.908-.363 2.304-.921 3.212-1.284.591-.237 1.221-.358 1.857-.358h8.33c.453 0 .887.18 1.207.5.32.32.5.754.5 1.207v2c0-.453-.18-.887-.5-1.207-.32-.32-.754-.5-1.207-.5-1.757 0-6.328 0-8.33 0-.636 0-1.266.121-1.857.358-.908.363-2.304.921-3.212 1.284-.591.237-1.221.358-1.857.358-1.427 0-4.068 0-5.33 0-.453 0-.887.18-1.207.5-.32.32-.5.754-.5 1.207z" fill="#fff" fill-opacity=".66"/><path d="m106 56c0-3.311-2.689-6-6-6s-6 2.689-6 6v2c0 3.311 2.689 6 6 6s6-2.689 6-6zm-4 0c0-1.104-.896-2-2-2s-2 .896-2 2v2c0 1.104.896 2 2 2s2-.896 2-2z" fill="url(#v)" transform="translate(-56 2)"/><path d="m106 56c0-3.311-2.689-6-6-6s-6 2.689-6 6v2c0 3.311 2.689 6 6 6s6-2.689 6-6zm-4 0c0-1.104-.896-2-2-2s-2 .896-2 2v2c0 1.104.896 2 2 2s2-.896 2-2z" fill="url(#w)" transform="matrix(.666667 0 0 .714286 -22.6667 18.2857)"/><path d="m104 56c0-2.208-1.792-4-4-4s-4 1.792-4 4v2c0 2.208 1.792 4 4 4s4-1.792 4-4zm-2 0c0-1.104-.896-2-2-2s-2 .896-2 2v2c0 1.104.896 2 2 2s2-.896 2-2z" fill="url(#x)" transform="translate(-56 2)"/><path d="m106 56c0-3.311-2.689-6-6-6s-6 2.689-6 6v2c0 3.311 2.689 6 6 6s6-2.689 6-6zm-4 0c0-1.104-.896-2-2-2s-2 .896-2 2v2c0 1.104.896 2 2 2s2-.896 2-2z" fill="url(#v)" transform="translate(-44 2)"/><path d="m106 56c0-3.311-2.689-6-6-6s-6 2.689-6 6v2c0 3.311 2.689 6 6 6s6-2.689 6-6zm-4 0c0-1.104-.896-2-2-2s-2 .896-2 2v2c0 1.104.896 2 2 2s2-.896 2-2z" fill="url(#w)" transform="matrix(.666667 0 0 .714286 -10.6667 18.2857)"/><path d="m104 56c0-2.208-1.792-4-4-4s-4 1.792-4 4v2c0 2.208 1.792 4 4 4s4-1.792 4-4zm-2 0c0-1.104-.896-2-2-2s-2 .896-2 2v2c0 1.104.896 2 2 2s2-.896 2-2z" fill="url(#x)" transform="translate(-44 2)"/><path d="m123 56.964c0-1.636-1.328-2.964-2.964-2.964h-8.072c-1.636 0-2.964 1.328-2.964 2.964v.072c0 1.636 1.328 2.964 2.964 2.964h8.072c1.636 0 2.964-1.328 2.964-2.964z" fill="url(#y)" transform="translate(-66 2)"/><path d="m123.5 56.964c0-1.636-.664-2.964-1.482-2.964h-12.036c-.818 0-1.482 1.328-1.482 2.964v.072c0 1.636.664 2.964 1.482 2.964h12.036c.818 0 1.482-1.328 1.482-2.964z" fill="url(#z)" transform="matrix(.666667 0 0 .333333 -27.3333 40)"/></g><g transform="translate(98 -2)"><path d="m2.5 38.5c-.32.32-.5.754-.5 1.207v18.586c0 .453.18.887.5 1.207.32.32.754.5 1.207.5h24.586c.453 0 .887-.18 1.207-.5.32-.32.5-.754.5-1.207 0-2.879 0-13.707 0-16.586 0-.453-.18-.887-.5-1.207-.32-.32-.754-.5-1.207-.5-1.757 0-6.328 0-8.33 0-.636 0-1.266-.121-1.857-.358-.908-.363-2.304-.921-3.212-1.284-.591-.237-1.221-.358-1.857-.358-2.175 0-7.424 0-9.33 0-.453 0-.887.18-1.207.5z" fill="url(#j)" transform="translate(30)"/><path d="m34 51v-9.002c0-.53.211-1.038.585-1.413.375-.374.883-.585 1.413-.585h6.039c.636 0 1.266.121 1.857.358.908.363 2.304.921 3.212 1.284.591.237 1.221.358 1.857.358h7.33c.453 0 .887.18 1.207.5.32.32.5.754.5 1.207v5.293h-10.037c-.636 0-1.266.121-1.857.358-.908.363-2.304.921-3.212 1.284-.591.237-1.221.358-1.857.358-2.127 0-7.037 0-7.037 0z" fill="url(#k)"/><path d="m34 43.998v-2c0-.53.211-1.038.585-1.413.375-.374.883-.585 1.413-.585h6.039c.636 0 1.266.121 1.857.358.908.363 2.304.921 3.212 1.284.591.237 1.221.358 1.857.358h7.33c.453 0 .887.18 1.207.5.32.32.5.754.5 1.207v5.293-3.293c0-.453-.18-.887-.5-1.207-.32-.32-.754-.5-1.207-.5-1.601 0-5.509 0-7.33 0-.636 0-1.266-.121-1.857-.358-.908-.363-2.304-.921-3.212-1.284-.591-.237-1.221-.358-1.857-.358-1.434 0-4.162 0-6.039 0-.53 0-1.038.211-1.413.585-.374.375-.585.883-.585 1.413z" fill="#fff" fill-opacity=".66"/><path d="m4 51v-3.293c0-.453.18-.887.5-1.207.32-.32.754-.5 1.207-.5h5.33c.636 0 1.266-.121 1.857-.358.908-.363 2.304-.921 3.212-1.284.591-.237 1.221-.358 1.857-.358h8.33c.453 0 .887.18 1.207.5.32.32.5.754.5 1.207v5.293z" fill="#db923e" fill-opacity=".33" transform="translate(30)"/><path d="m5.5 41.5c-.32.32-.5.754-.5 1.207v9.586c0 .453.18.887.5 1.207.32.32.754.5 1.207.5h20.586c.453 0 .887-.18 1.207-.5.32-.32.5-.754.5-1.207 0-1.681 0-5.905 0-7.586 0-.453-.18-.887-.5-1.207-.32-.32-.754-.5-1.207-.5-1.262 0-3.903 0-5.33 0-.636 0-1.266-.121-1.857-.358-.908-.363-2.304-.921-3.212-1.284-.591-.237-1.221-.358-1.857-.358-2.002 0-6.573 0-8.33 0-.453 0-.887.18-1.207.5z" fill="url(#l)" transform="matrix(-1 0 0 1 63 4)"/><path d="m34 50.707v-2c0-.453.18-.887.5-1.207.32-.32.754-.5 1.207-.5h5.33c.636 0 1.266-.121 1.857-.358.908-.363 2.304-.921 3.212-1.284.591-.237 1.221-.358 1.857-.358h8.33c.453 0 .887.18 1.207.5.32.32.5.754.5 1.207v2c0-.453-.18-.887-.5-1.207-.32-.32-.754-.5-1.207-.5-1.757 0-6.328 0-8.33 0-.636 0-1.266.121-1.857.358-.908.363-2.304.921-3.212 1.284-.591.237-1.221.358-1.857.358-1.427 0-4.068 0-5.33 0-.453 0-.887.18-1.207.5-.32.32-.5.754-.5 1.207z" fill="#fff" fill-opacity=".66"/><path d="m138.581 60.557c-.379.586-.466 1.313-.235 1.971s.753 1.172 1.414 1.392c.159.053.325.08.493.08h17.494c.168 0 .334-.027.493-.08.661-.22 1.183-.734 1.414-1.392s.144-1.385-.235-1.971c-2.833-4.378-8.553-13.219-9.331-14.421-.058-.09-.127-.175-.203-.251 0 0-.001-.001-.001-.001-.488-.488-1.28-.488-1.768 0 0 0-.001.001-.001.001-.076.076-.145.161-.203.251-.778 1.202-6.498 10.043-9.331 14.421z" fill="url(#A)" transform="translate(-98 2)"/><path d="m141.374 60.412c-.218.344-.169.793.119 1.081.325.325.765.507 1.224.507h12.566c.459 0 .899-.182 1.224-.507.288-.288.337-.737.119-1.081-1.338-2.102-5.839-9.175-6.535-10.269-.061-.095-.131-.183-.211-.263-.486-.486-1.274-.486-1.76 0-.08.08-.15.168-.211.263-.696 1.094-5.197 8.167-6.535 10.269z" fill="url(#B)" transform="translate(-98 2)"/><path d="m216.197 59.739.429.673c.218.344.169.793-.119 1.081-.325.325-.765.507-1.224.507-2.403 0-10.163 0-12.566 0-.459 0-.899-.182-1.224-.507-.288-.288-.337-.737-.119-1.081l.429-.673c.272.169.588.261.914.261h12.566c.326 0 .642-.092.914-.261z" fill="#fff" fill-opacity=".33" transform="translate(-158 2)"/><g fill="#c28833"><path d="m50 54h2v4h-2z"/><path d="m50 60h2v2h-2z"/></g></g><path d="m165.896 6v20l13-9.991z" fill="#777" transform="matrix(-.00070221 1 -1 -.00070221 192.116 -123.885)"/><path d="m198 26.586c0 .905.36 1.774 1 2.414.64.64 1.509 1 2.414 1h15.172c.905 0 1.774-.36 2.414-1 .64-.64 1-1.509 1-2.414 0-3.549 0-12.863 0-17.244 0-1.484-.659-2.891-1.799-3.841-.901-.751-1.974-1.645-2.81-2.342-.899-.749-2.032-1.159-3.201-1.159-1.808 0-4.572 0-6.38 0-1.169 0-2.302.41-3.201 1.159-.836.697-1.909 1.591-2.81 2.342-1.14.95-1.799 2.357-1.799 3.841z" fill="#3a5f87" transform="translate(4 30)"/><path d="m200 26.293c0 .453.18.887.5 1.207.32.32.754.5 1.207.5h14.586c.453 0 .887-.18 1.207-.5.32-.32.5-.754.5-1.207 0-2.576 0-11.541 0-15.89 0-1.519-.69-2.955-1.877-3.904-.582-.466-1.212-.971-1.753-1.403-.887-.71-1.989-1.096-3.124-1.096-1.333 0-3.159 0-4.492 0-1.135 0-2.237.386-3.124 1.096-.541.432-1.171.937-1.753 1.403-1.187.949-1.877 2.385-1.877 3.904z" fill="url(#g)" transform="translate(4 30)"/><path d="m216 8.6c0-.331-.269-.6-.6-.6h-12.8c-.331 0-.6.269-.6.6v4.8c0 .331.269.6.6.6h12.8c.331 0 .6-.269.6-.6z" fill="#8baacd" transform="translate(4 30)"/><path d="m216 8.6c0-.331-.448-.6-1-.6h-12c-.552 0-1 .269-1 .6v4.8c0 .331.448.6 1 .6h12c.552 0 1-.269 1-.6z" fill="url(#h)" transform="matrix(1 0 0 1.66667 4 32.66667)"/><path d="m216 11c0-1.656-.627-3-1.4-3h-11.2c-.773 0-1.4 1.344-1.4 3s.627 3 1.4 3h11.2c.773 0 1.4-1.344 1.4-3z" fill="#b9cce1" transform="matrix(.714286 0 0 .333333 63.7143 37.33333)"/><path d="m216 11c0-1.656-3.137-3-7-3s-7 1.344-7 3 3.137 3 7 3 7-1.344 7-3z" fill="#8baacd" transform="matrix(.285714 0 0 .666667 158.286 40.6667)"/><path d="m216 9.5c0-.828-3.137-1.5-7-1.5s-7 .672-7 1.5v3c0 .828 3.137 1.5 7 1.5s7-.672 7-1.5z" fill="url(#i)" transform="matrix(.142857 0 0 .666667 181.143 46.6667)"/><path d="m216 9.5c0-.828-3.137-1.5-7-1.5s-7 .672-7 1.5v3c0 .828 3.137 1.5 7 1.5s7-.672 7-1.5z" fill="url(#i)" transform="matrix(.142857 0 0 .666667 185.143 46.6667)"/><path d="m216 8.6c0-.331-.627-.6-1.4-.6h-11.2c-.773 0-1.4.269-1.4.6v4.8c0 .331.627.6 1.4.6h11.2c.773 0 1.4-.269 1.4-.6z" fill="#8baacd" transform="matrix(.285714 0 0 .666667 148.286 40.6667)"/><path d="m216 11c0-1.656-3.137-3-7-3s-7 1.344-7 3 3.137 3 7 3 7-1.344 7-3z" fill="#4f7fb4" transform="matrix(.142857 0 0 .333333 179.143 43.3333)"/><path d="m216 11c0-1.656-3.137-3-7-3s-7 1.344-7 3 3.137 3 7 3 7-1.344 7-3z" fill="#4f7fb4" transform="matrix(.142857 0 0 .333333 177.143 45.3333)"/><path d="m204.4 35h3.79c1.169 0 2.302.41 3.201 1.159.836.697 1.909 1.591 2.81 2.342 1.14.95 1.799 2.357 1.799 3.841v17.244c0 .139-.008.277-.025.414h-10.561c-.905 0-1.774-.36-2.414-1-.64-.64-1-1.509-1-2.414 0-3.549 0-12.863 0-17.244 0-1.484.659-2.891 1.799-3.841z" fill="#27415c" fill-opacity=".25"/><path d="m198 26.586c0 .905.36 1.774 1 2.414.64.64 1.509 1 2.414 1h15.172c.905 0 1.774-.36 2.414-1 .64-.64 1-1.509 1-2.414 0-3.549 0-12.863 0-17.244 0-1.484-.659-2.891-1.799-3.841-.901-.751-1.974-1.645-2.81-2.342-.899-.749-2.032-1.159-3.201-1.159-1.808 0-4.572 0-6.38 0-1.169 0-2.302.41-3.201 1.159-.836.697-1.909 1.591-2.81 2.342-1.14.95-1.799 2.357-1.799 3.841z" fill="#3a5f87" transform="translate(-6 34)"/><path d="m200 26.293c0 .453.18.887.5 1.207.32.32.754.5 1.207.5h14.586c.453 0 .887-.18 1.207-.5.32-.32.5-.754.5-1.207 0-2.576 0-11.541 0-15.89 0-1.519-.69-2.955-1.877-3.904-.582-.466-1.212-.971-1.753-1.403-.887-.71-1.989-1.096-3.124-1.096-1.333 0-3.159 0-4.492 0-1.135 0-2.237.386-3.124 1.096-.541.432-1.171.937-1.753 1.403-1.187.949-1.877 2.385-1.877 3.904z" fill="url(#g)" transform="translate(-6 34)"/><path d="m216 8.6c0-.331-.269-.6-.6-.6h-12.8c-.331 0-.6.269-.6.6v4.8c0 .331.269.6.6.6h12.8c.331 0 .6-.269.6-.6z" fill="#8baacd" transform="translate(-6 34)"/><path d="m216 8.6c0-.331-.448-.6-1-.6h-12c-.552 0-1 .269-1 .6v4.8c0 .331.448.6 1 .6h12c.552 0 1-.269 1-.6z" fill="url(#h)" transform="matrix(1 0 0 1.66667 -6 36.66667)"/><path d="m216 11c0-1.656-.627-3-1.4-3h-11.2c-.773 0-1.4 1.344-1.4 3s.627 3 1.4 3h11.2c.773 0 1.4-1.344 1.4-3z" fill="#b9cce1" transform="matrix(.714286 0 0 .333333 53.7143 41.3333)"/><path d="m216 11c0-1.656-3.137-3-7-3s-7 1.344-7 3 3.137 3 7 3 7-1.344 7-3z" fill="#8baacd" transform="matrix(.285714 0 0 .666667 148.286 44.6667)"/><path d="m216 9.5c0-.828-3.137-1.5-7-1.5s-7 .672-7 1.5v3c0 .828 3.137 1.5 7 1.5s7-.672 7-1.5z" fill="url(#i)" transform="matrix(.142857 0 0 .666667 171.143 50.6667)"/><path d="m216 9.5c0-.828-3.137-1.5-7-1.5s-7 .672-7 1.5v3c0 .828 3.137 1.5 7 1.5s7-.672 7-1.5z" fill="url(#i)" transform="matrix(.142857 0 0 .666667 175.143 50.6667)"/><path d="m216 8.6c0-.331-.627-.6-1.4-.6h-11.2c-.773 0-1.4.269-1.4.6v4.8c0 .331.627.6 1.4.6h11.2c.773 0 1.4-.269 1.4-.6z" fill="#8baacd" transform="matrix(.285714 0 0 .666667 138.286 44.6667)"/><path d="m216 11c0-1.656-3.137-3-7-3s-7 1.344-7 3 3.137 3 7 3 7-1.344 7-3z" fill="#4f7fb4" transform="matrix(.142857 0 0 .333333 169.143 47.3333)"/><path d="m216 11c0-1.656-3.137-3-7-3s-7 1.344-7 3 3.137 3 7 3 7-1.344 7-3z" fill="#4f7fb4" transform="matrix(.142857 0 0 .333333 167.143 49.3333)"/><g opacity=".5" transform="translate(-30 31)"><path d="m2.5 38.5c-.32.32-.5.754-.5 1.207v18.586c0 .453.18.887.5 1.207.32.32.754.5 1.207.5h24.586c.453 0 .887-.18 1.207-.5.32-.32.5-.754.5-1.207 0-2.879 0-13.707 0-16.586 0-.453-.18-.887-.5-1.207-.32-.32-.754-.5-1.207-.5-1.757 0-6.328 0-8.33 0-.636 0-1.266-.121-1.857-.358-.908-.363-2.304-.921-3.212-1.284-.591-.237-1.221-.358-1.857-.358-2.175 0-7.424 0-9.33 0-.453 0-.887.18-1.207.5z" fill="url(#j)" transform="translate(30)"/><path d="m34 51v-9c0-1.105.895-2 2-2h6.037c.636 0 1.266.121 1.857.358.908.363 2.304.921 3.212 1.284.591.237 1.221.358 1.857.358h7.33c.453 0 .887.18 1.207.5.32.32.5.754.5 1.207v5.293h-10.037c-.636 0-1.266.121-1.857.358-.908.363-2.304.921-3.212 1.284-.591.237-1.221.358-1.857.358-2.127 0-7.037 0-7.037 0z" fill="url(#k)"/><path d="m34 43.998v-2c0-.53.211-1.038.585-1.413.375-.374.883-.585 1.413-.585h6.039c.636 0 1.266.121 1.857.358.908.363 2.304.921 3.212 1.284.591.237 1.221.358 1.857.358h7.33c.453 0 .887.18 1.207.5.32.32.5.754.5 1.207v5.293-3.293c0-.453-.18-.887-.5-1.207-.32-.32-.754-.5-1.207-.5-1.601 0-5.509 0-7.33 0-.636 0-1.266-.121-1.857-.358-.908-.363-2.304-.921-3.212-1.284-.591-.237-1.221-.358-1.857-.358-1.434 0-4.162 0-6.039 0-.53 0-1.038.211-1.413.585-.374.375-.585.883-.585 1.413z" fill="#fff" fill-opacity=".66"/><path d="m4 51v-3.293c0-.453.18-.887.5-1.207.32-.32.754-.5 1.207-.5h5.33c.636 0 1.266-.121 1.857-.358.908-.363 2.304-.921 3.212-1.284.591-.237 1.221-.358 1.857-.358h8.33c.453 0 .887.18 1.207.5.32.32.5.754.5 1.207v5.293z" fill="#db923e" fill-opacity=".33" transform="translate(30)"/><path d="m5.5 41.5c-.32.32-.5.754-.5 1.207v9.586c0 .453.18.887.5 1.207.32.32.754.5 1.207.5h20.586c.453 0 .887-.18 1.207-.5.32-.32.5-.754.5-1.207 0-1.681 0-5.905 0-7.586 0-.453-.18-.887-.5-1.207-.32-.32-.754-.5-1.207-.5-1.262 0-3.903 0-5.33 0-.636 0-1.266-.121-1.857-.358-.908-.363-2.304-.921-3.212-1.284-.591-.237-1.221-.358-1.857-.358-2.002 0-6.573 0-8.33 0-.453 0-.887.18-1.207.5z" fill="url(#l)" transform="matrix(-1 0 0 1 63 4)"/><path d="m34 50.707v-2c0-.453.18-.887.5-1.207.32-.32.754-.5 1.207-.5h5.33c.636 0 1.266-.121 1.857-.358.908-.363 2.304-.921 3.212-1.284.591-.237 1.221-.358 1.857-.358h8.33c.453 0 .887.18 1.207.5.32.32.5.754.5 1.207v2c0-.453-.18-.887-.5-1.207-.32-.32-.754-.5-1.207-.5-1.757 0-6.328 0-8.33 0-.636 0-1.266.121-1.857.358-.908.363-2.304.921-3.212 1.284-.591.237-1.221.358-1.857.358-1.427 0-4.068 0-5.33 0-.453 0-.887.18-1.207.5-.32.32-.5.754-.5 1.207z" fill="#fff" fill-opacity=".66"/></g><g opacity=".5" transform="translate(0 1)"><path d="m32 56.586c0 .905.36 1.774 1 2.414.64.64 1.509 1 2.414 1h25.172c.905 0 1.774-.36 2.414-1 .64-.64 1-1.509 1-2.414 0-2.276 0-6.734 0-9.072 0-.987-.292-1.952-.84-2.774-.906-1.36-2.299-3.449-2.885-4.328-.183-.274-.392-.529-.625-.762-.057-.057-.12-.12-.186-.186-.937-.937-2.209-1.464-3.535-1.464-3.839 0-12.019 0-15.858 0-1.326 0-2.598.527-3.535 1.464-.066.066-.129.129-.186.186-.233.233-.442.488-.625.762-.586.879-1.979 2.968-2.885 4.328-.548.822-.84 1.787-.84 2.774z" fill="url(#m)" transform="translate(0 30)"/><path d="m34 80v-.929c0-1.326.527-2.598 1.464-3.535l.285-.285c.167-.167.322-.346.464-.535.615-.82 2.372-3.162 2.725-3.633.041-.055.087-.108.135-.156.001-.001.001-.001.001-.001.593-.593 1.397-.926 2.236-.926h13.38c.839 0 1.643.333 2.236.926 0 0 0 0 .001.001.048.048.094.101.135.156.353.471 2.11 2.813 2.725 3.633.142.189.297.368.464.535l.285.285c.937.937 1.464 2.209 1.464 3.535v.929z" fill="url(#n)"/><path d="m60 50c0-1.104-1.152-2-2.571-2h-18.858c-1.419 0-2.571.896-2.571 2v4c0 1.104 1.152 2 2.571 2h18.858c1.419 0 2.571-.896 2.571-2z" fill="url(#o)" transform="matrix(1.16667 0 0 1.5 -8 4)"/><path d="m60 50c0-1.104-.896-2-2-2h-20c-1.104 0-2 .896-2 2v4c0 1.104.896 2 2 2h20c1.104 0 2-.896 2-2z" fill="url(#p)" transform="translate(0 30)"/><path d="m60 50c0-1.104-.672-2-1.5-2h-21c-.828 0-1.5.896-1.5 2v4c0 1.104.672 2 1.5 2h21c.828 0 1.5-.896 1.5-2z" fill="url(#q)" transform="matrix(.666667 0 0 .5 16 56)"/><ellipse cx="49" cy="74.5" fill="url(#r)" rx="6" ry="2.5" transform="matrix(1.5 0 0 1.2 -25.5 -16.4)"/><path d="m41.097 41.5c.556 1.418 3.437 2.5 6.903 2.5s6.347-1.082 6.903-2.5c.064.163.097.33.097.5 0 1.656-3.137 3-7 3s-7-1.344-7-3c0-.17.033-.337.097-.5z" fill-opacity=".05" transform="matrix(1.28571 0 0 1 -13.7143 31)"/></g><g opacity=".5" transform="translate(-30 33)"><path d="m68 60.293c0 .453.18.887.5 1.207.32.32.754.5 1.207.5h20.586c.453 0 .887-.18 1.207-.5.32-.32.5-.754.5-1.207 0-3.442 0-18.293 0-18.293l-10-10h-12.293c-.453 0-.887.18-1.207.5-.32.32-.5.754-.5 1.207z" fill="url(#s)" transform="translate(30)"/><path d="m122 42v18.293c0 .453-.18.887-.5 1.207-.32.32-.754.5-1.207.5-3.311 0-17.275 0-20.586 0-.453 0-.887-.18-1.207-.5-.32-.32-.5-.754-.5-1.207v-2c0 .453.18.887.5 1.207.32.32.754.5 1.207.5h20.586c.453 0 .887-.18 1.207-.5.32-.32.5-.754.5-1.207z" fill="#74767b" fill-opacity=".49"/><path d="m70 34v26h20v-19l-7-7z" fill="#fff" transform="translate(30)"/><path d="m82 32v6.586c0 .905.36 1.774 1 2.414.64.64 1.509 1 2.414 1h6.586c0-1.281-.509-2.509-1.414-3.414-1.457-1.457-3.715-3.715-5.172-5.172-.905-.905-2.133-1.414-3.414-1.414z" fill="url(#t)" transform="translate(30)"/><path d="m114 35v3.293c0 .453.18.887.5 1.207.32.32.754.5 1.207.5h3.293z" fill="#fff"/></g><g opacity=".5" transform="translate(66 30)"><path d="m2.5 38.5c-.32.32-.5.754-.5 1.207v18.586c0 .453.18.887.5 1.207.32.32.754.5 1.207.5h24.586c.453 0 .887-.18 1.207-.5.32-.32.5-.754.5-1.207 0-2.879 0-13.707 0-16.586 0-.453-.18-.887-.5-1.207-.32-.32-.754-.5-1.207-.5-1.757 0-6.328 0-8.33 0-.636 0-1.266-.121-1.857-.358-.908-.363-2.304-.921-3.212-1.284-.591-.237-1.221-.358-1.857-.358-2.175 0-7.424 0-9.33 0-.453 0-.887.18-1.207.5z" fill="url(#j)" transform="translate(30)"/><path d="m34 51v-9.002c0-.53.211-1.038.585-1.413.375-.374.883-.585 1.413-.585h6.039c.636 0 1.266.121 1.857.358.908.363 2.304.921 3.212 1.284.591.237 1.221.358 1.857.358h7.33c.453 0 .887.18 1.207.5.32.32.5.754.5 1.207v5.293h-10.037c-.636 0-1.266.121-1.857.358-.908.363-2.304.921-3.212 1.284-.591.237-1.221.358-1.857.358-2.127 0-7.037 0-7.037 0z" fill="url(#k)"/><path d="m34 43.998v-2c0-.53.211-1.038.585-1.413.375-.374.883-.585 1.413-.585h6.039c.636 0 1.266.121 1.857.358.908.363 2.304.921 3.212 1.284.591.237 1.221.358 1.857.358h7.33c.453 0 .887.18 1.207.5.32.32.5.754.5 1.207v5.293-3.293c0-.453-.18-.887-.5-1.207-.32-.32-.754-.5-1.207-.5-1.601 0-5.509 0-7.33 0-.636 0-1.266-.121-1.857-.358-.908-.363-2.304-.921-3.212-1.284-.591-.237-1.221-.358-1.857-.358-1.434 0-4.162 0-6.039 0-.53 0-1.038.211-1.413.585-.374.375-.585.883-.585 1.413z" fill="#fff" fill-opacity=".66"/><path d="m4 51v-3.293c0-.453.18-.887.5-1.207.32-.32.754-.5 1.207-.5h5.33c.636 0 1.266-.121 1.857-.358.908-.363 2.304-.921 3.212-1.284.591-.237 1.221-.358 1.857-.358h8.33c.453 0 .887.18 1.207.5.32.32.5.754.5 1.207v5.293z" fill="#db923e" fill-opacity=".33" transform="translate(30)"/><path d="m5.5 41.5c-.32.32-.5.754-.5 1.207v9.586c0 .453.18.887.5 1.207.32.32.754.5 1.207.5h20.586c.453 0 .887-.18 1.207-.5.32-.32.5-.754.5-1.207 0-1.681 0-5.905 0-7.586 0-.453-.18-.887-.5-1.207-.32-.32-.754-.5-1.207-.5-1.262 0-3.903 0-5.33 0-.636 0-1.266-.121-1.857-.358-.908-.363-2.304-.921-3.212-1.284-.591-.237-1.221-.358-1.857-.358-2.002 0-6.573 0-8.33 0-.453 0-.887.18-1.207.5z" fill="url(#l)" transform="matrix(-1 0 0 1 63 4)"/><path d="m34 50.707v-2c0-.453.18-.887.5-1.207.32-.32.754-.5 1.207-.5h5.33c.636 0 1.266-.121 1.857-.358.908-.363 2.304-.921 3.212-1.284.591-.237 1.221-.358 1.857-.358h8.33c.453 0 .887.18 1.207.5.32.32.5.754.5 1.207v2c0-.453-.18-.887-.5-1.207-.32-.32-.754-.5-1.207-.5-1.757 0-6.328 0-8.33 0-.636 0-1.266.121-1.857.358-.908.363-2.304.921-3.212 1.284-.591.237-1.221.358-1.857.358-1.427 0-4.068 0-5.33 0-.453 0-.887.18-1.207.5-.32.32-.5.754-.5 1.207z" fill="#fff" fill-opacity=".66"/><path d="m106 56c0-3.311-2.689-6-6-6s-6 2.689-6 6v2c0 3.311 2.689 6 6 6s6-2.689 6-6zm-4 0c0-1.104-.896-2-2-2s-2 .896-2 2v2c0 1.104.896 2 2 2s2-.896 2-2z" fill="url(#v)" transform="translate(-56 2)"/><path d="m106 56c0-3.311-2.689-6-6-6s-6 2.689-6 6v2c0 3.311 2.689 6 6 6s6-2.689 6-6zm-4 0c0-1.104-.896-2-2-2s-2 .896-2 2v2c0 1.104.896 2 2 2s2-.896 2-2z" fill="url(#w)" transform="matrix(.666667 0 0 .714286 -22.6667 18.2857)"/><path d="m104 56c0-2.208-1.792-4-4-4s-4 1.792-4 4v2c0 2.208 1.792 4 4 4s4-1.792 4-4zm-2 0c0-1.104-.896-2-2-2s-2 .896-2 2v2c0 1.104.896 2 2 2s2-.896 2-2z" fill="url(#x)" transform="translate(-56 2)"/><path d="m106 56c0-3.311-2.689-6-6-6s-6 2.689-6 6v2c0 3.311 2.689 6 6 6s6-2.689 6-6zm-4 0c0-1.104-.896-2-2-2s-2 .896-2 2v2c0 1.104.896 2 2 2s2-.896 2-2z" fill="url(#v)" transform="translate(-44 2)"/><path d="m106 56c0-3.311-2.689-6-6-6s-6 2.689-6 6v2c0 3.311 2.689 6 6 6s6-2.689 6-6zm-4 0c0-1.104-.896-2-2-2s-2 .896-2 2v2c0 1.104.896 2 2 2s2-.896 2-2z" fill="url(#w)" transform="matrix(.666667 0 0 .714286 -10.6667 18.2857)"/><path d="m104 56c0-2.208-1.792-4-4-4s-4 1.792-4 4v2c0 2.208 1.792 4 4 4s4-1.792 4-4zm-2 0c0-1.104-.896-2-2-2s-2 .896-2 2v2c0 1.104.896 2 2 2s2-.896 2-2z" fill="url(#x)" transform="translate(-44 2)"/><path d="m123 56.964c0-1.636-1.328-2.964-2.964-2.964h-8.072c-1.636 0-2.964 1.328-2.964 2.964v.072c0 1.636 1.328 2.964 2.964 2.964h8.072c1.636 0 2.964-1.328 2.964-2.964z" fill="url(#y)" transform="translate(-66 2)"/><path d="m123.5 56.964c0-1.636-.664-2.964-1.482-2.964h-12.036c-.818 0-1.482 1.328-1.482 2.964v.072c0 1.636.664 2.964 1.482 2.964h12.036c.818 0 1.482-1.328 1.482-2.964z" fill="url(#z)" transform="matrix(.666667 0 0 .333333 -27.3333 40)"/></g><g opacity=".5" transform="translate(98.1095 30)"><path d="m2.5 38.5c-.32.32-.5.754-.5 1.207v18.586c0 .453.18.887.5 1.207.32.32.754.5 1.207.5h24.586c.453 0 .887-.18 1.207-.5.32-.32.5-.754.5-1.207 0-2.879 0-13.707 0-16.586 0-.453-.18-.887-.5-1.207-.32-.32-.754-.5-1.207-.5-1.757 0-6.328 0-8.33 0-.636 0-1.266-.121-1.857-.358-.908-.363-2.304-.921-3.212-1.284-.591-.237-1.221-.358-1.857-.358-2.175 0-7.424 0-9.33 0-.453 0-.887.18-1.207.5z" fill="url(#j)" transform="translate(30)"/><path d="m34 51v-9.002c0-.53.211-1.038.585-1.413.375-.374.883-.585 1.413-.585h6.039c.636 0 1.266.121 1.857.358.908.363 2.304.921 3.212 1.284.591.237 1.221.358 1.857.358h7.33c.453 0 .887.18 1.207.5.32.32.5.754.5 1.207v5.293h-10.037c-.636 0-1.266.121-1.857.358-.908.363-2.304.921-3.212 1.284-.591.237-1.221.358-1.857.358-2.127 0-7.037 0-7.037 0z" fill="url(#k)"/><path d="m34 43.998v-2c0-.53.211-1.038.585-1.413.375-.374.883-.585 1.413-.585h6.039c.636 0 1.266.121 1.857.358.908.363 2.304.921 3.212 1.284.591.237 1.221.358 1.857.358h7.33c.453 0 .887.18 1.207.5.32.32.5.754.5 1.207v5.293-3.293c0-.453-.18-.887-.5-1.207-.32-.32-.754-.5-1.207-.5-1.601 0-5.509 0-7.33 0-.636 0-1.266-.121-1.857-.358-.908-.363-2.304-.921-3.212-1.284-.591-.237-1.221-.358-1.857-.358-1.434 0-4.162 0-6.039 0-.53 0-1.038.211-1.413.585-.374.375-.585.883-.585 1.413z" fill="#fff" fill-opacity=".66"/><path d="m4 51v-3.293c0-.453.18-.887.5-1.207.32-.32.754-.5 1.207-.5h5.33c.636 0 1.266-.121 1.857-.358.908-.363 2.304-.921 3.212-1.284.591-.237 1.221-.358 1.857-.358h8.33c.453 0 .887.18 1.207.5.32.32.5.754.5 1.207v5.293z" fill="#db923e" fill-opacity=".33" transform="translate(30)"/><path d="m5.5 41.5c-.32.32-.5.754-.5 1.207v9.586c0 .453.18.887.5 1.207.32.32.754.5 1.207.5h20.586c.453 0 .887-.18 1.207-.5.32-.32.5-.754.5-1.207 0-1.681 0-5.905 0-7.586 0-.453-.18-.887-.5-1.207-.32-.32-.754-.5-1.207-.5-1.262 0-3.903 0-5.33 0-.636 0-1.266-.121-1.857-.358-.908-.363-2.304-.921-3.212-1.284-.591-.237-1.221-.358-1.857-.358-2.002 0-6.573 0-8.33 0-.453 0-.887.18-1.207.5z" fill="url(#l)" transform="matrix(-1 0 0 1 63 4)"/><path d="m34 50.707v-2c0-.453.18-.887.5-1.207.32-.32.754-.5 1.207-.5h5.33c.636 0 1.266-.121 1.857-.358.908-.363 2.304-.921 3.212-1.284.591-.237 1.221-.358 1.857-.358h8.33c.453 0 .887.18 1.207.5.32.32.5.754.5 1.207v2c0-.453-.18-.887-.5-1.207-.32-.32-.754-.5-1.207-.5-1.757 0-6.328 0-8.33 0-.636 0-1.266.121-1.857.358-.908.363-2.304.921-3.212 1.284-.591.237-1.221.358-1.857.358-1.427 0-4.068 0-5.33 0-.453 0-.887.18-1.207.5-.32.32-.5.754-.5 1.207z" fill="#fff" fill-opacity=".66"/><path d="m138.581 60.557c-.379.586-.466 1.313-.235 1.971s.753 1.172 1.414 1.392c.159.053.325.08.493.08h17.494c.168 0 .334-.027.493-.08.661-.22 1.183-.734 1.414-1.392s.144-1.385-.235-1.971c-2.833-4.378-8.553-13.219-9.331-14.421-.058-.09-.127-.175-.203-.251 0 0-.001-.001-.001-.001-.488-.488-1.28-.488-1.768 0 0 0-.001.001-.001.001-.076.076-.145.161-.203.251-.778 1.202-6.498 10.043-9.331 14.421z" fill="url(#A)" transform="translate(-98 2)"/><path d="m141.374 60.412c-.218.344-.169.793.119 1.081.325.325.765.507 1.224.507h12.566c.459 0 .899-.182 1.224-.507.288-.288.337-.737.119-1.081-1.338-2.102-5.839-9.175-6.535-10.269-.061-.095-.131-.183-.211-.263-.486-.486-1.274-.486-1.76 0-.08.08-.15.168-.211.263-.696 1.094-5.197 8.167-6.535 10.269z" fill="url(#B)" transform="translate(-98 2)"/><path d="m216.197 59.739.429.673c.218.344.169.793-.119 1.081-.325.325-.765.507-1.224.507-2.403 0-10.163 0-12.566 0-.459 0-.899-.182-1.224-.507-.288-.288-.337-.737-.119-1.081l.429-.673c.272.169.588.261.914.261h12.566c.326 0 .642-.092.914-.261z" fill="#fff" fill-opacity=".33" transform="translate(-158 2)"/><g fill="#c28833"><path d="m50 54h2v4h-2z"/><path d="m50 60h2v2h-2z"/></g></g><path d="m186.973 87.398c.018.109.027.22.027.331 0 2.611-4.929 4.73-11 4.73-5.86 0-10.656-1.975-10.982-4.459h-.009v-.08c-.006-.063-.009-.127-.009-.191s.003-.127.009-.191v-14.809h21.964z" fill="url(#C)"/><ellipse cx="176" cy="72.5" fill="url(#D)" rx="11" ry="4.5" transform="matrix(1 0 0 1.05096 0 -3.46532)"/><path d="m164.005 72.9c-.003-.057-.005-.114-.005-.171 0-1.338.907-2.652 2.618-3.655 2.117-1.241 5.529-2.074 9.382-2.074s7.265.833 9.382 2.074c1.711 1.003 2.618 2.317 2.618 3.655 0 .153-.012.305-.035.457l.005 4.658c.015.093.017.189.004.286-.001.008-.002.016-.003.023l.005 4.736c.008.071.009.144 0 .218l.006 4.877c.001.026 0 .052-.002.079v.004c-.002.028-.005.055-.009.082-.171 1.242-1.149 2.45-2.827 3.37-2.127 1.168-5.431 1.94-9.144 1.94s-7.017-.772-9.144-1.94c-1.678-.92-2.656-2.129-2.827-3.37-.004-.027-.007-.054-.009-.082v-.002c-.002-.027-.003-.053-.002-.078l-.018-14.986c0-.032.002-.064.004-.096zm2.01 13.093.003 1.932c.124.716.824 1.306 1.8 1.841 1.901 1.043 4.863 1.693 8.182 1.693s6.281-.65 8.182-1.693c.975-.535 1.675-1.125 1.8-1.84l-.002-1.929c-.256.182-.535.357-.836.522-2.127 1.168-5.431 1.94-9.144 1.94s-7.017-.772-9.144-1.94c-.303-.166-.584-.342-.841-.526zm-.006-5.004.003 1.899c.106.732.813 1.333 1.806 1.878 1.901 1.043 4.863 1.693 8.182 1.693s6.281-.65 8.182-1.693c.961-.527 1.654-1.107 1.794-1.809l-.002-1.956c-.254.181-.531.354-.83.518-2.127 1.168-5.431 1.94-9.144 1.94s-7.017-.772-9.144-1.94c-.306-.167-.588-.344-.847-.53zm-.005-5.002.002 1.858c.001.008.002.017.003.025.098.74.808 1.347 1.809 1.896 1.901 1.043 4.863 1.693 8.182 1.693s6.281-.65 8.182-1.693c.948-.52 1.636-1.092 1.788-1.781l-.002-1.978c-.183.13-.379.256-.586.377-2.117 1.242-5.529 2.075-9.382 2.075s-7.265-.833-9.382-2.075c-.218-.127-.423-.26-.614-.397zm19.996-3.252v-.006c0-.751-.668-1.366-1.629-1.929-1.887-1.107-4.938-1.8-8.371-1.8s-6.484.693-8.371 1.8c-.961.563-1.629 1.178-1.629 1.929 0 .752.668 1.366 1.629 1.93 1.887 1.106 4.938 1.8 8.371 1.8s6.484-.694 8.371-1.8c.831-.488 1.444-1.013 1.594-1.633l-.001-.025c.001-.088.012-.176.035-.262z" fill="url(#E)"/><g transform="translate(28 2.54136)"><path d="m186.973 87.398c.018.109.027.22.027.331 0 2.611-4.929 4.73-11 4.73-5.86 0-10.656-1.975-10.982-4.459h-.009v-.08c-.006-.063-.009-.127-.009-.191s.003-.127.009-.191v-14.809h21.964z" fill="url(#C)" transform="translate(8 -5.54136)"/><ellipse cx="176" cy="72.5" fill="url(#D)" rx="11" ry="4.5" transform="matrix(1 0 0 1.05096 8 -9.00667)"/><path d="m164.005 72.9c-.003-.057-.005-.114-.005-.171 0-1.338.907-2.652 2.618-3.655 2.117-1.241 5.529-2.074 9.382-2.074s7.265.833 9.382 2.074c1.711 1.003 2.618 2.317 2.618 3.655 0 .153-.012.305-.035.457l.005 4.658c.015.093.017.189.004.286-.001.008-.002.016-.003.023l.005 4.736c.008.071.009.144 0 .218l.006 4.877c.001.026 0 .052-.002.079v.004c-.002.028-.005.055-.009.082-.171 1.242-1.149 2.45-2.827 3.37-2.127 1.168-5.431 1.94-9.144 1.94s-7.017-.772-9.144-1.94c-1.678-.92-2.656-2.129-2.827-3.37-.004-.027-.007-.054-.009-.082v-.002c-.002-.027-.003-.053-.002-.078l-.018-14.986c0-.032.002-.064.004-.096zm2.01 13.093.003 1.932c.124.716.824 1.306 1.8 1.841 1.901 1.043 4.863 1.693 8.182 1.693s6.281-.65 8.182-1.693c.975-.535 1.675-1.125 1.8-1.84l-.002-1.929c-.256.182-.535.357-.836.522-2.127 1.168-5.431 1.94-9.144 1.94s-7.017-.772-9.144-1.94c-.303-.166-.584-.342-.841-.526zm-.006-5.004.003 1.899c.106.732.813 1.333 1.806 1.878 1.901 1.043 4.863 1.693 8.182 1.693s6.281-.65 8.182-1.693c.961-.527 1.654-1.107 1.794-1.809l-.002-1.956c-.254.181-.531.354-.83.518-2.127 1.168-5.431 1.94-9.144 1.94s-7.017-.772-9.144-1.94c-.306-.167-.588-.344-.847-.53zm-.005-5.002.002 1.858c.001.008.002.017.003.025.098.74.808 1.347 1.809 1.896 1.901 1.043 4.863 1.693 8.182 1.693s6.281-.65 8.182-1.693c.948-.52 1.636-1.092 1.788-1.781l-.002-1.978c-.183.13-.379.256-.586.377-2.117 1.242-5.529 2.075-9.382 2.075s-7.265-.833-9.382-2.075c-.218-.127-.423-.26-.614-.397zm19.996-3.252v-.006c0-.751-.668-1.366-1.629-1.929-1.887-1.107-4.938-1.8-8.371-1.8s-6.484.693-8.371 1.8c-.961.563-1.629 1.178-1.629 1.929 0 .752.668 1.366 1.629 1.93 1.887 1.106 4.938 1.8 8.371 1.8s6.484-.694 8.371-1.8c.831-.488 1.444-1.013 1.594-1.633l-.001-.025c.001-.088.012-.176.035-.262z" fill="url(#E)" transform="translate(8 -5.54136)"/><path d="m200.037 69.265c1.743-.457 3.782-.724 5.963-.724 3.853 0 7.265.833 9.382 2.075 1.711 1.003 2.618 2.317 2.618 3.655 0 .152-.012.305-.035.456l.005 4.659c.015.092.017.188.004.286-.001.007-.002.015-.003.023l.005 4.735c.008.071.009.145 0 .219l.006 4.876-.011.166-.007.045c-1.742.456-3.783.723-5.964.723-3.713 0-7.017-.772-9.144-1.94-1.678-.92-2.656-2.129-2.827-3.37l-.011-.162-.018-14.986.005-.101c-.003-.057-.005-.114-.005-.171 0-.155.012-.31.037-.464z" fill="#7a630d" fill-opacity=".25" transform="translate(-28 -2.54136)"/><path d="m186.973 87.398c.018.109.027.22.027.331 0 2.611-4.929 4.73-11 4.73-5.86 0-10.656-1.975-10.982-4.459h-.009v-.08c-.006-.063-.009-.127-.009-.191s.003-.127.009-.191v-14.809h21.964z" fill="url(#C)"/><ellipse cx="176" cy="72.5" fill="url(#D)" rx="11" ry="4.5" transform="matrix(1 0 0 1.05096 0 -3.46532)"/><path d="m164.005 72.9c-.003-.057-.005-.114-.005-.171 0-1.338.907-2.652 2.618-3.655 2.117-1.241 5.529-2.074 9.382-2.074s7.265.833 9.382 2.074c1.711 1.003 2.618 2.317 2.618 3.655 0 .153-.012.305-.035.457l.005 4.658c.015.093.017.189.004.286-.001.008-.002.016-.003.023l.005 4.736c.008.071.009.144 0 .218l.006 4.877c.001.026 0 .052-.002.079v.004c-.002.028-.005.055-.009.082-.171 1.242-1.149 2.45-2.827 3.37-2.127 1.168-5.431 1.94-9.144 1.94s-7.017-.772-9.144-1.94c-1.678-.92-2.656-2.129-2.827-3.37-.004-.027-.007-.054-.009-.082v-.002c-.002-.027-.003-.053-.002-.078l-.018-14.986c0-.032.002-.064.004-.096zm2.01 13.093.003 1.932c.124.716.824 1.306 1.8 1.841 1.901 1.043 4.863 1.693 8.182 1.693s6.281-.65 8.182-1.693c.975-.535 1.675-1.125 1.8-1.84l-.002-1.929c-.256.182-.535.357-.836.522-2.127 1.168-5.431 1.94-9.144 1.94s-7.017-.772-9.144-1.94c-.303-.166-.584-.342-.841-.526zm-.006-5.004.003 1.899c.106.732.813 1.333 1.806 1.878 1.901 1.043 4.863 1.693 8.182 1.693s6.281-.65 8.182-1.693c.961-.527 1.654-1.107 1.794-1.809l-.002-1.956c-.254.181-.531.354-.83.518-2.127 1.168-5.431 1.94-9.144 1.94s-7.017-.772-9.144-1.94c-.306-.167-.588-.344-.847-.53zm-.005-5.002.002 1.858c.001.008.002.017.003.025.098.74.808 1.347 1.809 1.896 1.901 1.043 4.863 1.693 8.182 1.693s6.281-.65 8.182-1.693c.948-.52 1.636-1.092 1.788-1.781l-.002-1.978c-.183.13-.379.256-.586.377-2.117 1.242-5.529 2.075-9.382 2.075s-7.265-.833-9.382-2.075c-.218-.127-.423-.26-.614-.397zm19.996-3.252v-.006c0-.751-.668-1.366-1.629-1.929-1.887-1.107-4.938-1.8-8.371-1.8s-6.484.693-8.371 1.8c-.961.563-1.629 1.178-1.629 1.929 0 .752.668 1.366 1.629 1.93 1.887 1.106 4.938 1.8 8.371 1.8s6.484-.694 8.371-1.8c.831-.488 1.444-1.013 1.594-1.633l-.001-.025c.001-.088.012-.176.035-.262z" fill="url(#E)"/></g><path d="m188 101.371c0-.756-1.075-1.371-2.4-1.371h-19.2c-1.325 0-2.4.615-2.4 1.371v21.258c0 .756 1.075 1.371 2.4 1.371h19.2c1.325 0 2.4-.615 2.4-1.371z" fill="url(#G)" transform="matrix(.666667 0 0 1.16667 -93.3333 -20.6667)"/><path d="m188 101.2c0-.662-1.075-1.2-2.4-1.2h-19.2c-1.325 0-2.4.538-2.4 1.2v21.6c0 .662 1.075 1.2 2.4 1.2h19.2c1.325 0 2.4-.538 2.4-1.2z" fill="url(#I)" transform="matrix(.5 0 0 1 -64 -2)"/><path d="m188 100.96c0-.53-1.075-.96-2.4-.96h-19.2c-1.325 0-2.4.43-2.4.96v22.08c0 .53 1.075.96 2.4.96h19.2c1.325 0 2.4-.43 2.4-.96z" fill="url(#J)" transform="matrix(.333333 0 0 .833333 -34.6667 16.6667)"/><path d="m188 111.842c0-6.536-1.327-11.842-2.96-11.842h-18.08c-1.633 0-2.96 5.306-2.96 11.842v.316c0 6.536 1.327 11.842 2.96 11.842h18.08c1.633 0 2.96-5.306 2.96-11.842z" fill="#939394" transform="matrix(.333333 0 0 .0833333 -34.6667 93.6667)"/><path d="m188 111.842c0-6.536-1.327-11.842-2.96-11.842h-18.08c-1.633 0-2.96 5.306-2.96 11.842v.316c0 6.536 1.327 11.842 2.96 11.842h18.08c1.633 0 2.96-5.306 2.96-11.842z" fill="#939394" transform="matrix(.333333 0 0 .0833333 -34.6667 97.6667)"/><circle cx="26" cy="112" fill="url(#K)" r="2" transform="matrix(1.25 0 0 1 -7 0)"/><path d="m16 101h8c1.104 0 2 .896 2 2v16c0 1.104-.896 2-2 2h-6v.975c0 .272.108.533.3.725s.453.3.725.3h.001c.258 0 .506.103.689.285.182.183.285.431.285.689v.026h-2.4c-.883 0-1.6-.717-1.6-1.6z" fill="#3d3d3d" fill-opacity=".25"/><path d="m16 120v2.975c0 .272.108.533.3.725s.453.3.725.3h.001c.258 0 .506.103.689.285.182.183.285.431.285.689v.007c0 .652-.259 1.278-.721 1.74-.082.082-.166.166-.252.252-.657.657-1.55 1.027-2.48 1.027-1.445 0-3.649 0-5.094 0-.93 0-1.823-.37-2.48-1.027-.086-.086-.17-.17-.252-.252-.462-.462-.721-1.088-.721-1.74 0-.002 0-.005 0-.007 0-.258.103-.506.285-.689.183-.182.431-.285.689-.285h.001c.272 0 .533-.108.725-.3s.3-.453.3-.725c0-1.185 0-2.975 0-2.975z" fill="url(#L)"/><path d="m14 120v3c0 .552.448 1 1 1s.041.081.106.211c.191.383.171.838-.054 1.203-.226.364-.624.586-1.052.586h-4.345c-.354 0-.684-.184-.87-.485-.186-.302-.203-.678-.045-.996.013-.024.025-.049.037-.072.137-.274.416-.447.722-.447h.001c.133 0 .26-.053.354-.146.093-.094.146-.221.146-.354 0-1.073 0-3.5 0-3.5z" fill="url(#M)"/><path d="m188 102.4c0-1.325-.896-2.4-2-2.4h-20c-1.104 0-2 1.075-2 2.4v19.2c0 1.325.896 2.4 2 2.4h20c1.104 0 2-1.075 2-2.4z" fill="url(#N)" transform="matrix(1 0 0 .833333 -164 18.6667)"/><path d="m188 102.4c0-1.325-.86-2.4-1.92-2.4h-20.16c-1.06 0-1.92 1.075-1.92 2.4v19.2c0 1.325.86 2.4 1.92 2.4h20.16c1.06 0 1.92-1.075 1.92-2.4z" fill="url(#O)" transform="matrix(.833333 0 0 .666667 -134.667 37.3333)"/><path d="m188 102.4c0-1.325-.807-2.4-1.8-2.4h-20.4c-.993 0-1.8 1.075-1.8 2.4v19.2c0 1.325.807 2.4 1.8 2.4h20.4c.993 0 1.8-1.075 1.8-2.4z" fill="url(#P)" transform="matrix(.666667 0 0 .5 -105.333 56)"/><path d="m188 102.4c0-1.325-.717-2.4-1.6-2.4h-20.8c-.883 0-1.6 1.075-1.6 2.4v19.2c0 1.325.717 2.4 1.6 2.4h20.8c.883 0 1.6-1.075 1.6-2.4z" fill="url(#R)" transform="matrix(.5 0 0 .333333 -76 74.6667)"/><path d="m188 112c0-6.623-1.344-12-3-12h-18c-1.656 0-3 5.377-3 12s1.344 12 3 12h18c1.656 0 3-5.377 3-12z" fill="#fff" fill-opacity=".21" transform="matrix(.333333 0 0 .0833333 -46.6667 105.667)"/><g transform="translate(0 30)"><path d="m62 120c0-1.656-1.344-3-3-3s-3 1.344-3 3v1c0 1.656 1.344 3 3 3s3-1.344 3-3z" fill="#edb87e" transform="translate(1 -31)"/><path d="m58 86.171c.313-.111.649-.171 1-.171 1.656 0 3 1.344 3 3v1c0 1.656-1.344 3-3 3-.351 0-.687-.06-1-.171 1.165-.412 2-1.524 2-2.829v-1c0-1.305-.835-2.417-2-2.829z" fill="#cea67c" transform="translate(1)"/><path d="m62 120c0-1.656-1.344-3-3-3s-3 1.344-3 3v1c0 1.656 1.344 3 3 3s3-1.344 3-3z" fill="#edb87e" transform="translate(-23 -31)"/><path d="m38 92.829c-.313.111-.649.171-1 .171-1.656 0-3-1.344-3-3v-1c0-1.656 1.344-3 3-3 .351 0 .687.06 1 .171-1.165.412-2 1.524-2 2.829v1c0 1.305.835 2.417 2 2.829z" fill="#cea67c" transform="translate(-1)"/><g transform="translate(0 -30)"><path d="m42 109s-2.504 1.461-5.224 3.047c-1.242.725-1.957 2.1-1.835 3.534.122 1.433 1.057 2.668 2.404 3.173.001.001.001.001.001.001.414.155.735.488.875.908.138.415.319.957.471 1.414.203.607.544 1.159.996 1.611.428.428.942.942 1.179 1.179.088.088.188.164.296.226 4.237 2.421 9.437 2.421 13.674 0 .108-.062.208-.138.296-.226.237-.237.751-.751 1.179-1.179.452-.452.793-1.004.996-1.611.15-.451.327-.983.465-1.396.144-.431.474-.774.899-.933 0 0 .001 0 .002-.001 1.305-.489 2.204-1.697 2.298-3.087.094-1.391-.634-2.709-1.861-3.37-3.115-1.677-6.111-3.29-6.111-3.29z" fill="url(#S)"/><path d="m44 109s-2.504 1.461-5.224 3.047c-1.242.725-1.957 2.1-1.835 3.534.122 1.433-1.878 1.433-2 0-.122-1.434.593-2.809 1.835-3.534 2.72-1.586 5.224-3.047 5.224-3.047z" fill="#fff" fill-opacity=".49"/><path d="m38.006 119.251c-.004-.083-.006-.167-.006-.251 0-3.863 4.481-7 10-7 .337 0 .671.012 1 .035-5.05.351-9 3.338-9 6.965 0 3.469 3.613 6.352 8.346 6.905-2.474.061-4.961-.542-7.183-1.812-.108-.062-.208-.138-.296-.226-.237-.237-.751-.751-1.179-1.179-.452-.452-.793-1.004-.996-1.611-.152-.457-.333-.999-.471-1.414-.05-.15-.123-.288-.215-.412z" fill="#fff" fill-opacity=".5"/></g><path d="m35.064 84.266c.316 1.133 1.155 2.066 2.281 2.488.001.001.001.001.001.001.414.155.735.488.875.908.138.415.319.957.471 1.414.203.607.544 1.159.996 1.611.428.428.942.942 1.179 1.179.088.088.188.164.296.226 4.237 2.421 9.437 2.421 13.674 0 .108-.062.208-.138.296-.226.237-.237.751-.751 1.179-1.179.452-.452.793-1.004.996-1.611.15-.451.327-.983.465-1.396.144-.431.474-.774.899-.933 0 0 .001 0 .002-.001 1.06-.397 1.852-1.269 2.162-2.327.116.395.165.814.136 1.24-.094 1.39-.993 2.598-2.298 3.087-.001.001-.002.001-.002.001-.425.159-.755.502-.899.933-.138.413-.315.945-.465 1.396-.203.607-.544 1.159-.996 1.611-.428.428-.942.942-1.179 1.179-.088.088-.188.164-.296.226-4.237 2.421-9.437 2.421-13.674 0-.108-.062-.208-.138-.296-.226-.237-.237-.751-.751-1.179-1.179-.452-.452-.793-1.004-.996-1.611-.152-.457-.333-.999-.471-1.414-.14-.42-.461-.753-.875-.908 0 0 0 0-.001-.001-1.347-.505-2.282-1.74-2.404-3.173-.038-.45.006-.895.123-1.315z" fill="#5991df"/><path d="m47.654 125.905c4.733-.553 8.346-3.436 8.346-6.905 0-3.627-3.95-6.614-9-6.965.329-.023.663-.035 1-.035 5.519 0 10 3.137 10 7 0 .087-.002.173-.007.259-.094.126-.169.268-.22.422-.138.413-.315.945-.465 1.396-.203.607-.544 1.159-.996 1.611-.428.428-.942.942-1.179 1.179-.088.088-.188.164-.296.226-2.222 1.27-4.709 1.873-7.183 1.812z" fill="#5991df" transform="translate(0 -30)"/><g transform="translate(0 -30)"><circle cx="48" cy="106" fill="url(#T)" r="8"/><g clip-path="url(#af)"><path d="m38 104.121c0 1.082.744 2.022 1.796 2.27 1.053.249 2.138-.259 2.622-1.227.001-.001.001-.002.002-.004.368-.736 1.04-1.275 1.838-1.475l1.384-.346c.814-.203 1.669.127 2.134.826.073.109.148.221.223.333.651.977 1.592 1.724 2.691 2.136.498.187 1.069.401 1.659.622 1.057.396 2.242.249 3.17-.394.927-.643 1.481-1.7 1.481-2.829v-6.033h-19z" fill="url(#U)"/></g></g><path d="m55.938 75c.041.328.062.661.062 1 0 4.415-3.585 8-8 8s-8-3.585-8-8c0-.339.021-.672.062-1 .493 3.944 3.861 7 7.938 7s7.445-3.056 7.938-7z" fill="#cea67c" transform="translate(0 1)"/></g><g transform="translate(32 68)"><path d="m2.5 38.5c-.32.32-.5.754-.5 1.207v18.586c0 .453.18.887.5 1.207.32.32.754.5 1.207.5h24.586c.453 0 .887-.18 1.207-.5.32-.32.5-.754.5-1.207 0-2.879 0-13.707 0-16.586 0-.453-.18-.887-.5-1.207-.32-.32-.754-.5-1.207-.5-1.757 0-6.328 0-8.33 0-.636 0-1.266-.121-1.857-.358-.908-.363-2.304-.921-3.212-1.284-.591-.237-1.221-.358-1.857-.358-2.175 0-7.424 0-9.33 0-.453 0-.887.18-1.207.5z" fill="url(#j)" transform="translate(30)"/><path d="m34 51v-9.002c0-.53.211-1.038.585-1.413.375-.374.883-.585 1.413-.585h6.039c.636 0 1.266.121 1.857.358.908.363 2.304.921 3.212 1.284.591.237 1.221.358 1.857.358h7.33c.453 0 .887.18 1.207.5.32.32.5.754.5 1.207v5.293h-10.037c-.636 0-1.266.121-1.857.358-.908.363-2.304.921-3.212 1.284-.591.237-1.221.358-1.857.358-2.127 0-7.037 0-7.037 0z" fill="url(#k)"/><path d="m34 43.998v-2c0-.53.211-1.038.585-1.413.375-.374.883-.585 1.413-.585h6.039c.636 0 1.266.121 1.857.358.908.363 2.304.921 3.212 1.284.591.237 1.221.358 1.857.358h7.33c.453 0 .887.18 1.207.5.32.32.5.754.5 1.207v5.293-3.293c0-.453-.18-.887-.5-1.207-.32-.32-.754-.5-1.207-.5-1.601 0-5.509 0-7.33 0-.636 0-1.266-.121-1.857-.358-.908-.363-2.304-.921-3.212-1.284-.591-.237-1.221-.358-1.857-.358-1.434 0-4.162 0-6.039 0-.53 0-1.038.211-1.413.585-.374.375-.585.883-.585 1.413z" fill="#fff" fill-opacity=".66"/><path d="m72 60.293c0 .453.18.887.5 1.207.32.32.754.5 1.207.5h16.586c.453 0 .887-.18 1.207-.5.32-.32.5-.754.5-1.207 0-2.71 0-12.293 0-12.293l-10-10h-8.293c-.453 0-.887.18-1.207.5-.32.32-.5.754-.5 1.207z" fill="url(#s)" transform="translate(-28 -10)"/><path d="m122 42v18.293c0 .453-.18.887-.5 1.207-.32.32-.754.5-1.207.5-3.311 0-13.275 0-16.586 0-.453 0-.887-.18-1.207-.5-.32-.32-.5-.754-.5-1.207v-2c0 .453.18.887.5 1.207.32.32.754.5 1.207.5h16.586c.453 0 .887-.18 1.207-.5.32-.32.5-.754.5-1.207z" fill="#74767b" fill-opacity=".5" transform="translate(-58 -10)"/><path d="m74 40v20h16v-13l-7-7z" fill="#fff" transform="translate(-28 -10)"/><path d="m82 32v6.586c0 .905.36 1.774 1 2.414.64.64 1.509 1 2.414 1h6.586c0-1.281-.509-2.509-1.414-3.414-1.457-1.457-3.715-3.715-5.172-5.172-.905-.905-2.133-1.414-3.414-1.414z" fill="url(#t)" transform="translate(-28 -4)"/><path d="m114 35v3.293c0 .453.18.887.5 1.207.32.32.754.5 1.207.5h3.293z" fill="#fff" transform="translate(-58 -4)"/><path d="m4 51v-3.293c0-.453.18-.887.5-1.207.32-.32.754-.5 1.207-.5h5.33c.636 0 1.266-.121 1.857-.358.908-.363 2.304-.921 3.212-1.284.591-.237 1.221-.358 1.857-.358h8.33c.453 0 .887.18 1.207.5.32.32.5.754.5 1.207v5.293z" fill="#db923e" fill-opacity=".33" transform="translate(30)"/><path d="m5.5 41.5c-.32.32-.5.754-.5 1.207v9.586c0 .453.18.887.5 1.207.32.32.754.5 1.207.5h20.586c.453 0 .887-.18 1.207-.5.32-.32.5-.754.5-1.207 0-1.681 0-5.905 0-7.586 0-.453-.18-.887-.5-1.207-.32-.32-.754-.5-1.207-.5-1.262 0-3.903 0-5.33 0-.636 0-1.266-.121-1.857-.358-.908-.363-2.304-.921-3.212-1.284-.591-.237-1.221-.358-1.857-.358-2.002 0-6.573 0-8.33 0-.453 0-.887.18-1.207.5z" fill="url(#l)" transform="matrix(-1 0 0 1 63 4)"/><path d="m34 50.707v-2c0-.453.18-.887.5-1.207.32-.32.754-.5 1.207-.5h5.33c.636 0 1.266-.121 1.857-.358.908-.363 2.304-.921 3.212-1.284.591-.237 1.221-.358 1.857-.358h8.33c.453 0 .887.18 1.207.5.32.32.5.754.5 1.207v2c0-.453-.18-.887-.5-1.207-.32-.32-.754-.5-1.207-.5-1.757 0-6.328 0-8.33 0-.636 0-1.266.121-1.857.358-.908.363-2.304.921-3.212 1.284-.591.237-1.221.358-1.857.358-1.427 0-4.068 0-5.33 0-.453 0-.887.18-1.207.5-.32.32-.5.754-.5 1.207z" fill="#fff" fill-opacity=".66"/></g><g transform="translate(64 68)"><path d="m2.5 38.5c-.32.32-.5.754-.5 1.207v18.586c0 .453.18.887.5 1.207.32.32.754.5 1.207.5h24.586c.453 0 .887-.18 1.207-.5.32-.32.5-.754.5-1.207 0-2.879 0-13.707 0-16.586 0-.453-.18-.887-.5-1.207-.32-.32-.754-.5-1.207-.5-1.757 0-6.328 0-8.33 0-.636 0-1.266-.121-1.857-.358-.908-.363-2.304-.921-3.212-1.284-.591-.237-1.221-.358-1.857-.358-2.175 0-7.424 0-9.33 0-.453 0-.887.18-1.207.5z" fill="url(#j)" transform="translate(30)"/><path d="m34 51v-9c0-1.105.895-2 2-2h6.037c.636 0 1.266.121 1.857.358.908.363 2.304.921 3.212 1.284.591.237 1.221.358 1.857.358h7.33c.453 0 .887.18 1.207.5.32.32.5.754.5 1.207v5.293h-10.037c-.636 0-1.266.121-1.857.358-.908.363-2.304.921-3.212 1.284-.591.237-1.221.358-1.857.358-2.127 0-7.037 0-7.037 0z" fill="url(#k)"/><path d="m34 43.998v-2c0-.53.211-1.038.585-1.413.375-.374.883-.585 1.413-.585h6.039c.636 0 1.266.121 1.857.358.908.363 2.304.921 3.212 1.284.591.237 1.221.358 1.857.358h7.33c.453 0 .887.18 1.207.5.32.32.5.754.5 1.207v5.293-3.293c0-.453-.18-.887-.5-1.207-.32-.32-.754-.5-1.207-.5-1.601 0-5.509 0-7.33 0-.636 0-1.266-.121-1.857-.358-.908-.363-2.304-.921-3.212-1.284-.591-.237-1.221-.358-1.857-.358-1.434 0-4.162 0-6.039 0-.53 0-1.038.211-1.413.585-.374.375-.585.883-.585 1.413z" fill="#fff" fill-opacity=".66"/><ellipse cx="107.5" cy="116" fill="url(#V)" rx="10.5" ry="1" transform="matrix(.740779 .740779 -1.94454 1.94454 195.365 -262.633)"/><ellipse cx="107.5" cy="118.378" fill="#a87204" rx="2.5" ry="2.622" transform="matrix(1.06066 1.06066 -1.02229 1.02229 57.1639 -191.792)"/><ellipse cx="107.5" cy="118.378" fill="url(#W)" rx="2.5" ry="2.622" transform="matrix(1.06066 1.06066 -1.02229 1.02229 56.4568 -192.499)"/><g transform="matrix(.707107 .707107 -.707107 .707107 55.6776 -114.998)"><path d="m109.268 97.803c-.172-.514-.54-.939-1.025-1.182-.001 0-.001 0-.002 0-.781-.391-1.701-.391-2.482 0-.001 0-.001 0-.002 0-.485.243-.853.668-1.025 1.182-.127.382-.28.841-.413 1.241-.191.571-.725.956-1.327.956 0 0 0 0-.001 0-.589 0-1.109.384-1.282.947-.716 2.324-2.556 8.304-3.343 10.863-.234.76-.768 1.391-1.48 1.747-.543.272-.886.826-.886 1.433v.44c0 .131.063.252.17.327s.243.093.365.048h.002c6.759-2.458 14.167-2.458 20.926 0h.002c.122.045.258.027.365-.048s.17-.196.17-.327c0-.138 0-.289 0-.44 0-.607-.343-1.161-.886-1.433-.712-.356-1.246-.987-1.48-1.747-.787-2.559-2.627-8.539-3.343-10.863-.173-.563-.693-.947-1.282-.947-.001 0-.001 0-.001 0-.602 0-1.136-.385-1.327-.956-.133-.4-.286-.859-.413-1.241z" fill="url(#X)"/><path d="m108 113.978c3.365-.11 6.745.335 10 1.336v.116c0 .131-.063.252-.17.327s-.243.093-.365.048c-.001 0-.001 0-.002 0-3.061-1.113-6.255-1.722-9.463-1.827zm-10 1.336c-.491.151-.979.315-1.463.491-.001 0-.001 0-.002 0-.122.045-.258.027-.365-.048s-.17-.196-.17-.327c0-.138 0-.289 0-.44 0-.607.343-1.161.886-1.433.712-.356 1.246-.987 1.48-1.747.787-2.559 2.627-8.539 3.343-10.863.173-.563.693-.947 1.282-.947h.001c.602 0 1.136-.385 1.327-.956.133-.4.286-.859.413-1.241.172-.514.54-.939 1.025-1.182h.002c.702-.351 1.516-.387 2.241-.107-.082.032-.162.067-.241.107-.001 0-.001 0-.002 0-.485.243-.853.668-1.025 1.182-.127.382-.28.841-.413 1.241-.191.571-.725.956-1.327.956 0 0 0 0-.001 0-.589 0-1.109.384-1.282.947-.716 2.324-2.556 8.304-3.343 10.863-.234.76-.768 1.391-1.48 1.747-.543.272-.886.826-.886 1.433z" fill="#fff" fill-opacity=".33"/><path d="m106 96.514c.725-.28 1.539-.244 2.241.107h.002c.485.243.853.668 1.025 1.182.127.382.28.841.413 1.241.191.571.725.956 1.327.956h.001c.589 0 1.109.384 1.282.947.716 2.324 2.556 8.304 3.343 10.863.234.76.768 1.391 1.48 1.747.543.272.886.826.886 1.433v.44c0 .131-.063.252-.17.327s-.243.093-.365.048c-.001 0-.001 0-.002 0-.484-.176-.972-.34-1.463-.491v-.324c0-.607-.343-1.161-.886-1.433-.712-.356-1.246-.987-1.48-1.747-.787-2.559-2.627-8.539-3.343-10.863-.173-.563-.693-.947-1.282-.947-.001 0-.001 0-.001 0-.602 0-1.136-.385-1.327-.956-.133-.4-.286-.859-.413-1.241-.172-.514-.54-.939-1.025-1.182-.001 0-.001 0-.002 0-.079-.04-.159-.075-.241-.107zm-10 18.8c3.254-1.001 6.634-1.446 10-1.336-3.208.105-6.402.714-9.463 1.827-.001 0-.001 0-.002 0-.122.045-.258.027-.365-.048s-.17-.196-.17-.327z" fill="#c88704"/></g><path d="m4 51v-3.293c0-.453.18-.887.5-1.207.32-.32.754-.5 1.207-.5h5.33c.636 0 1.266-.121 1.857-.358.908-.363 2.304-.921 3.212-1.284.591-.237 1.221-.358 1.857-.358h8.33c.453 0 .887.18 1.207.5.32.32.5.754.5 1.207v5.293z" fill="#db923e" fill-opacity=".33" transform="translate(30)"/><path d="m5.5 41.5c-.32.32-.5.754-.5 1.207v9.586c0 .453.18.887.5 1.207.32.32.754.5 1.207.5h20.586c.453 0 .887-.18 1.207-.5.32-.32.5-.754.5-1.207 0-1.681 0-5.905 0-7.586 0-.453-.18-.887-.5-1.207-.32-.32-.754-.5-1.207-.5-1.262 0-3.903 0-5.33 0-.636 0-1.266-.121-1.857-.358-.908-.363-2.304-.921-3.212-1.284-.591-.237-1.221-.358-1.857-.358-2.002 0-6.573 0-8.33 0-.453 0-.887.18-1.207.5z" fill="url(#l)" transform="matrix(-1 0 0 1 63 4)"/><path d="m34 50.707v-2c0-.453.18-.887.5-1.207.32-.32.754-.5 1.207-.5h5.33c.636 0 1.266-.121 1.857-.358.908-.363 2.304-.921 3.212-1.284.591-.237 1.221-.358 1.857-.358h8.33c.453 0 .887.18 1.207.5.32.32.5.754.5 1.207v2c0-.453-.18-.887-.5-1.207-.32-.32-.754-.5-1.207-.5-1.757 0-6.328 0-8.33 0-.636 0-1.266.121-1.857.358-.908.363-2.304.921-3.212 1.284-.591.237-1.221.358-1.857.358-1.427 0-4.068 0-5.33 0-.453 0-.887.18-1.207.5-.32.32-.5.754-.5 1.207z" fill="#fff" fill-opacity=".66"/></g><g transform="translate(96 68)"><path d="m2.5 38.5c-.32.32-.5.754-.5 1.207v18.586c0 .453.18.887.5 1.207.32.32.754.5 1.207.5h24.586c.453 0 .887-.18 1.207-.5.32-.32.5-.754.5-1.207 0-2.879 0-13.707 0-16.586 0-.453-.18-.887-.5-1.207-.32-.32-.754-.5-1.207-.5-1.757 0-6.328 0-8.33 0-.636 0-1.266-.121-1.857-.358-.908-.363-2.304-.921-3.212-1.284-.591-.237-1.221-.358-1.857-.358-2.175 0-7.424 0-9.33 0-.453 0-.887.18-1.207.5z" fill="url(#j)" transform="translate(30)"/><path d="m34 51v-9c0-1.105.895-2 2-2h6.037c.636 0 1.266.121 1.857.358.908.363 2.304.921 3.212 1.284.591.237 1.221.358 1.857.358h7.33c.453 0 .887.18 1.207.5.32.32.5.754.5 1.207v5.293h-10.037c-.636 0-1.266.121-1.857.358-.908.363-2.304.921-3.212 1.284-.591.237-1.221.358-1.857.358-2.127 0-7.037 0-7.037 0z" fill="url(#k)"/><path d="m34 43.998v-2c0-.53.211-1.038.585-1.413.375-.374.883-.585 1.413-.585h6.039c.636 0 1.266.121 1.857.358.908.363 2.304.921 3.212 1.284.591.237 1.221.358 1.857.358h7.33c.453 0 .887.18 1.207.5.32.32.5.754.5 1.207v5.293-3.293c0-.453-.18-.887-.5-1.207-.32-.32-.754-.5-1.207-.5-1.601 0-5.509 0-7.33 0-.636 0-1.266-.121-1.857-.358-.908-.363-2.304-.921-3.212-1.284-.591-.237-1.221-.358-1.857-.358-1.434 0-4.162 0-6.039 0-.53 0-1.038.211-1.413.585-.374.375-.585.883-.585 1.413z" fill="#fff" fill-opacity=".66"/><path d="m164 100h24v24h-24z" fill="url(#Y)" transform="matrix(.833333 0 0 .833333 -92.6667 -55.3333)"/><path d="m142 78h16v16h-16z" fill="url(#Z)" transform="translate(-96 -48)"/><path d="m142 78h16v16h-16z" fill="url(#aa)" transform="matrix(.75 0 0 .75 -58.5 -26.5)"/><path d="m149 87h2v4h-2z" fill="url(#ab)" transform="matrix(2 0 0 1 -246 -48)"/><path d="m144 90h12v2h-12z" fill="url(#ac)" transform="translate(-96 -48)"/><path d="m154 83.084c0-1.702-1.382-3.084-3.084-3.084h-1.832c-1.702 0-3.084 1.382-3.084 3.084v1.832c0 1.702 1.382 3.084 3.084 3.084h1.832c1.702 0 3.084-1.382 3.084-3.084z" fill="url(#ad)" transform="translate(-96 -48)"/><path d="m4 51v-3.293c0-.453.18-.887.5-1.207.32-.32.754-.5 1.207-.5h5.33c.636 0 1.266-.121 1.857-.358.908-.363 2.304-.921 3.212-1.284.591-.237 1.221-.358 1.857-.358h8.33c.453 0 .887.18 1.207.5.32.32.5.754.5 1.207v5.293z" fill="#db923e" fill-opacity=".33" transform="translate(30)"/><path d="m5.5 41.5c-.32.32-.5.754-.5 1.207v9.586c0 .453.18.887.5 1.207.32.32.754.5 1.207.5h20.586c.453 0 .887-.18 1.207-.5.32-.32.5-.754.5-1.207 0-1.681 0-5.905 0-7.586 0-.453-.18-.887-.5-1.207-.32-.32-.754-.5-1.207-.5-1.262 0-3.903 0-5.33 0-.636 0-1.266-.121-1.857-.358-.908-.363-2.304-.921-3.212-1.284-.591-.237-1.221-.358-1.857-.358-2.002 0-6.573 0-8.33 0-.453 0-.887.18-1.207.5z" fill="url(#l)" transform="matrix(-1 0 0 1 63 4)"/><path d="m34 50.707v-2c0-.453.18-.887.5-1.207.32-.32.754-.5 1.207-.5h5.33c.636 0 1.266-.121 1.857-.358.908-.363 2.304-.921 3.212-1.284.591-.237 1.221-.358 1.857-.358h8.33c.453 0 .887.18 1.207.5.32.32.5.754.5 1.207v2c0-.453-.18-.887-.5-1.207-.32-.32-.754-.5-1.207-.5-1.757 0-6.328 0-8.33 0-.636 0-1.266.121-1.857.358-.908.363-2.304.921-3.212 1.284-.591.237-1.221.358-1.857.358-1.427 0-4.068 0-5.33 0-.453 0-.887.18-1.207.5-.32.32-.5.754-.5 1.207z" fill="#fff" fill-opacity=".66"/></g><path d="m164 100h24v24h-24z" fill="url(#Y)"/><path d="m164 100h24v24h-24z" fill="url(#ae)" transform="matrix(.833333 0 0 .833333 29.3333 18.6667)"/><circle cx="165" cy="101" fill="#6e6e6e" r="3"/><circle cx="165.000271" cy="100.999933" fill="#dbdbdb" r=".999999" stroke-width=".333333"/><circle cx="187" cy="101" fill="#595959" r="3"/><circle cx="187.000271" cy="100.999933" fill="#c0c0c0" r=".999999" stroke-width=".333333"/><circle cx="187" cy="123" fill="#3d3d3d" r="3"/><circle cx="187.000271" cy="122.999933" fill="#b0b0b0" r=".999999" stroke-width=".333333"/><circle cx="165" cy="123" fill="#595959" r="3"/><circle cx="165.000271" cy="122.999933" fill="#c0c0c0" r=".999999" stroke-width=".333333"/><g transform="translate(160 68)"><path d="m2.5 38.5c-.32.32-.5.754-.5 1.207v18.586c0 .453.18.887.5 1.207.32.32.754.5 1.207.5h24.586c.453 0 .887-.18 1.207-.5.32-.32.5-.754.5-1.207 0-2.879 0-13.707 0-16.586 0-.453-.18-.887-.5-1.207-.32-.32-.754-.5-1.207-.5-1.757 0-6.328 0-8.33 0-.636 0-1.266-.121-1.857-.358-.908-.363-2.304-.921-3.212-1.284-.591-.237-1.221-.358-1.857-.358-2.175 0-7.424 0-9.33 0-.453 0-.887.18-1.207.5z" fill="url(#j)" transform="translate(30)"/><path d="m34 51v-9.002c0-.53.211-1.038.585-1.413.375-.374.883-.585 1.413-.585h6.039c.636 0 1.266.121 1.857.358.908.363 2.304.921 3.212 1.284.591.237 1.221.358 1.857.358h7.33c.453 0 .887.18 1.207.5.32.32.5.754.5 1.207v5.293h-10.037c-.636 0-1.266.121-1.857.358-.908.363-2.304.921-3.212 1.284-.591.237-1.221.358-1.857.358-2.127 0-7.037 0-7.037 0z" fill="url(#k)"/><path d="m34 43.998v-2c0-.53.211-1.038.585-1.413.375-.374.883-.585 1.413-.585h6.039c.636 0 1.266.121 1.857.358.908.363 2.304.921 3.212 1.284.591.237 1.221.358 1.857.358h7.33c.453 0 .887.18 1.207.5.32.32.5.754.5 1.207v5.293-3.293c0-.453-.18-.887-.5-1.207-.32-.32-.754-.5-1.207-.5-1.601 0-5.509 0-7.33 0-.636 0-1.266-.121-1.857-.358-.908-.363-2.304-.921-3.212-1.284-.591-.237-1.221-.358-1.857-.358-1.434 0-4.162 0-6.039 0-.53 0-1.038.211-1.413.585-.374.375-.585.883-.585 1.413z" fill="#fff" fill-opacity=".66"/><g transform="matrix(.722222 0 0 .722222 18.3333 -21.1111)"><path d="m62 120c0-1.656-1.344-3-3-3s-3 1.344-3 3v1c0 1.656 1.344 3 3 3s3-1.344 3-3z" fill="#edb87e" transform="translate(1 -31)"/><path d="m58 86.171c.313-.111.649-.171 1-.171 1.656 0 3 1.344 3 3v1c0 1.656-1.344 3-3 3-.351 0-.687-.06-1-.171 1.165-.412 2-1.524 2-2.829v-1c0-1.305-.835-2.417-2-2.829z" fill="#cea67c" transform="translate(1)"/><path d="m62 120c0-1.656-1.344-3-3-3s-3 1.344-3 3v1c0 1.656 1.344 3 3 3s3-1.344 3-3z" fill="#edb87e" transform="translate(-23 -31)"/><path d="m38 92.829c-.313.111-.649.171-1 .171-1.656 0-3-1.344-3-3v-1c0-1.656 1.344-3 3-3 .351 0 .687.06 1 .171-1.165.412-2 1.524-2 2.829v1c0 1.305.835 2.417 2 2.829z" fill="#cea67c" transform="translate(-1)"/><g transform="translate(0 -30)"><path d="m42 109s-2.659 1.551-5.473 3.193c-1.197.698-1.885 2.023-1.768 3.403.117 1.381 1.019 2.571 2.316 3.057.002.001.004.002.006.002.581.218 1.033.687 1.229 1.276.173.517.38 1.139.522 1.565.111.332.297.633.543.879.427.427 1.107 1.107 1.435 1.435.126.126.268.235.423.323 4.193 2.396 9.341 2.396 13.534 0 .155-.088.297-.197.423-.323.328-.328 1.008-1.008 1.435-1.435.246-.246.432-.547.543-.879.142-.426.349-1.048.522-1.565.196-.589.648-1.058 1.229-1.276.001 0 .002 0 .002-.001 1.262-.472 2.13-1.639 2.221-2.983s-.612-2.617-1.798-3.255c-3.197-1.722-6.344-3.416-6.344-3.416z" fill="url(#S)"/><path d="m44 109s-2.504 1.461-5.224 3.047c-1.242.725-1.957 2.1-1.835 3.534.122 1.433-1.878 1.433-2 0-.122-1.434.593-2.809 1.835-3.534 2.72-1.586 5.224-3.047 5.224-3.047z" fill="#fff" fill-opacity=".49"/><path d="m38.006 119.251c-.004-.083-.006-.167-.006-.251 0-3.863 4.481-7 10-7 .337 0 .671.012 1 .035-5.05.351-9 3.338-9 6.965 0 3.469 3.613 6.352 8.346 6.905-2.474.061-4.961-.542-7.183-1.812-.108-.062-.208-.138-.296-.226-.237-.237-.751-.751-1.179-1.179-.452-.452-.793-1.004-.996-1.611-.152-.457-.333-.999-.471-1.414-.05-.15-.123-.288-.215-.412z" fill="#fff" fill-opacity=".5"/></g><path d="m35.064 84.266c.316 1.133 1.155 2.066 2.281 2.488.001.001.001.001.001.001.414.155.735.488.875.908.138.415.319.957.471 1.414.203.607.544 1.159.996 1.611.428.428.942.942 1.179 1.179.088.088.188.164.296.226 4.237 2.421 9.437 2.421 13.674 0 .108-.062.208-.138.296-.226.237-.237.751-.751 1.179-1.179.452-.452.793-1.004.996-1.611.15-.451.327-.983.465-1.396.144-.431.474-.774.899-.933 0 0 .001 0 .002-.001 1.06-.397 1.852-1.269 2.162-2.327.116.395.165.814.136 1.24-.094 1.39-.993 2.598-2.298 3.087-.001.001-.002.001-.002.001-.425.159-.755.502-.899.933-.138.413-.315.945-.465 1.396-.203.607-.544 1.159-.996 1.611-.428.428-.942.942-1.179 1.179-.088.088-.188.164-.296.226-4.237 2.421-9.437 2.421-13.674 0-.108-.062-.208-.138-.296-.226-.237-.237-.751-.751-1.179-1.179-.452-.452-.793-1.004-.996-1.611-.152-.457-.333-.999-.471-1.414-.14-.42-.461-.753-.875-.908 0 0 0 0-.001-.001-1.347-.505-2.282-1.74-2.404-3.173-.038-.45.006-.895.123-1.315z" fill="#5991df"/><path d="m47.654 125.905c4.733-.553 8.346-3.436 8.346-6.905 0-3.627-3.95-6.614-9-6.965.329-.023.663-.035 1-.035 5.519 0 10 3.137 10 7 0 .087-.002.173-.007.259-.094.126-.169.268-.22.422-.138.413-.315.945-.465 1.396-.203.607-.544 1.159-.996 1.611-.428.428-.942.942-1.179 1.179-.088.088-.188.164-.296.226-2.222 1.27-4.709 1.873-7.183 1.812z" fill="#5991df" transform="translate(0 -30)"/><g transform="translate(0 -30)"><circle cx="48" cy="106" fill="url(#T)" r="8"/><g clip-path="url(#ag)"><path d="m38 104.088c0 1.085.746 2.028 1.802 2.277 1.057.249 2.146-.26 2.631-1.231.002-.004.004-.007.005-.011.357-.713 1.007-1.234 1.78-1.428.45-.112.963-.24 1.425-.356.814-.203 1.668.127 2.133.825.073.109.147.22.221.331.652.979 1.595 1.727 2.697 2.14.497.187 1.066.4 1.655.621 1.057.396 2.242.249 3.169-.394.928-.643 1.482-1.7 1.482-2.829v-6.033h-19z" fill="url(#U)"/></g></g><path d="m55.938 75c.041.328.062.661.062 1 0 4.415-3.585 8-8 8s-8-3.585-8-8c0-.339.021-.672.062-1 .493 3.944 3.861 7 7.938 7s7.445-3.056 7.938-7z" fill="#cea67c" transform="translate(0 1)"/></g><path d="m4 51v-3.293c0-.453.18-.887.5-1.207.32-.32.754-.5 1.207-.5h5.33c.636 0 1.266-.121 1.857-.358.908-.363 2.304-.921 3.212-1.284.591-.237 1.221-.358 1.857-.358h8.33c.453 0 .887.18 1.207.5.32.32.5.754.5 1.207v5.293z" fill="#db923e" fill-opacity=".33" transform="translate(30)"/><path d="m5.5 41.5c-.32.32-.5.754-.5 1.207v9.586c0 .453.18.887.5 1.207.32.32.754.5 1.207.5h20.586c.453 0 .887-.18 1.207-.5.32-.32.5-.754.5-1.207 0-1.681 0-5.905 0-7.586 0-.453-.18-.887-.5-1.207-.32-.32-.754-.5-1.207-.5-1.262 0-3.903 0-5.33 0-.636 0-1.266-.121-1.857-.358-.908-.363-2.304-.921-3.212-1.284-.591-.237-1.221-.358-1.857-.358-2.002 0-6.573 0-8.33 0-.453 0-.887.18-1.207.5z" fill="url(#l)" transform="matrix(-1 0 0 1 63 4)"/><path d="m34 50.707v-2c0-.453.18-.887.5-1.207.32-.32.754-.5 1.207-.5h5.33c.636 0 1.266-.121 1.857-.358.908-.363 2.304-.921 3.212-1.284.591-.237 1.221-.358 1.857-.358h8.33c.453 0 .887.18 1.207.5.32.32.5.754.5 1.207v2c0-.453-.18-.887-.5-1.207-.32-.32-.754-.5-1.207-.5-1.757 0-6.328 0-8.33 0-.636 0-1.266.121-1.857.358-.908.363-2.304.921-3.212 1.284-.591.237-1.221.358-1.857.358-1.427 0-4.068 0-5.33 0-.453 0-.887.18-1.207.5-.32.32-.5.754-.5 1.207z" fill="#fff" fill-opacity=".66"/></g></svg>