<?xml version="1.0" encoding="UTF-8" standalone="no"?>
<!-- Created with Inkscape (http://www.inkscape.org/) -->

<svg
   xmlns:dc="http://purl.org/dc/elements/1.1/"
   xmlns:cc="http://creativecommons.org/ns#"
   xmlns:rdf="http://www.w3.org/1999/02/22-rdf-syntax-ns#"
   xmlns:svg="http://www.w3.org/2000/svg"
   xmlns="http://www.w3.org/2000/svg"
   xmlns:sodipodi="http://sodipodi.sourceforge.net/DTD/sodipodi-0.dtd"
   xmlns:inkscape="http://www.inkscape.org/namespaces/inkscape"
   width="214.90625"
   height="219.5625"
   id="svg2"
   version="1.1"
   inkscape:version="0.48.2 r9819"
   sodipodi:docname="normal.svg">
  <defs
     id="defs4" />
  <sodipodi:namedview
     id="base"
     pagecolor="#000000"
     bordercolor="#666666"
     borderopacity="1.0"
     inkscape:pageopacity="0"
     inkscape:pageshadow="2"
     inkscape:zoom="2.8"
     inkscape:cx="169.46889"
     inkscape:cy="90.651604"
     inkscape:document-units="px"
     inkscape:current-layer="layer1"
     showgrid="false"
     inkscape:window-width="1774"
     inkscape:window-height="971"
     inkscape:window-x="0"
     inkscape:window-y="0"
     inkscape:window-maximized="0"
     fit-margin-top="0"
     fit-margin-left="0"
     fit-margin-right="0"
     fit-margin-bottom="0" />
  <metadata
     id="metadata7">
    <rdf:RDF>
      <cc:Work
         rdf:about="">
        <dc:format>image/svg+xml</dc:format>
        <dc:type
           rdf:resource="http://purl.org/dc/dcmitype/StillImage" />
        <dc:title></dc:title>
      </cc:Work>
    </rdf:RDF>
  </metadata>
  <g
     inkscape:label="Layer 1"
     inkscape:groupmode="layer"
     id="layer1"
     transform="translate(-152.90625,-125.25)">
    <path
       style="font-size:medium;font-style:normal;font-variant:normal;font-weight:normal;font-stretch:normal;text-indent:0;text-align:start;text-decoration:none;line-height:normal;letter-spacing:normal;word-spacing:normal;text-transform:none;direction:ltr;block-progression:tb;writing-mode:lr-tb;text-anchor:start;baseline-shift:baseline;color:#000000;fill:#ffffff;fill-opacity:1;stroke:none;stroke-width:13.50000000000000000;marker:none;visibility:visible;display:inline;overflow:visible;enable-background:accumulate;font-family:Sans;-inkscape-font-specification:Sans"
       d="m 167.65625,125.25 c -8.05474,0 -14.75,6.69526 -14.75,14.75 l 0,138.28125 c 0,8.05474 6.69526,14.75 14.75,14.75 l 64.53125,0.0937 0,36.9375 c 0,8.05474 6.69526,14.75 14.75,14.75 l 106.125,0 c 8.05474,0 14.75,-6.69526 14.75,-14.75 l 0,-138.28125 c 0,-8.05474 -6.69526,-14.75 -14.75,-14.75 l -64.875,0 L 288.53125,140 c 0.0774,-8.05437 -6.69526,-14.75 -14.75,-14.75 l -106.125,0 z m 0,13.5 106.125,0 c 0.80926,0 1.25,0.44074 1.25,1.25 l 0,37.03125 -28.09375,0 c -8.05474,0 -14.75,6.69526 -14.75,14.75 l 0,87.75 -64.53125,0 c -0.80926,0 -1.25,-0.44074 -1.25,-1.25 l 0,-138.28125 c 0,-0.80926 0.44074,-1.25 1.25,-1.25 z m 79.28125,51.78125 106.125,0 c 0.80926,0 1.25,0.44074 1.25,1.25 l 0,138.28125 c 0,0.80926 -0.44074,1.25 -1.25,1.25 l -106.125,0 c -0.80926,0 -1.25,-0.44074 -1.25,-1.25 l 0,-138.28125 c 0,-0.80926 0.44074,-1.25 1.25,-1.25 z"
       id="rect3971"
       inkscape:connector-curvature="0" />
    <rect
       style="fill:#ffffff;fill-opacity:1;stroke:none"
       id="rect4005"
       width="49.339554"
       height="16.42857"
       x="182.85715"
       y="163.79076" />
    <rect
       style="fill:#ffffff;fill-opacity:1;stroke:none"
       id="rect4009"
       width="40"
       height="15"
       x="182.85715"
       y="202.18362" />
    <rect
       style="fill:#ffffff;fill-opacity:1;stroke:none"
       id="rect4011"
       width="40"
       height="15"
       x="182.85715"
       y="239.86218" />
    <rect
       style="fill:#ffffff;fill-opacity:1;stroke:none"
       id="rect4013"
       width="76.428574"
       height="15.357142"
       x="261.96429"
       y="215.93361" />
    <rect
       y="253.79076"
       x="261.96429"
       height="15.357142"
       width="76.428574"
       id="rect4015"
       style="fill:#ffffff;fill-opacity:1;stroke:none" />
    <rect
       style="fill:#ffffff;fill-opacity:1;stroke:none"
       id="rect4023"
       width="76.428574"
       height="15.357142"
       x="261.96429"
       y="292.00504" />
  </g>
</svg>
