<?xml version="1.0" encoding="utf-8"?>
<!-- Generator: Adobe Illustrator 19.2.1, SVG Export Plug-In . SVG Version: 6.00 Build 0)  -->
<svg version="1.1" xmlns="http://www.w3.org/2000/svg" xmlns:xlink="http://www.w3.org/1999/xlink" x="0px" y="0px"
	 viewBox="0 0 16 16" style="enable-background:new 0 0 16 16;" xml:space="preserve">
<style type="text/css">
	.st0{display:none;}
	.st1{display:inline;}
	.st2{fill:#D0CDC6;}
	.st3{fill:#FFFFFF;}
	.st4{fill:#1D4775;}
	.st5{fill:#8194A9;}
	.st6{fill:#EBF1F5;}
	.st7{display:inline;fill:#FAF1F5;}
	.st8{opacity:0.74;}
	.st9{fill:#C91517;}
	.st10{display:inline;fill:#C91517;}
	.st11{display:inline;fill:#FFFFFF;}
	.st12{display:none;fill:#C91517;}
	.st13{display:inline;fill:#2C933D;}
	.st14{display:inline;opacity:0.87;fill:#FFFFFF;stroke:#000000;stroke-width:1.75;stroke-miterlimit:10;}
	.st15{fill:#2C933D;}
	.st16{display:none;fill:#2C933D;}
	.st17{fill:#676767;}
</style>
<g id="backgrounds" class="st0">
	<rect id="black" x="-88" y="-16" class="st1" width="120" height="80"/>
	<rect id="win2k" x="-88" y="-16" class="st2" width="120" height="80"/>
	<rect id="white" x="-88" y="-16" class="st3" width="120" height="80"/>
	<rect id="win7_aero" x="-88" y="-16" class="st4" width="120" height="80"/>
	<rect id="win7_1_" x="-88" y="-16" class="st5" width="120" height="80"/>
	<rect id="macosx" x="-88" y="-16" class="st6" width="120" height="80"/>
	<rect id="macosx2" x="-88" y="-16" class="st7" width="120" height="80"/>
</g>
<g id="_x31_8x18_optimized__x28_OSX_x29_">
	<g id="error_mono">
		<g id="cross">
		</g>
		<g id="error_1_" class="st0">
		</g>
	</g>
	<g id="paused_mono">
		<g id="pause">
		</g>
		<g id="pause_Kopie" class="st0">
		</g>
	</g>
	<g id="inactive_mono">
		<g id="based_on" class="st0">
		</g>
	</g>
	<g id="running_mono">
	</g>
</g>
<g id="_x31_6x16_optimized__x28_Win_x29_">
	<g id="error">
		<g id="small_6_">
			<path class="st9" d="M8.5,13.5c-1.1,0-2-0.9-2-2v-1c0-1.1,0.9-2,2-2h3c1.1,0,2,0.9,2,2v1c0,1.1-0.9,2-2,2H8.5z"/>
			<path class="st3" d="M11.5,9c0.8,0,1.5,0.7,1.5,1.5v1c0,0.8-0.7,1.5-1.5,1.5h-3C7.7,13,7,12.3,7,11.5v-1C7,9.7,7.7,9,8.5,9H11.5
				 M11.5,8h-3C7.1,8,6,9.1,6,10.5v1C6,12.9,7.1,14,8.5,14h3c1.4,0,2.5-1.1,2.5-2.5v-1C14,9.1,12.9,8,11.5,8L11.5,8z"/>
		</g>
		<g id="middle_6_">
			<path class="st9" d="M3,14.5c-1.4,0-2.5-1.1-2.5-2.5v-1c0-1.4,1.1-2.5,2.5-2.5h3c1.4,0,2.5,1.1,2.5,2.5v1c0,1.4-1.1,2.5-2.5,2.5
				H3z"/>
			<path class="st3" d="M6,9c1.1,0,2,0.9,2,2v1c0,1.1-0.9,2-2,2H3c-1.1,0-2-0.9-2-2v-1c0-1.1,0.9-2,2-2H6 M6,8H3c-1.7,0-3,1.3-3,3v1
				c0,1.7,1.3,3,3,3h3c1.7,0,3-1.3,3-3v-1C9,9.3,7.7,8,6,8L6,8z"/>
		</g>
		<g id="big_6_">
			<path class="st9" d="M7,10.5c-1.4,0-2.5-1.1-2.5-2.5V4c0-1.4,1.1-2.5,2.5-2.5h6c1.4,0,2.5,1.1,2.5,2.5v4c0,1.4-1.1,2.5-2.5,2.5H7
				z"/>
			<path class="st3" d="M13,2c1.1,0,2,0.9,2,2v4c0,1.1-0.9,2-2,2H7c-1.1,0-2-0.9-2-2V4c0-1.1,0.9-2,2-2H13 M13,1H7C5.3,1,4,2.3,4,4
				v4c0,1.7,1.3,3,3,3h6c1.7,0,3-1.3,3-3V4C16,2.3,14.7,1,13,1L13,1z"/>
		</g>
		<rect x="9.5" y="1.7" transform="matrix(-0.7071 -0.7071 0.7071 -0.7071 12.8713 17.2959)" class="st3" width="1" height="8.5"/>
		<rect x="9.5" y="1.8" transform="matrix(0.7071 -0.7071 0.7071 0.7071 -1.3163 8.8347)" class="st3" width="1" height="8.5"/>
	</g>
	<g id="paused">
	</g>
	<g id="inactive">
	</g>
	<g id="running_1_">
	</g>
</g>
</svg>
