<svg clip-rule="evenodd" fill-rule="evenodd" stroke-linejoin="round" stroke-miterlimit="2" viewBox="0 0 27 26" xmlns="http://www.w3.org/2000/svg"><path d="m13.5 2c6.071 0 11 4.929 11 11s-4.929 11-11 11-11-4.929-11-11 4.929-11 11-11zm0 2c4.967 0 9 4.033 9 9s-4.033 9-9 9-9-4.033-9-9 4.033-9 9-9zm1.5 8.499c0-.827-.672-1.499-1.499-1.499h-.002c-.827 0-1.499.672-1.499 1.499v6.002c0 .827.672 1.499 1.499 1.499h.002c.827 0 1.499-.672 1.499-1.499zm-1.5-6.499c.828 0 1.5.672 1.5 1.5s-.672 1.5-1.5 1.5-1.5-.672-1.5-1.5.672-1.5 1.5-1.5z" fill="#65b1dd"/></svg>