<svg clip-rule="evenodd" fill-rule="evenodd" stroke-linejoin="round" stroke-miterlimit="2" viewBox="0 0 27 26" xmlns="http://www.w3.org/2000/svg"><g fill="#65b1dd" fill-rule="nonzero"><path d="m32 4h17c2.7 0 5 2.275 5 5v30c0 2.693-2.307 5-5 5h-15v2.004c0 1.06.421 2.076 1.17 2.826.75.749 1.766 1.17 2.826 1.17h.004v2h-22v-2c2.209 0 4-1.791 4-4v-2h-15c-2.693 0-5-2.307-5-5v-30c0-2.725 2.275-5 5-5h17v4h-18v28h46v-28h-18z" transform="scale(.5)"/><path d="m9.313-1.339h5.303v14.143l3.536-3.536 3.119 3.536-9.306 9.723-9.724-9.723 3.536-3.536 3.536 3.536z" transform="matrix(.565657 0 0 .565657 6.73212 .757374)"/></g></svg>