<svg clip-rule="evenodd" fill-rule="evenodd" stroke-linecap="round" stroke-linejoin="round" stroke-miterlimit="1.5" viewBox="0 0 33 33" xmlns="http://www.w3.org/2000/svg"><g fill="#65b1dd"><path d="m16.712 1.547c-.134-.063-.29-.063-.424 0l-16 7.5c-.176.083-.288.259-.288.453s.112.37.288.453l16 7.5c.134.063.29.063.424 0l16-7.5c.176-.083.288-.259.288-.453s-.112-.37-.288-.453z"/><path d="m16.5 28.198 2.288-1.073c.155-.072.336-.061.48.031.145.092.232.251.232.422v3c0 .194-.112.371-.288.453l-2.5 1.172c-.134.063-.29.063-.424 0l-16-7.5c-.176-.083-.288-.259-.288-.453v-3c0-.171.087-.33.232-.422.144-.092.325-.103.48-.031z"/><path d="m16.5 20.948 2.293-1.075c.162-.076.352-.06.498.043.147.102.228.274.212.452-.002.027-.003.055-.003.082v2.878c0 .194-.112.371-.288.453l-2.5 1.172c-.134.063-.29.063-.424 0l-16-7.5c-.176-.083-.288-.259-.288-.453v-3c0-.171.087-.33.232-.422.144-.092.325-.103.48-.031zm5.121-2.401c-.212.1-.327.333-.276.562.051.228.254.391.488.391h6.4c.074 0 .146-.016.213-.047l4.266-2c.176-.083.288-.259.288-.453v-3c0-.171-.087-.33-.232-.422-.144-.092-.325-.103-.48-.031z"/><path d="m24.5 22.5v8l5-4z" stroke="#65b1dd"/></g></svg>