<svg clip-rule="evenodd" fill-rule="evenodd" stroke-linejoin="round" stroke-miterlimit="2" viewBox="0 0 26 26" xmlns="http://www.w3.org/2000/svg"><g fill="#65b1dd"><path d="m13 0c7.175 0 13 5.825 13 13s-5.825 13-13 13-13-5.825-13-13 5.825-13 13-13zm0 3c5.519 0 10 4.481 10 10s-4.481 10-10 10-10-4.481-10-10 4.481-10 10-10z"/><path d="m12 11.5v-4.5c0-.828.672-1.5 1.5-1.5s1.5.672 1.5 1.5v4.5h4.5c.828 0 1.5.672 1.5 1.5s-.672 1.5-1.5 1.5h-4.5v4.5c0 .828-.672 1.5-1.5 1.5s-1.5-.672-1.5-1.5v-4.5h-4.5c-.828 0-1.5-.672-1.5-1.5s.672-1.5 1.5-1.5z" transform="matrix(.707107 -.707107 .707107 .707107 -5.73833 13.3536)"/></g></svg>