<svg clip-rule="evenodd" fill-rule="evenodd" stroke-linejoin="round" stroke-miterlimit="2" viewBox="0 0 26 26" xmlns="http://www.w3.org/2000/svg"><g fill="#65b1dd"><path d="m.038 18c.125-1.642.556-3.2 1.236-4.615l3.479 2.008c-.357.814-.596 1.69-.698 2.607zm21.907 0c-.1-.905-.335-1.77-.684-2.574l3.481-2.009c.67 1.407 1.096 2.953 1.22 4.583zm-1.679-4.309c-.54-.738-1.191-1.392-1.928-1.936l2.008-3.479c1.333.915 2.487 2.072 3.398 3.407zm-14.612-5.415 2.008 3.479c-.727.537-1.37 1.18-1.907 1.907l-3.479-2.008c.908-1.323 2.055-2.47 3.378-3.378zm1.731-1.002c1.415-.68 2.973-1.111 4.615-1.236v4.017c-.917.102-1.793.341-2.607.698zm9.222 3.479c-.814-.357-1.69-.596-2.607-.698v-4.017c1.642.125 3.2.556 4.615 1.236z"/><path d="m11.208 16.5h-.001l2.293-5.5 2.293 5.5h-.001c.134.306.208.645.208 1 0 1.38-1.12 2.5-2.5 2.5s-2.5-1.12-2.5-2.5c0-.355.074-.694.208-1z" transform="matrix(.855468 -.598201 .598201 .855468 -9.12678 10.4956)"/></g></svg>