/* XPM */
static char *appicon_32x32[] = {
/* columns rows colors chars-per-pixel */
"32 32 24 1 ",
"  c #1D4775",
". c #365B84",
"X c #375C85",
"o c #336697",
"O c #4976A2",
"+ c #4977A2",
"@ c #4A77A3",
"# c #517DA6",
"$ c #65B1DD",
"% c #77BAE1",
"& c #BDCAD7",
"* c #BECAD7",
"= c #BFCBD8",
"- c #BACBDC",
"; c #BDCEDE",
": c #C4D3E1",
"> c #C5D3E1",
", c #C5D4E2",
"< c #D4E9F5",
"1 c #F0F4F7",
"2 c #F4F7F9",
"3 c #FEFEFE",
"4 c white",
"5 c None",
/* pixels */
"55555555555555555555555555555555",
"55555555555555555555555555555555",
"55555555554444444444444444444455",
"55555555544444444444444444444445",
"5555555544&.                .&44",
"5555555544.                  .44",
"5555555544                    44",
"5555555544                    44",
"5555555544                    44",
"5555555544                    44",
"5555555544                    44",
"5555555544                    44",
"5555555544                    44",
"5555555544                    44",
"5555555544                    44",
"5555555544                    44",
"5544444444                    44",
"5444444444                    44",
"44,+oooo24.                  .44",
"44+ooooo=4=.                X=44",
"44oooooo#14444444444444444444445",
"44ooooooo@=244444444444444444455",
"44oooooooooooooo44$$$$$$$4455555",
"44oooooooooooooo44$$$$$$$4455555",
"44oooooooooooooo44$$$$$$$4455555",
"44oooooooooooooo44$$$$$$%4455555",
"44oooooooooooooo44$$$$$%<4455555",
"44@oooooooooooo@4444444444555555",
"44,@oooooooooo@,4444444445555555",
"54444444444444444555555555555555",
"55444444444444445555555555555555",
"55555555555555555555555555555555"
};
