<svg id="_16x16_optimized" data-name="16x16 optimized" xmlns="http://www.w3.org/2000/svg" viewBox="0 0 16 16"><title>tray_icons</title><g id="paused"><g id="small"><rect x="6.5" y="8.5" width="7" height="5" rx="2" ry="2" style="fill:#676767"/><path d="M11.5,9A1.5,1.5,0,0,1,13,10.5v1A1.5,1.5,0,0,1,11.5,13h-3A1.5,1.5,0,0,1,7,11.5v-1A1.5,1.5,0,0,1,8.5,9h3m0-1h-3A2.50284,2.50284,0,0,0,6,10.5v1A2.50284,2.50284,0,0,0,8.5,14h3A2.50284,2.50284,0,0,0,14,11.5v-1A2.50284,2.50284,0,0,0,11.5,8h0Z" style="fill:#fff"/></g><g id="middle"><rect x="0.5" y="8.5" width="8" height="6" rx="2" ry="2" style="fill:#676767"/><path d="M6.5,9A1.5,1.5,0,0,1,8,10.5v2A1.5,1.5,0,0,1,6.5,14h-4A1.5,1.5,0,0,1,1,12.5v-2A1.5,1.5,0,0,1,2.5,9h4m0-1h-4A2.50284,2.50284,0,0,0,0,10.5v2A2.50284,2.50284,0,0,0,2.5,15h4A2.50284,2.50284,0,0,0,9,12.5v-2A2.50284,2.50284,0,0,0,6.5,8h0Z" style="fill:#fff"/></g><g id="big"><rect x="4.5" y="1.5" width="11" height="9" rx="2" ry="2" style="fill:#676767"/><path d="M13.5,2A1.5,1.5,0,0,1,15,3.5v5A1.5,1.5,0,0,1,13.5,10h-7A1.5,1.5,0,0,1,5,8.5v-5A1.5,1.5,0,0,1,6.5,2h7m0-1h-7A2.50284,2.50284,0,0,0,4,3.5v5A2.50284,2.50284,0,0,0,6.5,11h7A2.50284,2.50284,0,0,0,16,8.5v-5A2.50284,2.50284,0,0,0,13.5,1h0Z" style="fill:#fff"/></g><rect x="7" y="3" width="2" height="6" style="fill:#fff"/><rect x="11" y="3" width="2" height="6" style="fill:#fff"/></g></svg>