<?xml version="1.0" encoding="utf-8"?>
<!-- Generator: Adobe Illustrator 19.2.1, SVG Export Plug-In . SVG Version: 6.00 Build 0)  -->
<svg version="1.1" xmlns="http://www.w3.org/2000/svg" xmlns:xlink="http://www.w3.org/1999/xlink" x="0px" y="0px"
	 viewBox="0 0 16 16" style="enable-background:new 0 0 16 16;" xml:space="preserve">
<style type="text/css">
	.st0{display:none;}
	.st1{display:inline;}
	.st2{fill:#D0CDC6;}
	.st3{fill:#FFFFFF;}
	.st4{fill:#1D4775;}
	.st5{fill:#8194A9;}
	.st6{fill:#EBF1F5;}
	.st7{fill:#2C933D;}
	.st8{fill:#676767;}
	.st9{fill:#C91517;}
</style>
<g id="backgrounds" class="st0">
	<rect id="black" x="-40" y="-15" class="st1" width="120" height="45"/>
	<rect id="win2k" x="-40" y="-15" class="st2" width="120" height="45"/>
	<rect id="white" x="-40" y="-15" class="st3" width="120" height="45"/>
	<rect id="win7_aero" x="-40" y="-15" class="st4" width="120" height="45"/>
	<rect id="win7_1_" x="-40" y="-15" class="st5" width="120" height="45"/>
	<rect id="macosx" x="-40" y="-15" class="st6" width="120" height="45"/>
</g>
<g id="_x31_6x16_optimized">
	<g id="green">
	</g>
	<g id="black_1_">
		<g id="small_2_">
			<path d="M11,12.5c-0.8,0-1.5-0.7-1.5-1.5V9c0-0.8,0.7-1.5,1.5-1.5h3c0.8,0,1.5,0.7,1.5,1.5v2c0,0.8-0.7,1.5-1.5,1.5H11z"/>
			<path class="st3" d="M14,8c0.6,0,1,0.4,1,1v2c0,0.6-0.4,1-1,1h-3c-0.6,0-1-0.4-1-1V9c0-0.6,0.4-1,1-1H14 M14,7h-3
				C9.9,7,9,7.9,9,9v2c0,1.1,0.9,2,2,2h3c1.1,0,2-0.9,2-2V9C16,7.9,15.1,7,14,7L14,7z"/>
		</g>
		<g id="middle_2_">
			<path d="M2,13.5c-0.8,0-1.5-0.7-1.5-1.5V9c0-0.8,0.7-1.5,1.5-1.5h5c0.8,0,1.5,0.7,1.5,1.5v3c0,0.8-0.7,1.5-1.5,1.5H2z"/>
			<path class="st3" d="M7,8c0.6,0,1,0.4,1,1v3c0,0.6-0.4,1-1,1H2c-0.6,0-1-0.4-1-1V9c0-0.6,0.4-1,1-1H7 M7,7H2C0.9,7,0,7.9,0,9v3
				c0,1.1,0.9,2,2,2h5c1.1,0,2-0.9,2-2V9C9,7.9,8.1,7,7,7L7,7z"/>
		</g>
		<g id="big_2_">
			<path d="M6,9.5C5.2,9.5,4.5,8.8,4.5,8V3c0-0.8,0.7-1.5,1.5-1.5h7c0.8,0,1.5,0.7,1.5,1.5v5c0,0.8-0.7,1.5-1.5,1.5H6z"/>
			<path class="st3" d="M13,2c0.6,0,1,0.4,1,1v5c0,0.6-0.4,1-1,1H6C5.4,9,5,8.6,5,8V3c0-0.6,0.4-1,1-1H13 M13,1H6C4.9,1,4,1.9,4,3v5
				c0,1.1,0.9,2,2,2h7c1.1,0,2-0.9,2-2V3C15,1.9,14.1,1,13,1L13,1z"/>
		</g>
	</g>
	<g id="grey">
	</g>
	<g id="red">
	</g>
</g>
</svg>
