<?xml version="1.0" encoding="utf-8"?>
<!-- Generator: Adobe Illustrator 20.1.0, SVG Export Plug-In . SVG Version: 6.00 Build 0)  -->
<svg version="1.1" id="Ebene_1" xmlns="http://www.w3.org/2000/svg" xmlns:xlink="http://www.w3.org/1999/xlink" x="0px" y="0px"
	 viewBox="0 0 22 22" style="enable-background:new 0 0 22 22;" xml:space="preserve">
<style type="text/css">
	.st0{fill:#65B1DD;}
</style>
<path class="st0" d="M11.5,6C12.9,6,14,4.9,14,3.5S12.9,1,11.5,1S9,2.1,9,3.5S10.1,6,11.5,6z M11.5,8.5C10.1,8.5,9,9.6,9,11
	s1.1,2.5,2.5,2.5S14,12.4,14,11S12.9,8.5,11.5,8.5z M11.5,16C10.1,16,9,17.1,9,18.5s1.1,2.5,2.5,2.5s2.5-1.1,2.5-2.5
	S12.9,16,11.5,16z"/>
</svg>
