/* XPM */
static char *logo[] = {
/* columns rows colors chars-per-pixel */
"32 32 145 2",
"   c #2F8D2F",
".  c #2E922E",
"X  c #2F9A2F",
"o  c #2F8D30",
"O  c #318D31",
"+  c #309430",
"@  c #329A32",
"#  c #3B9D3C",
"$  c #2FA12F",
"%  c #2FAD2F",
"&  c #2FB12F",
"*  c #2FA930",
"=  c #30A331",
"-  c #31AB31",
";  c #32B332",
":  c #32BC32",
">  c #33C533",
",  c #33CC33",
"<  c #3DC53E",
"1  c #3FAF40",
"2  c #409E40",
"3  c #4C924C",
"4  c #549454",
"5  c #579957",
"6  c #40A341",
"7  c #41AC42",
"8  c #41B442",
"9  c #42BC43",
"0  c #47B548",
"q  c #4BB34B",
"w  c #48B949",
"e  c #52BB52",
"r  c #6A976C",
"t  c #6D9A6E",
"y  c #6F9C70",
"u  c #719E72",
"i  c #7D9A7C",
"p  c #5FB460",
"a  c #63A165",
"s  c #64B765",
"d  c #64B866",
"f  c #68B06A",
"g  c #6EA670",
"h  c #74A274",
"j  c #74AA76",
"k  c #7EA87E",
"l  c #44C245",
"z  c #809E7F",
"x  c #7E9B81",
"c  c #7FA181",
"v  c #8D8C8D",
"b  c #879E87",
"n  c #899D89",
"m  c #939292",
"M  c #909E90",
"N  c #999798",
"B  c #9F9D9E",
"V  c #A09D9F",
"C  c #84A384",
"Z  c #84AC83",
"A  c #88A987",
"S  c #85A288",
"D  c #88A689",
"F  c #8AAD89",
"G  c #90AA8F",
"H  c #8BB08A",
"J  c #8DAB90",
"K  c #92A794",
"L  c #91AB91",
"P  c #96AE98",
"I  c #98AA98",
"U  c #96B496",
"Y  c #98B697",
"T  c #9EB19E",
"R  c #9CBB9B",
"E  c #A19FA0",
"W  c #A3A2A3",
"Q  c #A3AAA4",
"!  c #A8ACA7",
"~  c #A8A7AC",
"^  c #ADABAC",
"/  c #A2B6A2",
"(  c #A0B9A3",
")  c #A9B4A9",
"_  c #AEAEB2",
"`  c #B2AFB4",
"'  c #AFB0B4",
"]  c #B4B2B3",
"[  c #B4B8B4",
"{  c #B3B5BA",
"}  c #BAB6B9",
"|  c #B7BBBB",
" . c #BDBABC",
".. c #C0BDBF",
"X. c #97C197",
"o. c #9DC39D",
"O. c #B7C2B9",
"+. c #B9C5BB",
"@. c #BBC9BE",
"#. c #BCBDC3",
"$. c #BCBFC9",
"%. c #C2BEC0",
"&. c #BECAC1",
"*. c #BCC1CB",
"=. c #BEC2D0",
"-. c #C3C2C5",
";. c #C1CCC3",
":. c #C4C5CB",
">. c #C9C6C9",
",. c #C6C8CE",
"<. c #CDCACD",
"1. c #C2C5D1",
"2. c #C5C8D3",
"3. c #CACDD4",
"4. c #C7CBD8",
"5. c #C9CDD8",
"6. c #D2CED1",
"7. c #CED1DB",
"8. c #D5D2D4",
"9. c #D3D5DC",
"0. c #D6D8DF",
"q. c #CED4E6",
"w. c #CED6EA",
"e. c #D1D6E3",
"r. c #D6DAE2",
"t. c #DBDDE4",
"y. c #D4DAED",
"u. c #DADEEA",
"i. c #D9DFF0",
"p. c #E1DCE3",
"a. c #DFE0E6",
"s. c #DEE1EA",
"d. c #DDE3F1",
"f. c #E3E3E6",
"g. c #E3E5ED",
"h. c #E7E8EC",
"j. c #E9E9EC",
"k. c #E1E7F3",
"l. c #E7EAF3",
"z. c #EAEDF4",
"x. c #ECEFF8",
"c. c #EDF0F7",
"v. c #EEF1F8",
"b. c #F0F3F9",
"n. c None",
/* pixels */
"n.n.n.n.n.n.n.n.n.n.n.n.n.n.n.n.n.n.n.n.n.n.n.n.n.n.n.n.n.n.n.n.",
"n.n.n.n. . . . . . ... . . ..... . . .....%... . . .} ] n.n.n.n.",
"n.n.n...Q C h h h h h h h h h h h h h h h h h h h h C ! ` n.n.n.",
"n.n.-.b q , , , , , , , , , , , , , , , , , , , , , > e L W n.n.",
"n.+.! q , l l l l l l 9 l l l < , , , , , , , , , , , , e ) N n.",
"n.-.A > l ( ;.;.&.&.;.&.&.&.O.D w , , , , , , , , , , , > ( W n.",
"n.>.k > l &.z.z.j.z.z.l.z.z.a._ I 0 , , , , , , , , > , > X.^ n.",
"n.>.k > l @.j.g.g.k.g.s.f.g.0.{ <.K 8 > > > > > > > > > > X.^ n.",
"n.>.Z > 9 @.j.g.g.k.g.g.h.g.a.' _ ~ b > > > > , > > > > : X.] n.",
"n.<.Z : 9 @.z.g.g.g.g.g.0.3.3.#.{ { Q f s d p 1 > > > > : X.] n.",
"n.<.Z : 8 @.z.t.9.9.t.t.-.9.f.f.f.f.f.f.a.f.>.S 8 : : : : X.} n.",
"n.6.Z : 8 +.z.t.3.3.9.3.#.j.b.v.v.v.b.v.v.v.3. .L 8 : : : o. .n.",
"n.6.H : 8 @.j.u.r.0.a.3.*.j.v.c.x.v.x.x.v.v.3.>.>.n ; : ; o.%.n.",
"n.8.H ; 7 +.z.r.,.:.9.3.&.j.v.v.x.x.x.x.x.x.0.{ { { a ; ; o.%.n.",
"n.8.H - 7 +.z.f.t.t.s.3.#.h.v.z.v.v.c.x.z.x.z.t.u.p.h & ; o.%.n.",
"n.8.H ; 7 +.z.0.,.:.7.3. .j.c.t.9.9.g.0.9.9.9.0.z.j.j ; - o.%.n.",
"n.8.F - 1 +.j.s.t.t.t.e.:.h.v.s.t.t.g.9.s.g.g.7.h.j.j % - o.%.n.",
"n.8.F - 6 +.z.0.:.*.*.$.| h.c.a.r.t.s.9.x.x.c.7.s.j.h % - o.%.n.",
"n.8.F = 6 O.l.u.e.e.7.7.$.g.c.a.r.r.f.9.x.x.x.7.s.z.j * = o.%.n.",
"n.6.A = 2 O.g.y.y.y.e.q.*.h.v.s.t.s.f.7.s.u.u.4.y.h.h = = R ..n.",
"n.6.A @ 6 | j.f.f.s.s.s.:.h.c.t.9.9.s.9.7.5.4.4.u.g.h $ @ R  .n.",
"n.<.C $ # c P P P L I L Q h.c.g.s.s.u.u.y.e.q.q.y.h.h X @ R } n.",
"n.<.C X @ @ @ @ @ + @ @ h j.x.r.5.3.2.2.1.*.=.=.w.g.h X @ Y [ n.",
"n.>.z X + @ @ X X X X X h j.l.k.d.d.u.y.y.y.w.w.w.g.h X + Y ] n.",
"n.>.z + + + @ + + X X X g j.l.k.d.d.d.y.y.y.y.w.y.g.h X X U ^ n.",
"n.-.i + + + + + + + . . y p.j.g.h.g.g.g.k.f.k.f.g.t.t .   U ^ n.",
"n.%.n + . . + + + + . . 3 y y y u t t t r y t t t r 3 . + / E n.",
"n.} ! 3 . . . . + O + .   . .       .   .   . . . .   . 5 | m n.",
"n.n.^ K 4 O O O         O O O O   O   O O   O o     O 5 ) W n.n.",
"n.n.n.W W I G L L J L G G L L K L G L G G L L G G K / [ E n.n.n.",
"n.n.n.n.m N V V V E B B V B B I V B B B V V V V V V N v n.n.n.n.",
"n.n.n.n.n.n.n.n.n.n.n.n.n.n.n.n.n.n.n.n.n.n.n.n.n.n.n.n.n.n.n.n."
};
