<?xml version="1.0" encoding="UTF-8" standalone="no"?>
<!-- Created with Inkscape (http://www.inkscape.org/) -->

<svg
   xmlns:dc="http://purl.org/dc/elements/1.1/"
   xmlns:cc="http://creativecommons.org/ns#"
   xmlns:rdf="http://www.w3.org/1999/02/22-rdf-syntax-ns#"
   xmlns:svg="http://www.w3.org/2000/svg"
   xmlns="http://www.w3.org/2000/svg"
   xmlns:sodipodi="http://sodipodi.sourceforge.net/DTD/sodipodi-0.dtd"
   xmlns:inkscape="http://www.inkscape.org/namespaces/inkscape"
   width="88.150497mm"
   height="61.925812mm"
   viewBox="0 0 312.34428 219.42217"
   id="svg2"
   version="1.1"
   inkscape:version="0.91 r13725"
   sodipodi:docname="normal.svg">
  <defs
     id="defs4" />
  <sodipodi:namedview
     id="base"
     pagecolor="#ffffff"
     bordercolor="#666666"
     borderopacity="1.0"
     inkscape:pageopacity="0.0"
     inkscape:pageshadow="2"
     inkscape:zoom="0.64371155"
     inkscape:cx="461.98321"
     inkscape:cy="-42.081331"
     inkscape:document-units="px"
     inkscape:current-layer="layer1"
     showgrid="false"
     inkscape:window-width="1680"
     inkscape:window-height="1001"
     inkscape:window-x="0"
     inkscape:window-y="1"
     inkscape:window-maximized="1"
     fit-margin-top="0"
     fit-margin-left="0"
     fit-margin-right="0"
     fit-margin-bottom="0" />
  <metadata
     id="metadata7">
    <rdf:RDF>
      <cc:Work
         rdf:about="">
        <dc:format>image/svg+xml</dc:format>
        <dc:type
           rdf:resource="http://purl.org/dc/dcmitype/StillImage" />
        <dc:title></dc:title>
      </cc:Work>
    </rdf:RDF>
  </metadata>
  <g
     inkscape:label="Layer 1"
     inkscape:groupmode="layer"
     id="layer1"
     transform="translate(-402.8535,-302.7753)">
    <path
       inkscape:connector-curvature="0"
       id="path4219"
       d="m 418.32277,520.2872 c -6.05835,-2.12449 -14.03654,-10.65526 -15.03123,-16.07232 -0.39786,-2.16677 -0.5536,-22.5468 -0.34608,-45.28898 l 0.37731,-41.3494 3.50991,-4.59964 c 1.93046,-2.5298 5.86796,-5.86007 8.75,-7.4006 5.06093,-2.7052 6.597,-2.81436 44.92759,-3.19283 l 39.6875,-0.39188 0,9.45438 0,9.45437 -40.64185,0 -40.64185,0 0.32935,41.5625 c 0.18114,22.85938 0.75123,41.42188 1.26685,41.25 0.51563,-0.17187 23.71875,-0.3125 51.5625,-0.3125 l 50.625,0 0,-15.625 0,-15.625 8.58645,0 8.58645,0 0.77479,4.6875 c 1.69931,10.28077 0.89446,25.23146 -1.62405,30.16815 -3.16972,6.21316 -10.06538,12.17753 -15.97697,13.81919 -7.64733,2.12369 -98.46193,1.65719 -104.72167,-0.53794 z m 191.58366,-4.34076 -28.41635,-0.67114 -4.08365,-4.08314 -4.08366,-4.08314 -0.39851,-19.97936 -0.39851,-19.97936 6.49355,0 6.49356,0 -0.47004,18.4375 -0.47005,18.4375 35.9375,0.33168 35.9375,0.33166 0,-18.76916 0,-18.76918 6.25,0 6.25,0 0,18.56515 c 0,17.22029 -0.20554,18.87283 -2.83741,22.8125 -4.15389,6.21798 -9.92716,8.67088 -19.66259,8.35405 -4.46875,-0.14542 -20.91235,-0.56642 -36.54134,-0.93556 z m -69.71675,-56.21406 c -9.14451,-2.78164 -18.21849,-10.91799 -21.8385,-19.58189 -2.83652,-6.78875 -2.83652,-110.46163 0,-117.25038 2.56473,-6.13826 9.92848,-14.07997 16.13633,-17.40283 5.06539,-2.71134 5.38571,-2.72198 81.96026,-2.72198 l 76.875,0 6.875,3.85517 c 4.48394,2.51438 8.2879,5.93274 10.9375,9.82877 l 4.0625,5.9736 0,58.81141 0,58.8114 -3.06306,5.22673 c -3.544,6.04737 -9.07785,10.54052 -16.64974,13.51856 -4.79534,1.88601 -12.79835,2.08843 -78.75,1.99192 -40.37671,-0.0591 -74.82209,-0.53631 -76.54529,-1.06048 z m 153.75809,-78.20708 0,-55.625 -77.5,0 -77.5,0 0,55.625 0,55.625 77.5,0 77.5,0 0,-55.625 z"
       style="fill:#000000;fill-opacity:1;stroke:none" />
  </g>
</svg>
