<svg clip-rule="evenodd" fill-rule="evenodd" stroke-linecap="round" stroke-linejoin="round" stroke-miterlimit="1.5" viewBox="0 0 33 33" xmlns="http://www.w3.org/2000/svg"><g fill="#65b1dd"><path d="m16.712 1.547c-.134-.063-.29-.063-.424 0l-16 7.5c-.176.083-.288.259-.288.453s.112.37.288.453l16 7.5c.134.063.29.063.424 0l16-7.5c.176-.083.288-.259.288-.453s-.112-.37-.288-.453z"/><g stroke="#65b1dd"><path d="m16.5 21.5 16-7.5v3l-16 7.5-16-7.5v-3z"/><path d="m16.5 21.5 16-7.5v3l-16 7.5-16-7.5v-3z" transform="translate(0 7.25)"/></g></g></svg>